<svg width="377" height="55" viewBox="0 0 377 55" fill="none" xmlns="http://www.w3.org/2000/svg">
<rect width="176" height="55" rx="27.5" fill="#EF443B"/>
<path d="M25.52 33C25.4133 33 25.3173 32.9627 25.232 32.888C25.1573 32.8027 25.12 32.7067 25.12 32.6V22.2C25.12 22.0827 25.1573 21.9867 25.232 21.912C25.3173 21.8373 25.4133 21.8 25.52 21.8H29.68C31.248 21.8 32.464 22.1733 33.328 22.92C34.192 23.6667 34.6453 24.7493 34.688 26.168C34.6987 26.4773 34.704 26.888 34.704 27.4C34.704 27.912 34.6987 28.3173 34.688 28.616C34.6347 30.0987 34.192 31.2027 33.36 31.928C32.5387 32.6427 31.3387 33 29.76 33H25.52ZM29.68 30.696C30.384 30.696 30.9013 30.5307 31.232 30.2C31.5627 29.8587 31.7387 29.32 31.76 28.584C31.7813 28.2747 31.792 27.8747 31.792 27.384C31.792 26.8933 31.7813 26.4987 31.76 26.2C31.7387 25.4853 31.5467 24.9573 31.184 24.616C30.832 24.2747 30.304 24.104 29.6 24.104H28V30.696H29.68ZM41.1491 33.16C39.6451 33.16 38.4611 32.792 37.5971 32.056C36.7331 31.32 36.2745 30.2373 36.2211 28.808C36.2105 28.4987 36.2051 28.04 36.2051 27.432C36.2051 26.8133 36.2105 26.3493 36.2211 26.04C36.2745 24.632 36.7385 23.5493 37.6131 22.792C38.4985 22.024 39.6771 21.64 41.1491 21.64C42.6211 21.64 43.7998 22.024 44.6851 22.792C45.5705 23.5493 46.0345 24.632 46.0771 26.04C46.0985 26.6587 46.1091 27.1227 46.1091 27.432C46.1091 27.7307 46.0985 28.1893 46.0771 28.808C46.0238 30.2373 45.5651 31.32 44.7011 32.056C43.8371 32.792 42.6531 33.16 41.1491 33.16ZM41.1491 30.856C41.7358 30.856 42.1998 30.68 42.5411 30.328C42.8931 29.976 43.0798 29.4373 43.1011 28.712C43.1225 28.0933 43.1331 27.656 43.1331 27.4C43.1331 27.1227 43.1225 26.6853 43.1011 26.088C43.0798 25.3627 42.8931 24.824 42.5411 24.472C42.1891 24.12 41.7251 23.944 41.1491 23.944C40.5731 23.944 40.1091 24.12 39.7571 24.472C39.4158 24.824 39.2291 25.3627 39.1971 26.088C39.1865 26.3867 39.1811 26.824 39.1811 27.4C39.1811 27.9653 39.1865 28.4027 39.1971 28.712C39.2291 29.4373 39.4158 29.976 39.7571 30.328C40.0985 30.68 40.5625 30.856 41.1491 30.856ZM49.6308 33C49.4494 33 49.3054 32.952 49.1988 32.856C49.0921 32.7493 49.0281 32.6213 49.0068 32.472L47.2628 22.248C47.2521 22.216 47.2467 22.1787 47.2467 22.136C47.2467 22.0507 47.2788 21.976 47.3428 21.912C47.4174 21.8373 47.4974 21.8 47.5828 21.8H49.5668C49.8654 21.8 50.0308 21.9173 50.0628 22.152L51.1028 28.392L52.2548 24.712C52.3721 24.424 52.5481 24.28 52.7828 24.28H53.9348C54.2014 24.28 54.3774 24.424 54.4628 24.712L55.6148 28.392L56.6548 22.152C56.6868 21.9173 56.8521 21.8 57.1508 21.8H59.1348C59.2308 21.8 59.3108 21.8373 59.3748 21.912C59.4494 21.976 59.4868 22.0507 59.4868 22.136L59.4708 22.248L57.7268 32.472C57.7054 32.6213 57.6361 32.7493 57.5188 32.856C57.4121 32.952 57.2734 33 57.1028 33H55.5828C55.4121 33 55.2788 32.9573 55.1828 32.872C55.0868 32.7867 55.0174 32.6907 54.9748 32.584L53.3588 28.008L51.7428 32.584C51.6468 32.8613 51.4494 33 51.1508 33H49.6308ZM61.5356 33C61.429 33 61.333 32.9627 61.2476 32.888C61.173 32.8027 61.1356 32.7067 61.1356 32.6V22.2C61.1356 22.0827 61.173 21.9867 61.2476 21.912C61.333 21.8373 61.429 21.8 61.5356 21.8H63.2316C63.4983 21.8 63.6796 21.9013 63.7756 22.104L67.6796 28.248V22.2C67.6796 22.0827 67.717 21.9867 67.7916 21.912C67.877 21.8373 67.973 21.8 68.0796 21.8H69.9996C70.117 21.8 70.213 21.8373 70.2876 21.912C70.3623 21.9867 70.3996 22.0827 70.3996 22.2V32.584C70.3996 32.7013 70.3623 32.8027 70.2876 32.888C70.213 32.9627 70.117 33 69.9996 33H68.2876C68.053 33 67.877 32.8987 67.7596 32.696L63.8556 26.776V32.6C63.8556 32.7067 63.8183 32.8027 63.7436 32.888C63.669 32.9627 63.573 33 63.4556 33H61.5356ZM73.0356 33C72.929 33 72.833 32.9627 72.7476 32.888C72.673 32.8027 72.6356 32.7067 72.6356 32.6V22.2C72.6356 22.0827 72.673 21.9867 72.7476 21.912C72.833 21.8373 72.929 21.8 73.0356 21.8H75.1476C75.265 21.8 75.361 21.8373 75.4356 21.912C75.5103 21.9867 75.5476 22.0827 75.5476 22.2V30.584H80.3956C80.513 30.584 80.609 30.6267 80.6836 30.712C80.7583 30.7867 80.7956 30.8827 80.7956 31V32.6C80.7956 32.7067 80.7583 32.8027 80.6836 32.888C80.609 32.9627 80.513 33 80.3956 33H73.0356ZM86.6179 33.16C85.1139 33.16 83.9299 32.792 83.0659 32.056C82.2019 31.32 81.7432 30.2373 81.6899 28.808C81.6792 28.4987 81.6739 28.04 81.6739 27.432C81.6739 26.8133 81.6792 26.3493 81.6899 26.04C81.7432 24.632 82.2072 23.5493 83.0819 22.792C83.9672 22.024 85.1459 21.64 86.6179 21.64C88.0899 21.64 89.2685 22.024 90.1539 22.792C91.0392 23.5493 91.5032 24.632 91.5459 26.04C91.5672 26.6587 91.5779 27.1227 91.5779 27.432C91.5779 27.7307 91.5672 28.1893 91.5459 28.808C91.4925 30.2373 91.0339 31.32 90.1699 32.056C89.3059 32.792 88.1219 33.16 86.6179 33.16ZM86.6179 30.856C87.2045 30.856 87.6685 30.68 88.0099 30.328C88.3619 29.976 88.5485 29.4373 88.5699 28.712C88.5912 28.0933 88.6019 27.656 88.6019 27.4C88.6019 27.1227 88.5912 26.6853 88.5699 26.088C88.5485 25.3627 88.3619 24.824 88.0099 24.472C87.6579 24.12 87.1939 23.944 86.6179 23.944C86.0419 23.944 85.5779 24.12 85.2259 24.472C84.8845 24.824 84.6979 25.3627 84.6659 26.088C84.6552 26.3867 84.6499 26.824 84.6499 27.4C84.6499 27.9653 84.6552 28.4027 84.6659 28.712C84.6979 29.4373 84.8845 29.976 85.2259 30.328C85.5672 30.68 86.0312 30.856 86.6179 30.856ZM92.5581 33C92.4728 33 92.3928 32.968 92.3181 32.904C92.2541 32.8293 92.2221 32.7493 92.2221 32.664C92.2221 32.6 92.2275 32.552 92.2381 32.52L95.9981 22.248C96.0301 22.12 96.0995 22.0133 96.2061 21.928C96.3128 21.8427 96.4515 21.8 96.6221 21.8H98.9901C99.1608 21.8 99.2995 21.8427 99.4061 21.928C99.5128 22.0133 99.5821 22.12 99.6141 22.248L103.358 32.52L103.39 32.664C103.39 32.7493 103.353 32.8293 103.278 32.904C103.214 32.968 103.134 33 103.038 33H101.07C100.814 33 100.643 32.888 100.558 32.664L99.9341 31.032H95.6621L95.0541 32.664C94.9688 32.888 94.7928 33 94.5261 33H92.5581ZM99.2941 28.728L97.8061 24.504L96.3181 28.728H99.2941ZM105.051 33C104.945 33 104.849 32.9627 104.763 32.888C104.689 32.8027 104.651 32.7067 104.651 32.6V22.2C104.651 22.0827 104.689 21.9867 104.763 21.912C104.849 21.8373 104.945 21.8 105.051 21.8H109.211C110.779 21.8 111.995 22.1733 112.859 22.92C113.723 23.6667 114.177 24.7493 114.219 26.168C114.23 26.4773 114.235 26.888 114.235 27.4C114.235 27.912 114.23 28.3173 114.219 28.616C114.166 30.0987 113.723 31.2027 112.891 31.928C112.07 32.6427 110.87 33 109.291 33H105.051ZM109.211 30.696C109.915 30.696 110.433 30.5307 110.763 30.2C111.094 29.8587 111.27 29.32 111.291 28.584C111.313 28.2747 111.323 27.8747 111.323 27.384C111.323 26.8933 111.313 26.4987 111.291 26.2C111.27 25.4853 111.078 24.9573 110.715 24.616C110.363 24.2747 109.835 24.104 109.131 24.104H107.531V30.696H109.211ZM118.464 33C118.379 33 118.299 32.968 118.224 32.904C118.16 32.8293 118.128 32.7493 118.128 32.664C118.128 32.6 118.134 32.552 118.144 32.52L121.904 22.248C121.936 22.12 122.006 22.0133 122.112 21.928C122.219 21.8427 122.358 21.8 122.528 21.8H124.896C125.067 21.8 125.206 21.8427 125.312 21.928C125.419 22.0133 125.488 22.12 125.52 22.248L129.264 32.52L129.296 32.664C129.296 32.7493 129.259 32.8293 129.184 32.904C129.12 32.968 129.04 33 128.944 33H126.976C126.72 33 126.55 32.888 126.464 32.664L125.84 31.032H121.568L120.96 32.664C120.875 32.888 120.699 33 120.432 33H118.464ZM125.2 28.728L123.712 24.504L122.224 28.728H125.2ZM130.958 33C130.851 33 130.755 32.9627 130.67 32.888C130.595 32.8027 130.558 32.7067 130.558 32.6V22.2C130.558 22.0827 130.595 21.9867 130.67 21.912C130.755 21.8373 130.851 21.8 130.958 21.8H135.438C136.803 21.8 137.875 22.1147 138.654 22.744C139.443 23.3733 139.838 24.2907 139.838 25.496C139.838 26.6907 139.448 27.592 138.67 28.2C137.891 28.7973 136.814 29.096 135.438 29.096H133.534V32.6C133.534 32.7173 133.491 32.8133 133.406 32.888C133.331 32.9627 133.235 33 133.118 33H130.958ZM135.358 26.888C135.827 26.888 136.195 26.7707 136.462 26.536C136.728 26.2907 136.862 25.9333 136.862 25.464C136.862 25.0267 136.734 24.68 136.478 24.424C136.232 24.1573 135.859 24.024 135.358 24.024H133.486V26.888H135.358ZM141.77 33C141.663 33 141.567 32.9627 141.482 32.888C141.407 32.8027 141.37 32.7067 141.37 32.6V22.2C141.37 22.0827 141.407 21.9867 141.482 21.912C141.567 21.8373 141.663 21.8 141.77 21.8H146.25C147.615 21.8 148.687 22.1147 149.466 22.744C150.255 23.3733 150.65 24.2907 150.65 25.496C150.65 26.6907 150.261 27.592 149.482 28.2C148.703 28.7973 147.626 29.096 146.25 29.096H144.346V32.6C144.346 32.7173 144.303 32.8133 144.218 32.888C144.143 32.9627 144.047 33 143.93 33H141.77ZM146.17 26.888C146.639 26.888 147.007 26.7707 147.274 26.536C147.541 26.2907 147.674 25.9333 147.674 25.464C147.674 25.0267 147.546 24.68 147.29 24.424C147.045 24.1573 146.671 24.024 146.17 24.024H144.298V26.888H146.17Z" fill="white"/>
<rect x="207" y="1" width="169" height="53" rx="26.5" fill="#160E33" fill-opacity="0.5"/>
<path d="M233.984 33C233.877 33 233.781 32.9627 233.696 32.888C233.621 32.8027 233.584 32.7067 233.584 32.6V24.312H230.736C230.629 24.312 230.533 24.2747 230.448 24.2C230.373 24.1147 230.336 24.0187 230.336 23.912V22.2C230.336 22.0827 230.373 21.9867 230.448 21.912C230.533 21.8373 230.629 21.8 230.736 21.8H239.344C239.461 21.8 239.557 21.8373 239.632 21.912C239.707 21.9867 239.744 22.0827 239.744 22.2V23.912C239.744 24.0293 239.707 24.1253 239.632 24.2C239.557 24.2747 239.461 24.312 239.344 24.312H236.496V32.6C236.496 32.7067 236.459 32.8027 236.384 32.888C236.309 32.9627 236.213 33 236.096 33H233.984ZM241.598 33C241.491 33 241.395 32.9627 241.31 32.888C241.235 32.8027 241.198 32.7067 241.198 32.6V22.2C241.198 22.0827 241.235 21.9867 241.31 21.912C241.395 21.8373 241.491 21.8 241.598 21.8H245.95C247.347 21.8 248.435 22.12 249.214 22.76C250.003 23.3893 250.398 24.2853 250.398 25.448C250.398 26.1947 250.222 26.8293 249.87 27.352C249.518 27.8747 249.033 28.2747 248.414 28.552L250.606 32.488C250.638 32.552 250.654 32.6107 250.654 32.664C250.654 32.7493 250.617 32.8293 250.542 32.904C250.478 32.968 250.403 33 250.318 33H248.19C247.881 33 247.662 32.856 247.534 32.568L245.71 29.048H244.078V32.6C244.078 32.7173 244.035 32.8133 243.95 32.888C243.875 32.9627 243.779 33 243.662 33H241.598ZM245.918 26.776C246.409 26.776 246.782 26.6587 247.038 26.424C247.294 26.1787 247.422 25.8427 247.422 25.416C247.422 24.9893 247.294 24.6533 247.038 24.408C246.793 24.152 246.419 24.024 245.918 24.024H244.078V26.776H245.918ZM251.621 33C251.535 33 251.455 32.968 251.381 32.904C251.317 32.8293 251.285 32.7493 251.285 32.664C251.285 32.6 251.29 32.552 251.301 32.52L255.061 22.248C255.093 22.12 255.162 22.0133 255.269 21.928C255.375 21.8427 255.514 21.8 255.685 21.8H258.053C258.223 21.8 258.362 21.8427 258.469 21.928C258.575 22.0133 258.645 22.12 258.677 22.248L262.421 32.52L262.453 32.664C262.453 32.7493 262.415 32.8293 262.341 32.904C262.277 32.968 262.197 33 262.101 33H260.133C259.877 33 259.706 32.888 259.621 32.664L258.997 31.032H254.725L254.117 32.664C254.031 32.888 253.855 33 253.589 33H251.621ZM258.357 28.728L256.869 24.504L255.381 28.728H258.357ZM264.114 33C264.007 33 263.911 32.9627 263.826 32.888C263.751 32.8027 263.714 32.7067 263.714 32.6V22.2C263.714 22.0827 263.751 21.9867 263.826 21.912C263.911 21.8373 264.007 21.8 264.114 21.8H268.274C269.842 21.8 271.058 22.1733 271.922 22.92C272.786 23.6667 273.239 24.7493 273.282 26.168C273.292 26.4773 273.298 26.888 273.298 27.4C273.298 27.912 273.292 28.3173 273.282 28.616C273.228 30.0987 272.786 31.2027 271.954 31.928C271.132 32.6427 269.932 33 268.354 33H264.114ZM268.274 30.696C268.978 30.696 269.495 30.5307 269.826 30.2C270.156 29.8587 270.332 29.32 270.354 28.584C270.375 28.2747 270.386 27.8747 270.386 27.384C270.386 26.8933 270.375 26.4987 270.354 26.2C270.332 25.4853 270.14 24.9573 269.778 24.616C269.426 24.2747 268.898 24.104 268.194 24.104H266.594V30.696H268.274ZM275.567 33C275.46 33 275.364 32.9627 275.279 32.888C275.204 32.8027 275.167 32.7067 275.167 32.6V22.2C275.167 22.0827 275.204 21.9867 275.279 21.912C275.364 21.8373 275.46 21.8 275.567 21.8H283.039C283.156 21.8 283.252 21.8373 283.327 21.912C283.402 21.9867 283.439 22.0827 283.439 22.2V23.704C283.439 23.8107 283.402 23.9067 283.327 23.992C283.252 24.0667 283.156 24.104 283.039 24.104H277.935V26.264H282.687C282.804 26.264 282.9 26.3067 282.975 26.392C283.05 26.4667 283.087 26.5627 283.087 26.68V28.072C283.087 28.1787 283.05 28.2747 282.975 28.36C282.9 28.4347 282.804 28.472 282.687 28.472H277.935V30.696H283.167C283.284 30.696 283.38 30.7333 283.455 30.808C283.53 30.8827 283.567 30.9787 283.567 31.096V32.6C283.567 32.7067 283.53 32.8027 283.455 32.888C283.38 32.9627 283.284 33 283.167 33H275.567ZM293.384 33.16C291.859 33.16 290.664 32.792 289.8 32.056C288.947 31.3093 288.493 30.232 288.44 28.824C288.429 28.536 288.424 28.0667 288.424 27.416C288.424 26.7547 288.429 26.2747 288.44 25.976C288.493 24.5893 288.957 23.5227 289.832 22.776C290.707 22.0187 291.891 21.64 293.384 21.64C294.323 21.64 295.165 21.8 295.912 22.12C296.659 22.4293 297.245 22.8773 297.672 23.464C298.109 24.04 298.333 24.7173 298.344 25.496V25.528C298.344 25.6133 298.307 25.688 298.232 25.752C298.168 25.8053 298.093 25.832 298.008 25.832H295.848C295.709 25.832 295.603 25.8053 295.528 25.752C295.453 25.688 295.389 25.576 295.336 25.416C295.187 24.872 294.952 24.4933 294.632 24.28C294.312 24.056 293.891 23.944 293.368 23.944C292.109 23.944 291.459 24.648 291.416 26.056C291.405 26.344 291.4 26.7867 291.4 27.384C291.4 27.9813 291.405 28.4347 291.416 28.744C291.459 30.152 292.109 30.856 293.368 30.856C293.891 30.856 294.317 30.744 294.648 30.52C294.979 30.2853 295.208 29.9067 295.336 29.384C295.379 29.224 295.437 29.1173 295.512 29.064C295.587 29 295.699 28.968 295.848 28.968H298.008C298.104 28.968 298.184 29 298.248 29.064C298.323 29.128 298.355 29.208 298.344 29.304C298.333 30.0827 298.109 30.7653 297.672 31.352C297.245 31.928 296.659 32.376 295.912 32.696C295.165 33.0053 294.323 33.16 293.384 33.16ZM300.426 33C300.32 33 300.224 32.9627 300.138 32.888C300.064 32.8027 300.026 32.7067 300.026 32.6V22.2C300.026 22.0827 300.064 21.9867 300.138 21.912C300.224 21.8373 300.32 21.8 300.426 21.8H304.778C306.176 21.8 307.264 22.12 308.042 22.76C308.832 23.3893 309.226 24.2853 309.226 25.448C309.226 26.1947 309.05 26.8293 308.698 27.352C308.346 27.8747 307.861 28.2747 307.242 28.552L309.434 32.488C309.466 32.552 309.482 32.6107 309.482 32.664C309.482 32.7493 309.445 32.8293 309.37 32.904C309.306 32.968 309.232 33 309.146 33H307.018C306.709 33 306.49 32.856 306.362 32.568L304.538 29.048H302.906V32.6C302.906 32.7173 302.864 32.8133 302.778 32.888C302.704 32.9627 302.608 33 302.49 33H300.426ZM304.746 26.776C305.237 26.776 305.61 26.6587 305.866 26.424C306.122 26.1787 306.25 25.8427 306.25 25.416C306.25 24.9893 306.122 24.6533 305.866 24.408C305.621 24.152 305.248 24.024 304.746 24.024H302.906V26.776H304.746ZM313.931 33C313.825 33 313.729 32.9627 313.643 32.888C313.569 32.8027 313.531 32.7067 313.531 32.6V29.16L309.819 22.312C309.787 22.216 309.771 22.1573 309.771 22.136C309.771 22.0507 309.803 21.976 309.867 21.912C309.942 21.8373 310.027 21.8 310.123 21.8H312.123C312.337 21.8 312.523 21.912 312.683 22.136L314.971 26.264L317.275 22.136C317.403 21.912 317.59 21.8 317.835 21.8H319.835C319.931 21.8 320.011 21.8373 320.075 21.912C320.139 21.976 320.171 22.0507 320.171 22.136C320.171 22.1893 320.161 22.248 320.139 22.312L316.427 29.16V32.6C316.427 32.7173 316.385 32.8133 316.299 32.888C316.225 32.9627 316.129 33 316.011 33H313.931ZM321.942 33C321.835 33 321.739 32.9627 321.654 32.888C321.579 32.8027 321.542 32.7067 321.542 32.6V22.2C321.542 22.0827 321.579 21.9867 321.654 21.912C321.739 21.8373 321.835 21.8 321.942 21.8H326.422C327.787 21.8 328.859 22.1147 329.638 22.744C330.427 23.3733 330.822 24.2907 330.822 25.496C330.822 26.6907 330.433 27.592 329.654 28.2C328.875 28.7973 327.798 29.096 326.422 29.096H324.518V32.6C324.518 32.7173 324.475 32.8133 324.39 32.888C324.315 32.9627 324.219 33 324.102 33H321.942ZM326.342 26.888C326.811 26.888 327.179 26.7707 327.446 26.536C327.713 26.2907 327.846 25.9333 327.846 25.464C327.846 25.0267 327.718 24.68 327.462 24.424C327.217 24.1573 326.843 24.024 326.342 24.024H324.47V26.888H326.342ZM335.218 33C335.112 33 335.016 32.9627 334.93 32.888C334.856 32.8027 334.818 32.7067 334.818 32.6V24.312H331.97C331.864 24.312 331.768 24.2747 331.682 24.2C331.608 24.1147 331.57 24.0187 331.57 23.912V22.2C331.57 22.0827 331.608 21.9867 331.682 21.912C331.768 21.8373 331.864 21.8 331.97 21.8H340.578C340.696 21.8 340.792 21.8373 340.866 21.912C340.941 21.9867 340.978 22.0827 340.978 22.2V23.912C340.978 24.0293 340.941 24.1253 340.866 24.2C340.792 24.2747 340.696 24.312 340.578 24.312H337.73V32.6C337.73 32.7067 337.693 32.8027 337.618 32.888C337.544 32.9627 337.448 33 337.33 33H335.218ZM346.837 33.16C345.333 33.16 344.149 32.792 343.285 32.056C342.421 31.32 341.962 30.2373 341.909 28.808C341.898 28.4987 341.893 28.04 341.893 27.432C341.893 26.8133 341.898 26.3493 341.909 26.04C341.962 24.632 342.426 23.5493 343.301 22.792C344.186 22.024 345.365 21.64 346.837 21.64C348.309 21.64 349.487 22.024 350.373 22.792C351.258 23.5493 351.722 24.632 351.765 26.04C351.786 26.6587 351.797 27.1227 351.797 27.432C351.797 27.7307 351.786 28.1893 351.765 28.808C351.711 30.2373 351.253 31.32 350.389 32.056C349.525 32.792 348.341 33.16 346.837 33.16ZM346.837 30.856C347.423 30.856 347.887 30.68 348.229 30.328C348.581 29.976 348.767 29.4373 348.789 28.712C348.81 28.0933 348.821 27.656 348.821 27.4C348.821 27.1227 348.81 26.6853 348.789 26.088C348.767 25.3627 348.581 24.824 348.229 24.472C347.877 24.12 347.413 23.944 346.837 23.944C346.261 23.944 345.797 24.12 345.445 24.472C345.103 24.824 344.917 25.3627 344.885 26.088C344.874 26.3867 344.869 26.824 344.869 27.4C344.869 27.9653 344.874 28.4027 344.885 28.712C344.917 29.4373 345.103 29.976 345.445 30.328C345.786 30.68 346.25 30.856 346.837 30.856Z" fill="white"/>
<rect x="207" y="1" width="169" height="53" rx="26.5" stroke="#EF443B" stroke-width="2"/>
</svg>
