<svg width="350" height="194" viewBox="0 0 350 194" fill="none" xmlns="http://www.w3.org/2000/svg">
<path d="M56.875 26.7167V20.5417C56.875 17.5625 54.4375 15.125 51.4583 15.125H13.5417C12.1051 15.125 10.7273 15.6957 9.7115 16.7115C8.69568 17.7273 8.125 19.1051 8.125 20.5417V58.4583C8.125 59.8949 8.69568 61.2727 9.7115 62.2885C10.7273 63.3043 12.1051 63.875 13.5417 63.875H51.4583C54.4375 63.875 56.875 61.4375 56.875 58.4583V52.2833C57.6937 51.8107 58.3744 51.132 58.8495 50.3148C59.3246 49.4976 59.5776 48.5703 59.5833 47.625V31.375C59.5776 30.4297 59.3246 29.5024 58.8495 28.6852C58.3744 27.8679 57.6937 27.1893 56.875 26.7167ZM54.1667 31.375V47.625H35.2083V31.375H54.1667ZM13.5417 58.4583V20.5417H51.4583V25.9583H35.2083C32.2292 25.9583 29.7917 28.3958 29.7917 31.375V47.625C29.7917 50.6042 32.2292 53.0417 35.2083 53.0417H51.4583V58.4583H13.5417Z" fill="#EF443B"/>
<path d="M43.3333 43.5625C45.577 43.5625 47.3958 41.7437 47.3958 39.5C47.3958 37.2563 45.577 35.4375 43.3333 35.4375C41.0897 35.4375 39.2708 37.2563 39.2708 39.5C39.2708 41.7437 41.0897 43.5625 43.3333 43.5625Z" fill="#EF443B"/>
<path d="M98.06 31C97.86 31 97.69 30.93 97.55 30.79C97.41 30.65 97.34 30.48 97.34 30.28V10.72C97.34 10.5 97.41 10.33 97.55 10.21C97.69 10.07 97.86 10 98.06 10H100.85C101.07 10 101.24 10.07 101.36 10.21C101.5 10.33 101.57 10.5 101.57 10.72V27.43H111.08C111.3 27.43 111.48 27.5 111.62 27.64C111.76 27.78 111.83 27.96 111.83 28.18V30.28C111.83 30.5 111.76 30.68 111.62 30.82C111.48 30.94 111.3 31 111.08 31H98.06ZM120.868 31.3C118.648 31.3 116.878 30.66 115.558 29.38C114.258 28.08 113.568 26.26 113.488 23.92L113.458 23.17L113.488 22.42C113.588 20.14 114.288 18.35 115.588 17.05C116.908 15.75 118.668 15.1 120.868 15.1C123.228 15.1 125.048 15.82 126.328 17.26C127.628 18.7 128.278 20.62 128.278 23.02V23.65C128.278 23.85 128.208 24.02 128.068 24.16C127.928 24.3 127.748 24.37 127.528 24.37H117.568V24.61C117.608 25.71 117.908 26.64 118.468 27.4C119.048 28.14 119.838 28.51 120.838 28.51C122.018 28.51 122.968 28.05 123.688 27.13C123.868 26.91 124.008 26.77 124.108 26.71C124.228 26.65 124.398 26.62 124.618 26.62H127.198C127.378 26.62 127.528 26.68 127.648 26.8C127.788 26.9 127.858 27.03 127.858 27.19C127.858 27.67 127.568 28.24 126.988 28.9C126.428 29.54 125.618 30.1 124.558 30.58C123.498 31.06 122.268 31.3 120.868 31.3ZM124.198 21.85V21.76C124.198 20.58 123.898 19.63 123.298 18.91C122.718 18.19 121.908 17.83 120.868 17.83C119.828 17.83 119.018 18.19 118.438 18.91C117.858 19.63 117.568 20.58 117.568 21.76V21.85H124.198ZM137.372 31.3C135.872 31.3 134.612 31.08 133.592 30.64C132.572 30.18 131.812 29.65 131.312 29.05C130.832 28.43 130.592 27.9 130.592 27.46C130.592 27.26 130.662 27.1 130.802 26.98C130.942 26.86 131.102 26.8 131.282 26.8H133.652C133.832 26.8 133.982 26.87 134.102 27.01C134.182 27.07 134.392 27.25 134.732 27.55C135.072 27.87 135.472 28.12 135.932 28.3C136.392 28.48 136.902 28.57 137.462 28.57C138.262 28.57 138.922 28.41 139.442 28.09C139.962 27.77 140.222 27.33 140.222 26.77C140.222 26.35 140.102 26.01 139.862 25.75C139.642 25.49 139.232 25.26 138.632 25.06C138.032 24.84 137.142 24.61 135.962 24.37C134.262 24.01 133.002 23.46 132.182 22.72C131.382 21.98 130.982 21 130.982 19.78C130.982 18.98 131.222 18.23 131.702 17.53C132.182 16.81 132.892 16.23 133.832 15.79C134.792 15.33 135.932 15.1 137.252 15.1C138.592 15.1 139.752 15.32 140.732 15.76C141.712 16.18 142.452 16.69 142.952 17.29C143.472 17.87 143.732 18.39 143.732 18.85C143.732 19.03 143.662 19.19 143.522 19.33C143.402 19.45 143.252 19.51 143.072 19.51H140.852C140.692 19.51 140.522 19.44 140.342 19.3C140.202 19.2 139.982 19.01 139.682 18.73C139.382 18.45 139.032 18.23 138.632 18.07C138.232 17.91 137.762 17.83 137.222 17.83C136.482 17.83 135.902 17.99 135.482 18.31C135.082 18.63 134.882 19.05 134.882 19.57C134.882 19.95 134.982 20.26 135.182 20.5C135.382 20.74 135.772 20.97 136.352 21.19C136.932 21.41 137.802 21.63 138.962 21.85C140.882 22.23 142.252 22.82 143.072 23.62C143.912 24.42 144.332 25.4 144.332 26.56C144.332 27.96 143.722 29.1 142.502 29.98C141.282 30.86 139.572 31.3 137.372 31.3ZM153.339 31.3C151.839 31.3 150.579 31.08 149.559 30.64C148.539 30.18 147.779 29.65 147.279 29.05C146.799 28.43 146.559 27.9 146.559 27.46C146.559 27.26 146.629 27.1 146.769 26.98C146.909 26.86 147.069 26.8 147.249 26.8H149.619C149.799 26.8 149.949 26.87 150.069 27.01C150.149 27.07 150.359 27.25 150.699 27.55C151.039 27.87 151.439 28.12 151.899 28.3C152.359 28.48 152.869 28.57 153.429 28.57C154.229 28.57 154.889 28.41 155.409 28.09C155.929 27.77 156.189 27.33 156.189 26.77C156.189 26.35 156.069 26.01 155.829 25.75C155.609 25.49 155.199 25.26 154.599 25.06C153.999 24.84 153.109 24.61 151.929 24.37C150.229 24.01 148.969 23.46 148.149 22.72C147.349 21.98 146.949 21 146.949 19.78C146.949 18.98 147.189 18.23 147.669 17.53C148.149 16.81 148.859 16.23 149.799 15.79C150.759 15.33 151.899 15.1 153.219 15.1C154.559 15.1 155.719 15.32 156.699 15.76C157.679 16.18 158.419 16.69 158.919 17.29C159.439 17.87 159.699 18.39 159.699 18.85C159.699 19.03 159.629 19.19 159.489 19.33C159.369 19.45 159.219 19.51 159.039 19.51H156.819C156.659 19.51 156.489 19.44 156.309 19.3C156.169 19.2 155.949 19.01 155.649 18.73C155.349 18.45 154.999 18.23 154.599 18.07C154.199 17.91 153.729 17.83 153.189 17.83C152.449 17.83 151.869 17.99 151.449 18.31C151.049 18.63 150.849 19.05 150.849 19.57C150.849 19.95 150.949 20.26 151.149 20.5C151.349 20.74 151.739 20.97 152.319 21.19C152.899 21.41 153.769 21.63 154.929 21.85C156.849 22.23 158.219 22.82 159.039 23.62C159.879 24.42 160.299 25.4 160.299 26.56C160.299 27.96 159.689 29.1 158.469 29.98C157.249 30.86 155.539 31.3 153.339 31.3ZM178.711 31.3C175.951 31.3 173.811 30.59 172.291 29.17C170.791 27.75 169.991 25.75 169.891 23.17C169.871 22.63 169.861 21.75 169.861 20.53C169.861 19.29 169.871 18.39 169.891 17.83C169.991 15.27 170.801 13.28 172.321 11.86C173.861 10.42 175.991 9.7 178.711 9.7C180.491 9.7 182.041 10.01 183.361 10.63C184.681 11.23 185.701 12.06 186.421 13.12C187.141 14.16 187.521 15.34 187.561 16.66V16.72C187.561 16.88 187.491 17.02 187.351 17.14C187.231 17.24 187.091 17.29 186.931 17.29H184.081C183.841 17.29 183.661 17.24 183.541 17.14C183.421 17.04 183.321 16.85 183.241 16.57C182.921 15.31 182.391 14.43 181.651 13.93C180.911 13.41 179.921 13.15 178.681 13.15C175.801 13.15 174.301 14.76 174.181 17.98C174.161 18.52 174.151 19.35 174.151 20.47C174.151 21.59 174.161 22.44 174.181 23.02C174.301 26.24 175.801 27.85 178.681 27.85C179.921 27.85 180.911 27.59 181.651 27.07C182.411 26.55 182.941 25.67 183.241 24.43C183.301 24.15 183.391 23.96 183.511 23.86C183.651 23.76 183.841 23.71 184.081 23.71H186.931C187.111 23.71 187.261 23.77 187.381 23.89C187.521 24.01 187.581 24.16 187.561 24.34C187.521 25.66 187.141 26.85 186.421 27.91C185.701 28.95 184.681 29.78 183.361 30.4C182.041 31 180.491 31.3 178.711 31.3ZM197.659 31.3C195.319 31.3 193.509 30.7 192.229 29.5C190.949 28.28 190.259 26.62 190.159 24.52L190.129 23.2L190.159 21.88C190.259 19.8 190.959 18.15 192.259 16.93C193.559 15.71 195.359 15.1 197.659 15.1C199.959 15.1 201.759 15.71 203.059 16.93C204.359 18.15 205.059 19.8 205.159 21.88C205.179 22.12 205.189 22.56 205.189 23.2C205.189 23.84 205.179 24.28 205.159 24.52C205.059 26.62 204.369 28.28 203.089 29.5C201.809 30.7 199.999 31.3 197.659 31.3ZM197.659 28.33C198.719 28.33 199.539 28 200.119 27.34C200.699 26.66 201.019 25.67 201.079 24.37C201.099 24.17 201.109 23.78 201.109 23.2C201.109 22.62 201.099 22.23 201.079 22.03C201.019 20.73 200.699 19.75 200.119 19.09C199.539 18.41 198.719 18.07 197.659 18.07C196.599 18.07 195.779 18.41 195.199 19.09C194.619 19.75 194.299 20.73 194.239 22.03L194.209 23.2L194.239 24.37C194.299 25.67 194.619 26.66 195.199 27.34C195.779 28 196.599 28.33 197.659 28.33ZM209.233 31C209.033 31 208.863 30.93 208.723 30.79C208.583 30.65 208.513 30.48 208.513 30.28V16.12C208.513 15.92 208.583 15.75 208.723 15.61C208.863 15.47 209.033 15.4 209.233 15.4H211.573C211.773 15.4 211.943 15.47 212.083 15.61C212.223 15.75 212.293 15.92 212.293 16.12V17.14C213.333 15.78 214.783 15.1 216.643 15.1C218.863 15.1 220.413 15.99 221.293 17.77C221.773 16.97 222.453 16.33 223.333 15.85C224.213 15.35 225.163 15.1 226.183 15.1C227.823 15.1 229.163 15.66 230.203 16.78C231.243 17.9 231.763 19.53 231.763 21.67V30.28C231.763 30.48 231.693 30.65 231.553 30.79C231.433 30.93 231.263 31 231.043 31H228.583C228.383 31 228.213 30.93 228.073 30.79C227.933 30.65 227.863 30.48 227.863 30.28V21.91C227.863 20.65 227.593 19.74 227.053 19.18C226.533 18.6 225.833 18.31 224.953 18.31C224.173 18.31 223.503 18.6 222.943 19.18C222.403 19.76 222.133 20.67 222.133 21.91V30.28C222.133 30.48 222.063 30.65 221.923 30.79C221.783 30.93 221.613 31 221.413 31H218.953C218.753 31 218.583 30.93 218.443 30.79C218.303 30.65 218.233 30.48 218.233 30.28V21.91C218.233 20.65 217.953 19.74 217.393 19.18C216.853 18.6 216.163 18.31 215.323 18.31C214.523 18.31 213.843 18.6 213.283 19.18C212.743 19.76 212.473 20.67 212.473 21.91V30.28C212.473 30.48 212.403 30.65 212.263 30.79C212.123 30.93 211.953 31 211.753 31H209.233ZM236.304 31C236.104 31 235.934 30.93 235.794 30.79C235.654 30.65 235.584 30.48 235.584 30.28V16.12C235.584 15.92 235.654 15.75 235.794 15.61C235.934 15.47 236.104 15.4 236.304 15.4H238.644C238.844 15.4 239.014 15.47 239.154 15.61C239.294 15.75 239.364 15.92 239.364 16.12V17.14C240.404 15.78 241.854 15.1 243.714 15.1C245.934 15.1 247.484 15.99 248.364 17.77C248.844 16.97 249.524 16.33 250.404 15.85C251.284 15.35 252.234 15.1 253.254 15.1C254.894 15.1 256.234 15.66 257.274 16.78C258.314 17.9 258.834 19.53 258.834 21.67V30.28C258.834 30.48 258.764 30.65 258.624 30.79C258.504 30.93 258.334 31 258.114 31H255.654C255.454 31 255.284 30.93 255.144 30.79C255.004 30.65 254.934 30.48 254.934 30.28V21.91C254.934 20.65 254.664 19.74 254.124 19.18C253.604 18.6 252.904 18.31 252.024 18.31C251.244 18.31 250.574 18.6 250.014 19.18C249.474 19.76 249.204 20.67 249.204 21.91V30.28C249.204 30.48 249.134 30.65 248.994 30.79C248.854 30.93 248.684 31 248.484 31H246.024C245.824 31 245.654 30.93 245.514 30.79C245.374 30.65 245.304 30.48 245.304 30.28V21.91C245.304 20.65 245.024 19.74 244.464 19.18C243.924 18.6 243.234 18.31 242.394 18.31C241.594 18.31 240.914 18.6 240.354 19.18C239.814 19.76 239.544 20.67 239.544 21.91V30.28C239.544 30.48 239.474 30.65 239.334 30.79C239.194 30.93 239.024 31 238.824 31H236.304ZM263.254 12.82C263.054 12.82 262.884 12.75 262.744 12.61C262.604 12.47 262.534 12.3 262.534 12.1V9.94C262.534 9.74 262.604 9.57 262.744 9.43C262.884 9.29 263.054 9.22 263.254 9.22H265.984C266.184 9.22 266.354 9.29 266.494 9.43C266.654 9.57 266.734 9.74 266.734 9.94V12.1C266.734 12.3 266.664 12.47 266.524 12.61C266.384 12.75 266.204 12.82 265.984 12.82H263.254ZM263.374 31C263.174 31 263.004 30.93 262.864 30.79C262.724 30.65 262.654 30.48 262.654 30.28V16.12C262.654 15.92 262.724 15.75 262.864 15.61C263.004 15.47 263.174 15.4 263.374 15.4H265.864C266.084 15.4 266.254 15.47 266.374 15.61C266.514 15.73 266.584 15.9 266.584 16.12V30.28C266.584 30.48 266.514 30.65 266.374 30.79C266.254 30.93 266.084 31 265.864 31H263.374ZM276.474 31.3C274.974 31.3 273.714 31.08 272.694 30.64C271.674 30.18 270.914 29.65 270.414 29.05C269.934 28.43 269.694 27.9 269.694 27.46C269.694 27.26 269.764 27.1 269.904 26.98C270.044 26.86 270.204 26.8 270.384 26.8H272.754C272.934 26.8 273.084 26.87 273.204 27.01C273.284 27.07 273.494 27.25 273.834 27.55C274.174 27.87 274.574 28.12 275.034 28.3C275.494 28.48 276.004 28.57 276.564 28.57C277.364 28.57 278.024 28.41 278.544 28.09C279.064 27.77 279.324 27.33 279.324 26.77C279.324 26.35 279.204 26.01 278.964 25.75C278.744 25.49 278.334 25.26 277.734 25.06C277.134 24.84 276.244 24.61 275.064 24.37C273.364 24.01 272.104 23.46 271.284 22.72C270.484 21.98 270.084 21 270.084 19.78C270.084 18.98 270.324 18.23 270.804 17.53C271.284 16.81 271.994 16.23 272.934 15.79C273.894 15.33 275.034 15.1 276.354 15.1C277.694 15.1 278.854 15.32 279.834 15.76C280.814 16.18 281.554 16.69 282.054 17.29C282.574 17.87 282.834 18.39 282.834 18.85C282.834 19.03 282.764 19.19 282.624 19.33C282.504 19.45 282.354 19.51 282.174 19.51H279.954C279.794 19.51 279.624 19.44 279.444 19.3C279.304 19.2 279.084 19.01 278.784 18.73C278.484 18.45 278.134 18.23 277.734 18.07C277.334 17.91 276.864 17.83 276.324 17.83C275.584 17.83 275.004 17.99 274.584 18.31C274.184 18.63 273.984 19.05 273.984 19.57C273.984 19.95 274.084 20.26 274.284 20.5C274.484 20.74 274.874 20.97 275.454 21.19C276.034 21.41 276.904 21.63 278.064 21.85C279.984 22.23 281.354 22.82 282.174 23.62C283.014 24.42 283.434 25.4 283.434 26.56C283.434 27.96 282.824 29.1 281.604 29.98C280.384 30.86 278.674 31.3 276.474 31.3ZM292.441 31.3C290.941 31.3 289.681 31.08 288.661 30.64C287.641 30.18 286.881 29.65 286.381 29.05C285.901 28.43 285.661 27.9 285.661 27.46C285.661 27.26 285.731 27.1 285.871 26.98C286.011 26.86 286.171 26.8 286.351 26.8H288.721C288.901 26.8 289.051 26.87 289.171 27.01C289.251 27.07 289.461 27.25 289.801 27.55C290.141 27.87 290.541 28.12 291.001 28.3C291.461 28.48 291.971 28.57 292.531 28.57C293.331 28.57 293.991 28.41 294.511 28.09C295.031 27.77 295.291 27.33 295.291 26.77C295.291 26.35 295.171 26.01 294.931 25.75C294.711 25.49 294.301 25.26 293.701 25.06C293.101 24.84 292.211 24.61 291.031 24.37C289.331 24.01 288.071 23.46 287.251 22.72C286.451 21.98 286.051 21 286.051 19.78C286.051 18.98 286.291 18.23 286.771 17.53C287.251 16.81 287.961 16.23 288.901 15.79C289.861 15.33 291.001 15.1 292.321 15.1C293.661 15.1 294.821 15.32 295.801 15.76C296.781 16.18 297.521 16.69 298.021 17.29C298.541 17.87 298.801 18.39 298.801 18.85C298.801 19.03 298.731 19.19 298.591 19.33C298.471 19.45 298.321 19.51 298.141 19.51H295.921C295.761 19.51 295.591 19.44 295.411 19.3C295.271 19.2 295.051 19.01 294.751 18.73C294.451 18.45 294.101 18.23 293.701 18.07C293.301 17.91 292.831 17.83 292.291 17.83C291.551 17.83 290.971 17.99 290.551 18.31C290.151 18.63 289.951 19.05 289.951 19.57C289.951 19.95 290.051 20.26 290.251 20.5C290.451 20.74 290.841 20.97 291.421 21.19C292.001 21.41 292.871 21.63 294.031 21.85C295.951 22.23 297.321 22.82 298.141 23.62C298.981 24.42 299.401 25.4 299.401 26.56C299.401 27.96 298.791 29.1 297.571 29.98C296.351 30.86 294.641 31.3 292.441 31.3ZM303.098 12.82C302.898 12.82 302.728 12.75 302.588 12.61C302.448 12.47 302.378 12.3 302.378 12.1V9.94C302.378 9.74 302.448 9.57 302.588 9.43C302.728 9.29 302.898 9.22 303.098 9.22H305.828C306.028 9.22 306.198 9.29 306.338 9.43C306.498 9.57 306.578 9.74 306.578 9.94V12.1C306.578 12.3 306.508 12.47 306.368 12.61C306.228 12.75 306.048 12.82 305.828 12.82H303.098ZM303.218 31C303.018 31 302.848 30.93 302.708 30.79C302.568 30.65 302.498 30.48 302.498 30.28V16.12C302.498 15.92 302.568 15.75 302.708 15.61C302.848 15.47 303.018 15.4 303.218 15.4H305.708C305.928 15.4 306.098 15.47 306.218 15.61C306.358 15.73 306.428 15.9 306.428 16.12V30.28C306.428 30.48 306.358 30.65 306.218 30.79C306.098 30.93 305.928 31 305.708 31H303.218ZM317.308 31.3C314.968 31.3 313.158 30.7 311.878 29.5C310.598 28.28 309.908 26.62 309.808 24.52L309.778 23.2L309.808 21.88C309.908 19.8 310.608 18.15 311.908 16.93C313.208 15.71 315.008 15.1 317.308 15.1C319.608 15.1 321.408 15.71 322.708 16.93C324.008 18.15 324.708 19.8 324.808 21.88C324.828 22.12 324.838 22.56 324.838 23.2C324.838 23.84 324.828 24.28 324.808 24.52C324.708 26.62 324.018 28.28 322.738 29.5C321.458 30.7 319.648 31.3 317.308 31.3ZM317.308 28.33C318.368 28.33 319.188 28 319.768 27.34C320.348 26.66 320.668 25.67 320.728 24.37C320.748 24.17 320.758 23.78 320.758 23.2C320.758 22.62 320.748 22.23 320.728 22.03C320.668 20.73 320.348 19.75 319.768 19.09C319.188 18.41 318.368 18.07 317.308 18.07C316.248 18.07 315.428 18.41 314.848 19.09C314.268 19.75 313.948 20.73 313.888 22.03L313.858 23.2L313.888 24.37C313.948 25.67 314.268 26.66 314.848 27.34C315.428 28 316.248 28.33 317.308 28.33ZM328.882 31C328.682 31 328.512 30.93 328.372 30.79C328.232 30.65 328.162 30.48 328.162 30.28V16.12C328.162 15.92 328.232 15.75 328.372 15.61C328.512 15.47 328.682 15.4 328.882 15.4H331.342C331.542 15.4 331.712 15.47 331.852 15.61C331.992 15.75 332.062 15.92 332.062 16.12V17.35C333.242 15.85 334.912 15.1 337.072 15.1C338.912 15.1 340.372 15.71 341.452 16.93C342.532 18.13 343.072 19.77 343.072 21.85V30.28C343.072 30.48 343.002 30.65 342.862 30.79C342.742 30.93 342.572 31 342.352 31H339.712C339.512 31 339.342 30.93 339.202 30.79C339.062 30.65 338.992 30.48 338.992 30.28V22.03C338.992 20.85 338.702 19.94 338.122 19.3C337.562 18.64 336.742 18.31 335.662 18.31C334.602 18.31 333.762 18.64 333.142 19.3C332.542 19.96 332.242 20.87 332.242 22.03V30.28C332.242 30.48 332.172 30.65 332.032 30.79C331.912 30.93 331.742 31 331.522 31H328.882ZM105.41 67.3C102.69 67.3 100.57 66.61 99.05 65.23C97.53 63.85 96.73 61.8 96.65 59.08C96.63 58.5 96.62 57.65 96.62 56.53C96.62 55.39 96.63 54.53 96.65 53.95C96.73 51.29 97.55 49.25 99.11 47.83C100.67 46.41 102.77 45.7 105.41 45.7C108.05 45.7 110.15 46.41 111.71 47.83C113.29 49.25 114.12 51.29 114.2 53.95C114.24 55.11 114.26 55.97 114.26 56.53C114.26 57.07 114.24 57.92 114.2 59.08C114.1 61.8 113.29 63.85 111.77 65.23C110.25 66.61 108.13 67.3 105.41 67.3ZM105.41 63.85C106.75 63.85 107.82 63.45 108.62 62.65C109.42 61.83 109.85 60.59 109.91 58.93C109.95 57.73 109.97 56.92 109.97 56.5C109.97 56.04 109.95 55.23 109.91 54.07C109.85 52.41 109.42 51.18 108.62 50.38C107.82 49.56 106.75 49.15 105.41 49.15C104.09 49.15 103.03 49.56 102.23 50.38C101.43 51.18 101 52.41 100.94 54.07C100.92 54.65 100.91 55.46 100.91 56.5C100.91 57.52 100.92 58.33 100.94 58.93C101 60.59 101.42 61.83 102.2 62.65C103 63.45 104.07 63.85 105.41 63.85ZM118.559 67C118.359 67 118.189 66.93 118.049 66.79C117.909 66.65 117.839 66.48 117.839 66.28V52.12C117.839 51.92 117.909 51.75 118.049 51.61C118.189 51.47 118.359 51.4 118.559 51.4H121.019C121.219 51.4 121.389 51.47 121.529 51.61C121.669 51.75 121.739 51.92 121.739 52.12V53.35C122.919 51.85 124.589 51.1 126.749 51.1C128.589 51.1 130.049 51.71 131.129 52.93C132.209 54.13 132.749 55.77 132.749 57.85V66.28C132.749 66.48 132.679 66.65 132.539 66.79C132.419 66.93 132.249 67 132.029 67H129.389C129.189 67 129.019 66.93 128.879 66.79C128.739 66.65 128.669 66.48 128.669 66.28V58.03C128.669 56.85 128.379 55.94 127.799 55.3C127.239 54.64 126.419 54.31 125.339 54.31C124.279 54.31 123.439 54.64 122.819 55.3C122.219 55.96 121.919 56.87 121.919 58.03V66.28C121.919 66.48 121.849 66.65 121.709 66.79C121.589 66.93 121.419 67 121.199 67H118.559ZM148.383 67C148.183 67 148.013 66.93 147.873 66.79C147.733 66.65 147.663 66.48 147.663 66.28V49.69H142.113C141.913 49.69 141.743 49.62 141.603 49.48C141.463 49.34 141.393 49.17 141.393 48.97V46.75C141.393 46.53 141.453 46.35 141.573 46.21C141.713 46.07 141.893 46 142.113 46H157.413C157.633 46 157.813 46.07 157.953 46.21C158.093 46.35 158.163 46.53 158.163 46.75V48.97C158.163 49.17 158.093 49.34 157.953 49.48C157.813 49.62 157.633 49.69 157.413 49.69H151.893V66.28C151.893 66.48 151.823 66.65 151.683 66.79C151.543 66.93 151.363 67 151.143 67H148.383ZM159.546 67C159.346 67 159.176 66.93 159.036 66.79C158.896 66.65 158.826 66.48 158.826 66.28V52.15C158.826 51.95 158.896 51.78 159.036 51.64C159.176 51.48 159.346 51.4 159.546 51.4H161.976C162.196 51.4 162.376 51.47 162.516 51.61C162.656 51.75 162.726 51.93 162.726 52.15V53.38C163.206 52.74 163.806 52.25 164.526 51.91C165.266 51.57 166.106 51.4 167.046 51.4H168.276C168.496 51.4 168.666 51.47 168.786 51.61C168.926 51.73 168.996 51.9 168.996 52.12V54.28C168.996 54.48 168.926 54.65 168.786 54.79C168.666 54.93 168.496 55 168.276 55H165.936C164.996 55 164.256 55.27 163.716 55.81C163.176 56.35 162.906 57.09 162.906 58.03V66.28C162.906 66.48 162.836 66.65 162.696 66.79C162.556 66.93 162.376 67 162.156 67H159.546ZM175.631 67.3C174.611 67.3 173.671 67.1 172.811 66.7C171.971 66.28 171.301 65.72 170.801 65.02C170.321 64.32 170.081 63.55 170.081 62.71C170.081 61.35 170.631 60.25 171.731 59.41C172.831 58.57 174.341 58 176.261 57.7L180.371 57.1V56.47C180.371 55.59 180.151 54.93 179.711 54.49C179.271 54.05 178.561 53.83 177.581 53.83C176.921 53.83 176.381 53.96 175.961 54.22C175.561 54.46 175.241 54.7 175.001 54.94C174.761 55.2 174.601 55.37 174.521 55.45C174.441 55.69 174.291 55.81 174.071 55.81H171.761C171.581 55.81 171.421 55.75 171.281 55.63C171.161 55.51 171.101 55.35 171.101 55.15C171.121 54.65 171.361 54.08 171.821 53.44C172.301 52.8 173.031 52.25 174.011 51.79C174.991 51.33 176.191 51.1 177.611 51.1C179.971 51.1 181.691 51.63 182.771 52.69C183.851 53.75 184.391 55.14 184.391 56.86V66.28C184.391 66.48 184.321 66.65 184.181 66.79C184.061 66.93 183.891 67 183.671 67H181.241C181.041 67 180.871 66.93 180.731 66.79C180.591 66.65 180.521 66.48 180.521 66.28V65.11C180.081 65.75 179.451 66.28 178.631 66.7C177.831 67.1 176.831 67.3 175.631 67.3ZM176.651 64.45C177.751 64.45 178.651 64.09 179.351 63.37C180.051 62.65 180.401 61.6 180.401 60.22V59.59L177.401 60.07C176.241 60.25 175.361 60.54 174.761 60.94C174.181 61.34 173.891 61.83 173.891 62.41C173.891 63.05 174.161 63.55 174.701 63.91C175.241 64.27 175.891 64.45 176.651 64.45ZM194.03 67.3C192.01 67.3 190.46 66.65 189.38 65.35C188.3 64.05 187.72 62.32 187.64 60.16L187.61 59.17L187.64 58.21C187.7 56.11 188.27 54.4 189.35 53.08C190.45 51.76 192.01 51.1 194.03 51.1C195.97 51.1 197.51 51.76 198.65 53.08V46.42C198.65 46.2 198.72 46.03 198.86 45.91C199 45.77 199.17 45.7 199.37 45.7H201.92C202.14 45.7 202.31 45.77 202.43 45.91C202.57 46.03 202.64 46.2 202.64 46.42V66.28C202.64 66.48 202.57 66.65 202.43 66.79C202.31 66.93 202.14 67 201.92 67H199.55C199.35 67 199.18 66.93 199.04 66.79C198.9 66.65 198.83 66.48 198.83 66.28V65.17C197.69 66.59 196.09 67.3 194.03 67.3ZM195.14 64.09C196.3 64.09 197.16 63.72 197.72 62.98C198.28 62.24 198.59 61.33 198.65 60.25C198.67 60.01 198.68 59.62 198.68 59.08C198.68 58.56 198.67 58.18 198.65 57.94C198.61 56.94 198.29 56.09 197.69 55.39C197.11 54.67 196.26 54.31 195.14 54.31C192.98 54.31 191.83 55.64 191.69 58.3L191.66 59.2L191.69 60.1C191.83 62.76 192.98 64.09 195.14 64.09ZM213.358 67.3C211.138 67.3 209.368 66.66 208.048 65.38C206.748 64.08 206.058 62.26 205.978 59.92L205.948 59.17L205.978 58.42C206.078 56.14 206.778 54.35 208.078 53.05C209.398 51.75 211.158 51.1 213.358 51.1C215.718 51.1 217.538 51.82 218.818 53.26C220.118 54.7 220.768 56.62 220.768 59.02V59.65C220.768 59.85 220.698 60.02 220.558 60.16C220.418 60.3 220.238 60.37 220.018 60.37H210.058V60.61C210.098 61.71 210.398 62.64 210.958 63.4C211.538 64.14 212.328 64.51 213.328 64.51C214.508 64.51 215.458 64.05 216.178 63.13C216.358 62.91 216.498 62.77 216.598 62.71C216.718 62.65 216.888 62.62 217.108 62.62H219.688C219.868 62.62 220.018 62.68 220.138 62.8C220.278 62.9 220.348 63.03 220.348 63.19C220.348 63.67 220.058 64.24 219.478 64.9C218.918 65.54 218.108 66.1 217.048 66.58C215.988 67.06 214.758 67.3 213.358 67.3ZM216.688 57.85V57.76C216.688 56.58 216.388 55.63 215.788 54.91C215.208 54.19 214.398 53.83 213.358 53.83C212.318 53.83 211.508 54.19 210.928 54.91C210.348 55.63 210.058 56.58 210.058 57.76V57.85H216.688Z" fill="white"/>
<path opacity="0.6" d="M2.64 121C2.48 121 2.344 120.952 2.232 120.856C2.136 120.744 2.088 120.608 2.088 120.448V104.776C2.088 104.6 2.136 104.464 2.232 104.368C2.344 104.256 2.48 104.2 2.64 104.2H12.552C12.712 104.2 12.84 104.256 12.936 104.368C13.048 104.464 13.104 104.6 13.104 104.776V105.688C13.104 105.848 13.056 105.984 12.96 106.096C12.864 106.192 12.728 106.24 12.552 106.24H4.392V111.496H12.024C12.184 111.496 12.312 111.552 12.408 111.664C12.52 111.76 12.576 111.896 12.576 112.072V112.96C12.576 113.12 12.52 113.256 12.408 113.368C12.312 113.464 12.184 113.512 12.024 113.512H4.392V118.96H12.744C12.92 118.96 13.056 119.008 13.152 119.104C13.248 119.2 13.296 119.336 13.296 119.512V120.448C13.296 120.608 13.24 120.744 13.128 120.856C13.032 120.952 12.904 121 12.744 121H2.64ZM20.8461 121.24C19.3261 121.24 18.1501 120.752 17.3181 119.776C16.4861 118.784 16.0701 117.472 16.0701 115.84V109.072C16.0701 108.912 16.1181 108.784 16.2141 108.688C16.3261 108.576 16.4621 108.52 16.6221 108.52H17.8221C17.9821 108.52 18.1101 108.576 18.2061 108.688C18.3181 108.784 18.3741 108.912 18.3741 109.072V115.72C18.3741 118.104 19.4141 119.296 21.4941 119.296C22.5021 119.296 23.3021 118.984 23.8941 118.36C24.4861 117.72 24.7821 116.84 24.7821 115.72V109.072C24.7821 108.912 24.8301 108.784 24.9261 108.688C25.0381 108.576 25.1741 108.52 25.3341 108.52H26.5341C26.6941 108.52 26.8221 108.576 26.9181 108.688C27.0141 108.784 27.0621 108.912 27.0621 109.072V120.448C27.0621 120.608 27.0141 120.744 26.9181 120.856C26.8221 120.952 26.6941 121 26.5341 121H25.4061C25.2461 121 25.1101 120.952 24.9981 120.856C24.9021 120.744 24.8541 120.608 24.8541 120.448V119.392C24.4061 120 23.8621 120.464 23.2221 120.784C22.5821 121.088 21.7901 121.24 20.8461 121.24ZM40.8668 121C38.3388 121 37.0748 119.592 37.0748 116.776V110.44H35.2028C35.0428 110.44 34.9068 110.392 34.7948 110.296C34.6988 110.184 34.6508 110.048 34.6508 109.888V109.072C34.6508 108.912 34.6988 108.784 34.7948 108.688C34.9068 108.576 35.0428 108.52 35.2028 108.52H37.0748V104.512C37.0748 104.352 37.1228 104.224 37.2188 104.128C37.3307 104.016 37.4668 103.96 37.6268 103.96H38.7548C38.9148 103.96 39.0428 104.016 39.1388 104.128C39.2508 104.224 39.3068 104.352 39.3068 104.512V108.52H42.2828C42.4428 108.52 42.5708 108.576 42.6668 108.688C42.7788 108.784 42.8348 108.912 42.8348 109.072V109.888C42.8348 110.048 42.7788 110.184 42.6668 110.296C42.5708 110.392 42.4428 110.44 42.2828 110.44H39.3068V116.608C39.3068 117.408 39.4428 118.016 39.7148 118.432C39.9868 118.832 40.4348 119.032 41.0588 119.032H42.5228C42.6828 119.032 42.8108 119.088 42.9068 119.2C43.0188 119.296 43.0748 119.424 43.0748 119.584V120.448C43.0748 120.608 43.0188 120.744 42.9068 120.856C42.8108 120.952 42.6828 121 42.5228 121H40.8668ZM50.3618 121.24C48.7138 121.24 47.3938 120.736 46.4018 119.728C45.4258 118.704 44.8898 117.312 44.7938 115.552L44.7698 114.736L44.7938 113.944C44.9058 112.216 45.4498 110.84 46.4258 109.816C47.4178 108.792 48.7218 108.28 50.3378 108.28C52.1138 108.28 53.4898 108.848 54.4658 109.984C55.4418 111.104 55.9297 112.624 55.9297 114.544V114.952C55.9297 115.112 55.8738 115.248 55.7618 115.36C55.6658 115.456 55.5378 115.504 55.3778 115.504H47.0738V115.72C47.1218 116.76 47.4338 117.648 48.0098 118.384C48.6018 119.104 49.3778 119.464 50.3378 119.464C51.0738 119.464 51.6738 119.32 52.1378 119.032C52.6178 118.728 52.9698 118.416 53.1938 118.096C53.3378 117.904 53.4418 117.792 53.5058 117.76C53.5858 117.712 53.7218 117.688 53.9138 117.688H55.0898C55.2338 117.688 55.3538 117.728 55.4498 117.808C55.5458 117.888 55.5938 118 55.5938 118.144C55.5938 118.496 55.3698 118.92 54.9218 119.416C54.4898 119.912 53.8738 120.344 53.0738 120.712C52.2898 121.064 51.3858 121.24 50.3618 121.24ZM53.6498 113.848V113.776C53.6498 112.672 53.3458 111.776 52.7378 111.088C52.1458 110.384 51.3458 110.032 50.3378 110.032C49.3298 110.032 48.5298 110.384 47.9378 111.088C47.3618 111.776 47.0738 112.672 47.0738 113.776V113.848H53.6498ZM59.3754 121C59.2154 121 59.0794 120.952 58.9674 120.856C58.8714 120.744 58.8234 120.608 58.8234 120.448V104.512C58.8234 104.352 58.8714 104.224 58.9674 104.128C59.0794 104.016 59.2154 103.96 59.3754 103.96H60.5034C60.6634 103.96 60.7914 104.016 60.8874 104.128C60.9994 104.224 61.0554 104.352 61.0554 104.512V120.448C61.0554 120.608 60.9994 120.744 60.8874 120.856C60.7914 120.952 60.6634 121 60.5034 121H59.3754ZM65.2114 121C65.0514 121 64.9154 120.952 64.8034 120.856C64.7074 120.744 64.6594 120.608 64.6594 120.448V104.512C64.6594 104.352 64.7074 104.224 64.8034 104.128C64.9154 104.016 65.0514 103.96 65.2114 103.96H66.3394C66.4994 103.96 66.6274 104.016 66.7234 104.128C66.8354 104.224 66.8914 104.352 66.8914 104.512V120.448C66.8914 120.608 66.8354 120.744 66.7234 120.856C66.6274 120.952 66.4994 121 66.3394 121H65.2114ZM75.1273 121.24C73.6073 121.24 72.4313 120.752 71.5993 119.776C70.7673 118.784 70.3513 117.472 70.3513 115.84V109.072C70.3513 108.912 70.3993 108.784 70.4953 108.688C70.6073 108.576 70.7433 108.52 70.9033 108.52H72.1033C72.2633 108.52 72.3913 108.576 72.4873 108.688C72.5993 108.784 72.6553 108.912 72.6553 109.072V115.72C72.6553 118.104 73.6953 119.296 75.7753 119.296C76.7833 119.296 77.5833 118.984 78.1753 118.36C78.7673 117.72 79.0633 116.84 79.0633 115.72V109.072C79.0633 108.912 79.1113 108.784 79.2073 108.688C79.3193 108.576 79.4553 108.52 79.6153 108.52H80.8153C80.9753 108.52 81.1033 108.576 81.1993 108.688C81.2953 108.784 81.3433 108.912 81.3433 109.072V120.448C81.3433 120.608 81.2953 120.744 81.1993 120.856C81.1033 120.952 80.9753 121 80.8153 121H79.6873C79.5273 121 79.3913 120.952 79.2793 120.856C79.1833 120.744 79.1353 120.608 79.1353 120.448V119.392C78.6873 120 78.1433 120.464 77.5033 120.784C76.8633 121.088 76.0713 121.24 75.1273 121.24ZM89.2288 121.24C88.1088 121.24 87.1648 121.064 86.3968 120.712C85.6448 120.344 85.0768 119.928 84.6928 119.464C84.3248 119 84.1408 118.616 84.1408 118.312C84.1408 118.152 84.1968 118.032 84.3088 117.952C84.4368 117.856 84.5648 117.808 84.6928 117.808H85.7728C85.9328 117.808 86.0768 117.888 86.2048 118.048C86.5888 118.496 87.0048 118.848 87.4528 119.104C87.9008 119.36 88.5008 119.488 89.2528 119.488C90.0848 119.488 90.7568 119.328 91.2688 119.008C91.7968 118.672 92.0608 118.216 92.0608 117.64C92.0608 117.256 91.9488 116.944 91.7248 116.704C91.5168 116.448 91.1488 116.232 90.6208 116.056C90.1088 115.864 89.3408 115.656 88.3168 115.432C86.9248 115.128 85.9328 114.688 85.3408 114.112C84.7648 113.536 84.4768 112.792 84.4768 111.88C84.4768 111.272 84.6528 110.696 85.0048 110.152C85.3728 109.592 85.9008 109.144 86.5888 108.808C87.2928 108.456 88.1328 108.28 89.1088 108.28C90.1328 108.28 91.0048 108.448 91.7248 108.784C92.4448 109.12 92.9808 109.52 93.3328 109.984C93.7008 110.432 93.8848 110.808 93.8848 111.112C93.8848 111.256 93.8288 111.376 93.7168 111.472C93.6208 111.568 93.5008 111.616 93.3568 111.616H92.3488C92.1568 111.616 91.9968 111.536 91.8688 111.376C91.6128 111.072 91.3888 110.84 91.1968 110.68C91.0208 110.504 90.7568 110.352 90.4048 110.224C90.0688 110.096 89.6368 110.032 89.1088 110.032C88.3408 110.032 87.7488 110.2 87.3328 110.536C86.9168 110.856 86.7088 111.28 86.7088 111.808C86.7088 112.144 86.7968 112.432 86.9728 112.672C87.1488 112.896 87.4848 113.104 87.9808 113.296C88.4928 113.488 89.2288 113.688 90.1888 113.896C91.7088 114.216 92.7808 114.68 93.4048 115.288C94.0448 115.88 94.3648 116.64 94.3648 117.568C94.3648 118.256 94.1648 118.88 93.7648 119.44C93.3648 120 92.7728 120.44 91.9888 120.76C91.2208 121.08 90.3008 121.24 89.2288 121.24ZM112.05 125.56C111.89 125.56 111.754 125.504 111.642 125.392C111.546 125.296 111.498 125.168 111.498 125.008V119.44C110.57 120.64 109.274 121.24 107.61 121.24C105.946 121.24 104.69 120.712 103.842 119.656C102.994 118.584 102.546 117.224 102.498 115.576L102.474 114.76L102.498 113.944C102.546 112.28 102.986 110.92 103.818 109.864C104.666 108.808 105.93 108.28 107.61 108.28C109.338 108.28 110.65 108.896 111.546 110.128V109.072C111.546 108.912 111.594 108.784 111.69 108.688C111.802 108.576 111.938 108.52 112.098 108.52H113.202C113.362 108.52 113.49 108.576 113.586 108.688C113.698 108.784 113.754 108.912 113.754 109.072V125.008C113.754 125.168 113.698 125.296 113.586 125.392C113.49 125.504 113.362 125.56 113.202 125.56H112.05ZM108.114 119.296C109.186 119.296 110.01 118.944 110.586 118.24C111.162 117.536 111.466 116.712 111.498 115.768C111.514 115.592 111.522 115.28 111.522 114.832C111.522 114.384 111.514 114.08 111.498 113.92C111.45 112.912 111.146 112.048 110.586 111.328C110.042 110.592 109.218 110.224 108.114 110.224C106.978 110.224 106.146 110.576 105.618 111.28C105.106 111.984 104.826 112.912 104.778 114.064L104.754 114.76C104.754 117.784 105.874 119.296 108.114 119.296ZM121.979 121.24C120.459 121.24 119.283 120.752 118.451 119.776C117.619 118.784 117.203 117.472 117.203 115.84V109.072C117.203 108.912 117.251 108.784 117.347 108.688C117.459 108.576 117.595 108.52 117.755 108.52H118.955C119.115 108.52 119.243 108.576 119.339 108.688C119.451 108.784 119.507 108.912 119.507 109.072V115.72C119.507 118.104 120.547 119.296 122.627 119.296C123.635 119.296 124.435 118.984 125.027 118.36C125.619 117.72 125.915 116.84 125.915 115.72V109.072C125.915 108.912 125.963 108.784 126.059 108.688C126.171 108.576 126.307 108.52 126.467 108.52H127.667C127.827 108.52 127.955 108.576 128.051 108.688C128.147 108.784 128.195 108.912 128.195 109.072V120.448C128.195 120.608 128.147 120.744 128.051 120.856C127.955 120.952 127.827 121 127.667 121H126.539C126.379 121 126.243 120.952 126.131 120.856C126.035 120.744 125.987 120.608 125.987 120.448V119.392C125.539 120 124.995 120.464 124.355 120.784C123.715 121.088 122.923 121.24 121.979 121.24ZM135.24 121.24C134.456 121.24 133.728 121.08 133.056 120.76C132.384 120.44 131.848 120.008 131.448 119.464C131.064 118.904 130.872 118.288 130.872 117.616C130.872 116.56 131.304 115.696 132.168 115.024C133.048 114.336 134.232 113.888 135.72 113.68L139.296 113.176V112.48C139.296 110.848 138.36 110.032 136.488 110.032C135.784 110.032 135.208 110.184 134.76 110.488C134.312 110.776 133.976 111.12 133.752 111.52C133.704 111.664 133.64 111.768 133.56 111.832C133.496 111.896 133.4 111.928 133.272 111.928H132.24C132.096 111.928 131.968 111.88 131.856 111.784C131.76 111.672 131.712 111.544 131.712 111.4C131.728 111.016 131.904 110.584 132.24 110.104C132.592 109.608 133.128 109.184 133.848 108.832C134.568 108.464 135.456 108.28 136.512 108.28C138.304 108.28 139.592 108.704 140.376 109.552C141.16 110.384 141.552 111.424 141.552 112.672V120.448C141.552 120.608 141.496 120.744 141.384 120.856C141.288 120.952 141.16 121 141 121H139.896C139.736 121 139.6 120.952 139.488 120.856C139.392 120.744 139.344 120.608 139.344 120.448V119.416C138.992 119.928 138.48 120.36 137.808 120.712C137.136 121.064 136.28 121.24 135.24 121.24ZM135.744 119.44C136.784 119.44 137.632 119.104 138.288 118.432C138.96 117.744 139.296 116.76 139.296 115.48V114.808L136.512 115.216C135.376 115.376 134.52 115.648 133.944 116.032C133.368 116.4 133.08 116.872 133.08 117.448C133.08 118.088 133.344 118.584 133.872 118.936C134.4 119.272 135.024 119.44 135.744 119.44ZM145.555 121C145.395 121 145.259 120.952 145.147 120.856C145.051 120.744 145.003 120.608 145.003 120.448V109.072C145.003 108.912 145.051 108.784 145.147 108.688C145.259 108.576 145.395 108.52 145.555 108.52H146.635C146.795 108.52 146.923 108.576 147.019 108.688C147.131 108.784 147.187 108.912 147.187 109.072V109.912C148.019 108.824 149.179 108.28 150.667 108.28C152.443 108.28 153.699 109.016 154.435 110.488C154.819 109.816 155.363 109.28 156.067 108.88C156.771 108.48 157.563 108.28 158.443 108.28C159.755 108.28 160.827 108.728 161.659 109.624C162.491 110.52 162.907 111.816 162.907 113.512V120.448C162.907 120.608 162.851 120.744 162.739 120.856C162.643 120.952 162.515 121 162.355 121H161.227C161.067 121 160.931 120.952 160.819 120.856C160.723 120.744 160.675 120.608 160.675 120.448V113.728C160.675 112.48 160.411 111.584 159.883 111.04C159.371 110.496 158.691 110.224 157.843 110.224C157.091 110.224 156.443 110.504 155.899 111.064C155.355 111.608 155.083 112.496 155.083 113.728V120.448C155.083 120.608 155.027 120.744 154.915 120.856C154.819 120.952 154.691 121 154.531 121H153.403C153.243 121 153.107 120.952 152.995 120.856C152.899 120.744 152.851 120.608 152.851 120.448V113.728C152.851 112.48 152.579 111.584 152.035 111.04C151.507 110.496 150.835 110.224 150.019 110.224C149.267 110.224 148.619 110.504 148.075 111.064C147.531 111.608 147.259 112.488 147.259 113.704V120.448C147.259 120.608 147.203 120.744 147.091 120.856C146.995 120.952 146.867 121 146.707 121H145.555ZM172.574 106.192C172.414 106.192 172.278 106.144 172.166 106.048C172.07 105.936 172.021 105.8 172.021 105.64V104.344C172.021 104.184 172.07 104.048 172.166 103.936C172.278 103.824 172.414 103.768 172.574 103.768H174.086C174.246 103.768 174.382 103.824 174.494 103.936C174.606 104.048 174.662 104.184 174.662 104.344V105.64C174.662 105.8 174.606 105.936 174.494 106.048C174.382 106.144 174.246 106.192 174.086 106.192H172.574ZM172.766 121C172.606 121 172.47 120.952 172.358 120.856C172.262 120.744 172.214 120.608 172.214 120.448V109.072C172.214 108.912 172.262 108.784 172.358 108.688C172.47 108.576 172.606 108.52 172.766 108.52H173.918C174.078 108.52 174.206 108.576 174.302 108.688C174.414 108.784 174.47 108.912 174.47 109.072V120.448C174.47 120.608 174.414 120.744 174.302 120.856C174.206 120.952 174.078 121 173.918 121H172.766ZM182.586 121.24C180.922 121.24 179.666 120.696 178.818 119.608C177.97 118.52 177.522 117.144 177.474 115.48L177.45 114.76L177.474 114.04C177.522 112.392 177.97 111.024 178.818 109.936C179.666 108.832 180.922 108.28 182.586 108.28C184.234 108.28 185.53 108.864 186.474 110.032V104.512C186.474 104.352 186.522 104.224 186.618 104.128C186.73 104.016 186.866 103.96 187.026 103.96H188.178C188.338 103.96 188.466 104.016 188.562 104.128C188.674 104.224 188.73 104.352 188.73 104.512V120.448C188.73 120.608 188.674 120.744 188.562 120.856C188.466 120.952 188.338 121 188.178 121H187.098C186.938 121 186.802 120.952 186.69 120.856C186.594 120.744 186.546 120.608 186.546 120.448V119.44C185.618 120.64 184.298 121.24 182.586 121.24ZM183.09 119.296C184.194 119.296 185.018 118.936 185.562 118.216C186.122 117.48 186.426 116.608 186.474 115.6C186.49 115.424 186.498 115.12 186.498 114.688C186.498 114.24 186.49 113.928 186.474 113.752C186.442 112.808 186.138 111.984 185.562 111.28C184.986 110.576 184.162 110.224 183.09 110.224C181.954 110.224 181.122 110.576 180.594 111.28C180.082 111.984 179.802 112.912 179.754 114.064L179.73 114.76C179.73 117.784 180.85 119.296 183.09 119.296ZM202.502 121.24C201.382 121.24 200.438 121.064 199.67 120.712C198.918 120.344 198.35 119.928 197.966 119.464C197.598 119 197.414 118.616 197.414 118.312C197.414 118.152 197.47 118.032 197.582 117.952C197.71 117.856 197.838 117.808 197.966 117.808H199.046C199.206 117.808 199.35 117.888 199.478 118.048C199.862 118.496 200.278 118.848 200.726 119.104C201.174 119.36 201.774 119.488 202.526 119.488C203.358 119.488 204.03 119.328 204.542 119.008C205.07 118.672 205.334 118.216 205.334 117.64C205.334 117.256 205.222 116.944 204.998 116.704C204.79 116.448 204.422 116.232 203.894 116.056C203.382 115.864 202.614 115.656 201.59 115.432C200.198 115.128 199.206 114.688 198.614 114.112C198.038 113.536 197.75 112.792 197.75 111.88C197.75 111.272 197.926 110.696 198.278 110.152C198.646 109.592 199.174 109.144 199.862 108.808C200.566 108.456 201.406 108.28 202.382 108.28C203.406 108.28 204.278 108.448 204.998 108.784C205.718 109.12 206.254 109.52 206.606 109.984C206.974 110.432 207.158 110.808 207.158 111.112C207.158 111.256 207.102 111.376 206.99 111.472C206.894 111.568 206.774 111.616 206.63 111.616H205.622C205.43 111.616 205.27 111.536 205.142 111.376C204.886 111.072 204.662 110.84 204.47 110.68C204.294 110.504 204.03 110.352 203.678 110.224C203.342 110.096 202.91 110.032 202.382 110.032C201.614 110.032 201.022 110.2 200.606 110.536C200.19 110.856 199.982 111.28 199.982 111.808C199.982 112.144 200.07 112.432 200.246 112.672C200.422 112.896 200.758 113.104 201.254 113.296C201.766 113.488 202.502 113.688 203.462 113.896C204.982 114.216 206.054 114.68 206.678 115.288C207.318 115.88 207.638 116.64 207.638 117.568C207.638 118.256 207.438 118.88 207.038 119.44C206.638 120 206.046 120.44 205.262 120.76C204.494 121.08 203.574 121.24 202.502 121.24ZM215.409 121.24C213.761 121.24 212.441 120.736 211.449 119.728C210.473 118.704 209.937 117.312 209.841 115.552L209.817 114.736L209.841 113.944C209.953 112.216 210.497 110.84 211.473 109.816C212.465 108.792 213.769 108.28 215.385 108.28C217.161 108.28 218.537 108.848 219.513 109.984C220.489 111.104 220.977 112.624 220.977 114.544V114.952C220.977 115.112 220.921 115.248 220.809 115.36C220.713 115.456 220.585 115.504 220.425 115.504H212.121V115.72C212.169 116.76 212.481 117.648 213.057 118.384C213.649 119.104 214.425 119.464 215.385 119.464C216.121 119.464 216.721 119.32 217.185 119.032C217.665 118.728 218.017 118.416 218.241 118.096C218.385 117.904 218.489 117.792 218.553 117.76C218.633 117.712 218.769 117.688 218.961 117.688H220.137C220.281 117.688 220.401 117.728 220.497 117.808C220.593 117.888 220.641 118 220.641 118.144C220.641 118.496 220.417 118.92 219.969 119.416C219.537 119.912 218.921 120.344 218.121 120.712C217.337 121.064 216.433 121.24 215.409 121.24ZM218.697 113.848V113.776C218.697 112.672 218.393 111.776 217.785 111.088C217.193 110.384 216.393 110.032 215.385 110.032C214.377 110.032 213.577 110.384 212.985 111.088C212.409 111.776 212.121 112.672 212.121 113.776V113.848H218.697ZM228.406 121.24C226.742 121.24 225.486 120.696 224.638 119.608C223.79 118.52 223.342 117.144 223.294 115.48L223.27 114.76L223.294 114.04C223.342 112.392 223.79 111.024 224.638 109.936C225.486 108.832 226.742 108.28 228.406 108.28C230.054 108.28 231.35 108.864 232.294 110.032V104.512C232.294 104.352 232.342 104.224 232.438 104.128C232.55 104.016 232.686 103.96 232.846 103.96H233.998C234.158 103.96 234.286 104.016 234.382 104.128C234.494 104.224 234.55 104.352 234.55 104.512V120.448C234.55 120.608 234.494 120.744 234.382 120.856C234.286 120.952 234.158 121 233.998 121H232.918C232.758 121 232.622 120.952 232.51 120.856C232.414 120.744 232.366 120.608 232.366 120.448V119.44C231.438 120.64 230.118 121.24 228.406 121.24ZM228.91 119.296C230.014 119.296 230.838 118.936 231.382 118.216C231.942 117.48 232.246 116.608 232.294 115.6C232.31 115.424 232.318 115.12 232.318 114.688C232.318 114.24 232.31 113.928 232.294 113.752C232.262 112.808 231.958 111.984 231.382 111.28C230.806 110.576 229.982 110.224 228.91 110.224C227.774 110.224 226.942 110.576 226.414 111.28C225.902 111.984 225.622 112.912 225.574 114.064L225.55 114.76C225.55 117.784 226.67 119.296 228.91 119.296ZM248.659 121.24C247.139 121.24 245.963 120.752 245.131 119.776C244.299 118.784 243.883 117.472 243.883 115.84V109.072C243.883 108.912 243.931 108.784 244.027 108.688C244.139 108.576 244.275 108.52 244.435 108.52H245.635C245.795 108.52 245.923 108.576 246.019 108.688C246.131 108.784 246.187 108.912 246.187 109.072V115.72C246.187 118.104 247.227 119.296 249.307 119.296C250.315 119.296 251.115 118.984 251.707 118.36C252.299 117.72 252.595 116.84 252.595 115.72V109.072C252.595 108.912 252.643 108.784 252.739 108.688C252.851 108.576 252.987 108.52 253.147 108.52H254.347C254.507 108.52 254.635 108.576 254.731 108.688C254.827 108.784 254.875 108.912 254.875 109.072V120.448C254.875 120.608 254.827 120.744 254.731 120.856C254.635 120.952 254.507 121 254.347 121H253.219C253.059 121 252.923 120.952 252.811 120.856C252.715 120.744 252.667 120.608 252.667 120.448V119.392C252.219 120 251.675 120.464 251.035 120.784C250.395 121.088 249.603 121.24 248.659 121.24ZM259.016 121C258.856 121 258.72 120.952 258.608 120.856C258.512 120.744 258.464 120.608 258.464 120.448V104.512C258.464 104.352 258.512 104.224 258.608 104.128C258.72 104.016 258.856 103.96 259.016 103.96H260.144C260.304 103.96 260.432 104.016 260.528 104.128C260.64 104.224 260.696 104.352 260.696 104.512V120.448C260.696 120.608 260.64 120.744 260.528 120.856C260.432 120.952 260.304 121 260.144 121H259.016ZM269.148 121C266.62 121 265.356 119.592 265.356 116.776V110.44H263.484C263.324 110.44 263.188 110.392 263.076 110.296C262.98 110.184 262.932 110.048 262.932 109.888V109.072C262.932 108.912 262.98 108.784 263.076 108.688C263.188 108.576 263.324 108.52 263.484 108.52H265.356V104.512C265.356 104.352 265.404 104.224 265.5 104.128C265.612 104.016 265.748 103.96 265.908 103.96H267.036C267.196 103.96 267.324 104.016 267.42 104.128C267.532 104.224 267.588 104.352 267.588 104.512V108.52H270.564C270.724 108.52 270.852 108.576 270.948 108.688C271.06 108.784 271.116 108.912 271.116 109.072V109.888C271.116 110.048 271.06 110.184 270.948 110.296C270.852 110.392 270.724 110.44 270.564 110.44H267.588V116.608C267.588 117.408 267.724 118.016 267.996 118.432C268.268 118.832 268.716 119.032 269.34 119.032H270.804C270.964 119.032 271.092 119.088 271.188 119.2C271.3 119.296 271.356 119.424 271.356 119.584V120.448C271.356 120.608 271.3 120.744 271.188 120.856C271.092 120.952 270.964 121 270.804 121H269.148ZM274.203 121C274.043 121 273.907 120.952 273.795 120.856C273.699 120.744 273.651 120.608 273.651 120.448V109.096C273.651 108.936 273.699 108.8 273.795 108.688C273.907 108.576 274.043 108.52 274.203 108.52H275.307C275.467 108.52 275.603 108.576 275.715 108.688C275.827 108.8 275.883 108.936 275.883 109.096V110.152C276.539 109.064 277.659 108.52 279.243 108.52H280.179C280.339 108.52 280.467 108.576 280.563 108.688C280.675 108.784 280.731 108.912 280.731 109.072V110.056C280.731 110.216 280.675 110.344 280.563 110.44C280.467 110.536 280.339 110.584 280.179 110.584H278.739C277.875 110.584 277.195 110.84 276.699 111.352C276.203 111.848 275.955 112.528 275.955 113.392V120.448C275.955 120.608 275.899 120.744 275.787 120.856C275.675 120.952 275.539 121 275.379 121H274.203ZM283.128 106.192C282.968 106.192 282.832 106.144 282.72 106.048C282.624 105.936 282.576 105.8 282.576 105.64V104.344C282.576 104.184 282.624 104.048 282.72 103.936C282.832 103.824 282.968 103.768 283.128 103.768H284.64C284.8 103.768 284.936 103.824 285.048 103.936C285.16 104.048 285.216 104.184 285.216 104.344V105.64C285.216 105.8 285.16 105.936 285.048 106.048C284.936 106.144 284.8 106.192 284.64 106.192H283.128ZM283.32 121C283.16 121 283.024 120.952 282.912 120.856C282.816 120.744 282.768 120.608 282.768 120.448V109.072C282.768 108.912 282.816 108.784 282.912 108.688C283.024 108.576 283.16 108.52 283.32 108.52H284.472C284.632 108.52 284.76 108.576 284.856 108.688C284.968 108.784 285.024 108.912 285.024 109.072V120.448C285.024 120.608 284.968 120.744 284.856 120.856C284.76 120.952 284.632 121 284.472 121H283.32ZM293.621 121.24C291.909 121.24 290.565 120.76 289.589 119.8C288.629 118.824 288.117 117.464 288.053 115.72L288.029 114.76L288.053 113.8C288.117 112.056 288.629 110.704 289.589 109.744C290.565 108.768 291.909 108.28 293.621 108.28C294.773 108.28 295.749 108.488 296.549 108.904C297.349 109.32 297.941 109.832 298.325 110.44C298.725 111.048 298.941 111.656 298.973 112.264C298.989 112.424 298.941 112.552 298.829 112.648C298.717 112.744 298.581 112.792 298.421 112.792H297.269C297.109 112.792 296.989 112.76 296.909 112.696C296.829 112.632 296.749 112.504 296.669 112.312C296.397 111.544 296.013 111 295.517 110.68C295.021 110.344 294.397 110.176 293.645 110.176C292.653 110.176 291.861 110.488 291.269 111.112C290.693 111.72 290.381 112.656 290.333 113.92L290.309 114.784L290.333 115.6C290.381 116.88 290.693 117.824 291.269 118.432C291.845 119.04 292.637 119.344 293.645 119.344C294.397 119.344 295.021 119.184 295.517 118.864C296.013 118.528 296.397 117.976 296.669 117.208C296.749 117.016 296.829 116.888 296.909 116.824C296.989 116.744 297.109 116.704 297.269 116.704H298.421C298.581 116.704 298.717 116.76 298.829 116.872C298.941 116.968 298.989 117.096 298.973 117.256C298.941 117.848 298.725 118.456 298.325 119.08C297.941 119.688 297.349 120.2 296.549 120.616C295.765 121.032 294.789 121.24 293.621 121.24ZM306.815 121.24C305.167 121.24 303.847 120.736 302.855 119.728C301.879 118.704 301.343 117.312 301.247 115.552L301.223 114.736L301.247 113.944C301.359 112.216 301.903 110.84 302.879 109.816C303.871 108.792 305.175 108.28 306.791 108.28C308.567 108.28 309.943 108.848 310.919 109.984C311.895 111.104 312.383 112.624 312.383 114.544V114.952C312.383 115.112 312.327 115.248 312.215 115.36C312.119 115.456 311.991 115.504 311.831 115.504H303.527V115.72C303.575 116.76 303.887 117.648 304.463 118.384C305.055 119.104 305.831 119.464 306.791 119.464C307.527 119.464 308.127 119.32 308.591 119.032C309.071 118.728 309.423 118.416 309.647 118.096C309.791 117.904 309.895 117.792 309.959 117.76C310.039 117.712 310.175 117.688 310.367 117.688H311.543C311.687 117.688 311.807 117.728 311.903 117.808C311.999 117.888 312.047 118 312.047 118.144C312.047 118.496 311.823 118.92 311.375 119.416C310.943 119.912 310.327 120.344 309.527 120.712C308.743 121.064 307.839 121.24 306.815 121.24ZM310.103 113.848V113.776C310.103 112.672 309.799 111.776 309.191 111.088C308.599 110.384 307.799 110.032 306.791 110.032C305.783 110.032 304.983 110.384 304.391 111.088C303.815 111.776 303.527 112.672 303.527 113.776V113.848H310.103ZM319.573 121.24C318.453 121.24 317.509 121.064 316.741 120.712C315.989 120.344 315.421 119.928 315.037 119.464C314.669 119 314.485 118.616 314.485 118.312C314.485 118.152 314.541 118.032 314.653 117.952C314.781 117.856 314.909 117.808 315.037 117.808H316.117C316.277 117.808 316.421 117.888 316.549 118.048C316.933 118.496 317.349 118.848 317.797 119.104C318.245 119.36 318.845 119.488 319.597 119.488C320.429 119.488 321.101 119.328 321.613 119.008C322.141 118.672 322.405 118.216 322.405 117.64C322.405 117.256 322.293 116.944 322.069 116.704C321.861 116.448 321.493 116.232 320.965 116.056C320.453 115.864 319.685 115.656 318.661 115.432C317.269 115.128 316.277 114.688 315.685 114.112C315.109 113.536 314.821 112.792 314.821 111.88C314.821 111.272 314.997 110.696 315.349 110.152C315.717 109.592 316.245 109.144 316.933 108.808C317.637 108.456 318.477 108.28 319.453 108.28C320.477 108.28 321.349 108.448 322.069 108.784C322.789 109.12 323.325 109.52 323.677 109.984C324.045 110.432 324.229 110.808 324.229 111.112C324.229 111.256 324.173 111.376 324.061 111.472C323.965 111.568 323.845 111.616 323.701 111.616H322.693C322.501 111.616 322.341 111.536 322.213 111.376C321.957 111.072 321.733 110.84 321.541 110.68C321.365 110.504 321.101 110.352 320.749 110.224C320.413 110.096 319.981 110.032 319.453 110.032C318.685 110.032 318.093 110.2 317.677 110.536C317.261 110.856 317.053 111.28 317.053 111.808C317.053 112.144 317.141 112.432 317.317 112.672C317.493 112.896 317.829 113.104 318.325 113.296C318.837 113.488 319.573 113.688 320.533 113.896C322.053 114.216 323.125 114.68 323.749 115.288C324.389 115.88 324.709 116.64 324.709 117.568C324.709 118.256 324.509 118.88 324.109 119.44C323.709 120 323.117 120.44 322.333 120.76C321.565 121.08 320.645 121.24 319.573 121.24ZM327.871 121C327.711 121 327.575 120.952 327.463 120.856C327.367 120.744 327.319 120.608 327.319 120.448V118.72C327.319 118.56 327.367 118.432 327.463 118.336C327.575 118.224 327.711 118.168 327.871 118.168H329.599C329.759 118.168 329.895 118.224 330.007 118.336C330.119 118.432 330.175 118.56 330.175 118.72V120.448C330.175 120.608 330.119 120.744 330.007 120.856C329.895 120.952 329.759 121 329.599 121H327.871ZM2.64 149C2.48 149 2.344 148.952 2.232 148.856C2.136 148.744 2.088 148.608 2.088 148.448V132.752C2.088 132.592 2.136 132.464 2.232 132.368C2.344 132.256 2.48 132.2 2.64 132.2H3.912C4.072 132.2 4.2 132.256 4.296 132.368C4.408 132.464 4.464 132.592 4.464 132.752V148.448C4.464 148.608 4.408 148.744 4.296 148.856C4.2 148.952 4.072 149 3.912 149H2.64ZM8.8905 149C8.7305 149 8.5945 148.952 8.4825 148.856C8.3865 148.744 8.3385 148.608 8.3385 148.448V137.072C8.3385 136.912 8.3865 136.784 8.4825 136.688C8.5945 136.576 8.7305 136.52 8.8905 136.52H10.0185C10.1785 136.52 10.3065 136.576 10.4025 136.688C10.5145 136.784 10.5705 136.912 10.5705 137.072V138.128C11.0345 137.536 11.5785 137.08 12.2025 136.76C12.8425 136.44 13.6345 136.28 14.5785 136.28C16.1145 136.28 17.3065 136.776 18.1545 137.768C19.0185 138.744 19.4505 140.048 19.4505 141.68V148.448C19.4505 148.608 19.3945 148.744 19.2825 148.856C19.1865 148.952 19.0585 149 18.8985 149H17.6985C17.5385 149 17.4025 148.952 17.2905 148.856C17.1945 148.744 17.1465 148.608 17.1465 148.448V141.8C17.1465 140.664 16.8665 139.784 16.3065 139.16C15.7625 138.536 14.9705 138.224 13.9305 138.224C12.9225 138.224 12.1225 138.544 11.5305 139.184C10.9385 139.808 10.6425 140.68 10.6425 141.8V148.448C10.6425 148.608 10.5865 148.744 10.4745 148.856C10.3785 148.952 10.2505 149 10.0905 149H8.8905ZM27.6011 149C25.0731 149 23.8091 147.592 23.8091 144.776V138.44H21.9371C21.7771 138.44 21.6411 138.392 21.5291 138.296C21.4331 138.184 21.3851 138.048 21.3851 137.888V137.072C21.3851 136.912 21.4331 136.784 21.5291 136.688C21.6411 136.576 21.7771 136.52 21.9371 136.52H23.8091V132.512C23.8091 132.352 23.8571 132.224 23.9531 132.128C24.0651 132.016 24.2011 131.96 24.3611 131.96H25.4891C25.6491 131.96 25.7771 132.016 25.8731 132.128C25.9851 132.224 26.0411 132.352 26.0411 132.512V136.52H29.0171C29.1771 136.52 29.3051 136.576 29.4011 136.688C29.5131 136.784 29.5691 136.912 29.5691 137.072V137.888C29.5691 138.048 29.5131 138.184 29.4011 138.296C29.3051 138.392 29.1771 138.44 29.0171 138.44H26.0411V144.608C26.0411 145.408 26.1771 146.016 26.4491 146.432C26.7211 146.832 27.1691 147.032 27.7931 147.032H29.2571C29.4171 147.032 29.5451 147.088 29.6411 147.2C29.7531 147.296 29.8091 147.424 29.8091 147.584V148.448C29.8091 148.608 29.7531 148.744 29.6411 148.856C29.5451 148.952 29.4171 149 29.2571 149H27.6011ZM37.0961 149.24C35.4481 149.24 34.1281 148.736 33.1361 147.728C32.1601 146.704 31.6241 145.312 31.5281 143.552L31.5041 142.736L31.5281 141.944C31.6401 140.216 32.1841 138.84 33.1601 137.816C34.1521 136.792 35.4561 136.28 37.0721 136.28C38.8481 136.28 40.2241 136.848 41.2001 137.984C42.1761 139.104 42.6641 140.624 42.6641 142.544V142.952C42.6641 143.112 42.6081 143.248 42.4961 143.36C42.4001 143.456 42.2721 143.504 42.1121 143.504H33.8081V143.72C33.8561 144.76 34.1681 145.648 34.7441 146.384C35.3361 147.104 36.1121 147.464 37.0721 147.464C37.8081 147.464 38.4081 147.32 38.8721 147.032C39.3521 146.728 39.7041 146.416 39.9281 146.096C40.0721 145.904 40.1761 145.792 40.2401 145.76C40.3201 145.712 40.4561 145.688 40.6481 145.688H41.8241C41.9681 145.688 42.0881 145.728 42.1841 145.808C42.2801 145.888 42.3281 146 42.3281 146.144C42.3281 146.496 42.1041 146.92 41.6561 147.416C41.2241 147.912 40.6081 148.344 39.8081 148.712C39.0241 149.064 38.1201 149.24 37.0961 149.24ZM40.3841 141.848V141.776C40.3841 140.672 40.0801 139.776 39.4721 139.088C38.8801 138.384 38.0801 138.032 37.0721 138.032C36.0641 138.032 35.2641 138.384 34.6721 139.088C34.0961 139.776 33.8081 140.672 33.8081 141.776V141.848H40.3841ZM50.6458 154.28C49.3338 154.28 48.2778 154.056 47.4778 153.608C46.6778 153.176 46.1098 152.68 45.7738 152.12C45.4378 151.56 45.2538 151.056 45.2218 150.608C45.2058 150.448 45.2538 150.312 45.3658 150.2C45.4938 150.088 45.6298 150.032 45.7738 150.032H46.9258C47.0698 150.032 47.1898 150.064 47.2858 150.128C47.3818 150.208 47.4618 150.344 47.5258 150.536C47.7178 151.048 48.0298 151.488 48.4618 151.856C48.9098 152.24 49.5978 152.432 50.5258 152.432C51.7098 152.432 52.5818 152.176 53.1418 151.664C53.7018 151.168 53.9818 150.28 53.9818 149V147.368C53.5658 147.896 53.0378 148.32 52.3978 148.64C51.7578 148.944 50.9978 149.096 50.1178 149.096C48.4218 149.096 47.1498 148.56 46.3018 147.488C45.4698 146.4 45.0298 145.024 44.9818 143.36L44.9578 142.688L44.9818 142.04C45.0298 140.392 45.4778 139.024 46.3258 137.936C47.1738 136.832 48.4378 136.28 50.1178 136.28C51.7978 136.28 53.1098 136.896 54.0538 138.128V137.096C54.0538 136.936 54.1018 136.8 54.1978 136.688C54.3098 136.576 54.4458 136.52 54.6058 136.52H55.7098C55.8698 136.52 56.0058 136.576 56.1178 136.688C56.2298 136.8 56.2858 136.936 56.2858 137.096V148.736C56.2858 152.432 54.4058 154.28 50.6458 154.28ZM50.5978 147.176C51.6858 147.176 52.5098 146.816 53.0698 146.096C53.6298 145.376 53.9338 144.52 53.9818 143.528C53.9978 143.384 54.0058 143.104 54.0058 142.688C54.0058 142.288 53.9978 142.016 53.9818 141.872C53.9338 140.88 53.6298 140.024 53.0698 139.304C52.5258 138.584 51.7018 138.224 50.5978 138.224C49.4618 138.224 48.6378 138.576 48.1258 139.28C47.6138 139.984 47.3338 140.912 47.2858 142.064L47.2618 142.688L47.2858 143.336C47.3338 144.472 47.6138 145.4 48.1258 146.12C48.6378 146.824 49.4618 147.176 50.5978 147.176ZM64.8461 149.24C63.1981 149.24 61.8781 148.736 60.8861 147.728C59.9101 146.704 59.3741 145.312 59.2781 143.552L59.2541 142.736L59.2781 141.944C59.3901 140.216 59.9341 138.84 60.9101 137.816C61.9021 136.792 63.2061 136.28 64.8221 136.28C66.5981 136.28 67.9741 136.848 68.9501 137.984C69.9261 139.104 70.4141 140.624 70.4141 142.544V142.952C70.4141 143.112 70.3581 143.248 70.2461 143.36C70.1501 143.456 70.0221 143.504 69.8621 143.504H61.5581V143.72C61.6061 144.76 61.9181 145.648 62.4941 146.384C63.0861 147.104 63.8621 147.464 64.8221 147.464C65.5581 147.464 66.1581 147.32 66.6221 147.032C67.1021 146.728 67.4541 146.416 67.6781 146.096C67.8221 145.904 67.9261 145.792 67.9901 145.76C68.0701 145.712 68.2061 145.688 68.3981 145.688H69.5741C69.7181 145.688 69.8381 145.728 69.9341 145.808C70.0301 145.888 70.0781 146 70.0781 146.144C70.0781 146.496 69.8541 146.92 69.4061 147.416C68.9741 147.912 68.3581 148.344 67.5581 148.712C66.7741 149.064 65.8701 149.24 64.8461 149.24ZM68.1341 141.848V141.776C68.1341 140.672 67.8301 139.776 67.2221 139.088C66.6301 138.384 65.8301 138.032 64.8221 138.032C63.8141 138.032 63.0141 138.384 62.4221 139.088C61.8461 139.776 61.5581 140.672 61.5581 141.776V141.848H68.1341ZM73.8358 149C73.6758 149 73.5398 148.952 73.4278 148.856C73.3318 148.744 73.2838 148.608 73.2838 148.448V137.096C73.2838 136.936 73.3318 136.8 73.4278 136.688C73.5398 136.576 73.6758 136.52 73.8358 136.52H74.9398C75.0998 136.52 75.2358 136.576 75.3478 136.688C75.4598 136.8 75.5158 136.936 75.5158 137.096V138.152C76.1718 137.064 77.2918 136.52 78.8758 136.52H79.8118C79.9718 136.52 80.0998 136.576 80.1958 136.688C80.3078 136.784 80.3638 136.912 80.3638 137.072V138.056C80.3638 138.216 80.3078 138.344 80.1958 138.44C80.0998 138.536 79.9718 138.584 79.8118 138.584H78.3718C77.5078 138.584 76.8278 138.84 76.3318 139.352C75.8358 139.848 75.5878 140.528 75.5878 141.392V148.448C75.5878 148.608 75.5318 148.744 75.4198 148.856C75.3078 148.952 75.1718 149 75.0118 149H73.8358ZM88.2733 149C88.1133 149 87.9773 148.952 87.8653 148.856C87.7693 148.744 87.7213 148.608 87.7213 148.448V137.072C87.7213 136.912 87.7693 136.784 87.8653 136.688C87.9773 136.576 88.1133 136.52 88.2733 136.52H89.4013C89.5613 136.52 89.6893 136.576 89.7853 136.688C89.8973 136.784 89.9533 136.912 89.9533 137.072V138.128C90.4173 137.536 90.9613 137.08 91.5853 136.76C92.2253 136.44 93.0173 136.28 93.9613 136.28C95.4973 136.28 96.6893 136.776 97.5373 137.768C98.4013 138.744 98.8333 140.048 98.8333 141.68V148.448C98.8333 148.608 98.7773 148.744 98.6653 148.856C98.5693 148.952 98.4413 149 98.2813 149H97.0813C96.9213 149 96.7853 148.952 96.6733 148.856C96.5773 148.744 96.5293 148.608 96.5293 148.448V141.8C96.5293 140.664 96.2493 139.784 95.6893 139.16C95.1453 138.536 94.3533 138.224 93.3133 138.224C92.3053 138.224 91.5053 138.544 90.9133 139.184C90.3213 139.808 90.0253 140.68 90.0253 141.8V148.448C90.0253 148.608 89.9693 148.744 89.8573 148.856C89.7613 148.952 89.6333 149 89.4733 149H88.2733ZM106.932 149.24C105.412 149.24 104.236 148.752 103.404 147.776C102.572 146.784 102.156 145.472 102.156 143.84V137.072C102.156 136.912 102.204 136.784 102.3 136.688C102.412 136.576 102.548 136.52 102.708 136.52H103.908C104.068 136.52 104.196 136.576 104.292 136.688C104.404 136.784 104.46 136.912 104.46 137.072V143.72C104.46 146.104 105.5 147.296 107.58 147.296C108.588 147.296 109.388 146.984 109.98 146.36C110.572 145.72 110.868 144.84 110.868 143.72V137.072C110.868 136.912 110.916 136.784 111.012 136.688C111.124 136.576 111.26 136.52 111.42 136.52H112.62C112.78 136.52 112.908 136.576 113.004 136.688C113.1 136.784 113.148 136.912 113.148 137.072V148.448C113.148 148.608 113.1 148.744 113.004 148.856C112.908 148.952 112.78 149 112.62 149H111.492C111.332 149 111.196 148.952 111.084 148.856C110.988 148.744 110.94 148.608 110.94 148.448V147.392C110.492 148 109.948 148.464 109.308 148.784C108.668 149.088 107.876 149.24 106.932 149.24ZM117.266 149C117.106 149 116.97 148.952 116.858 148.856C116.762 148.744 116.714 148.608 116.714 148.448V137.072C116.714 136.912 116.762 136.784 116.858 136.688C116.97 136.576 117.106 136.52 117.266 136.52H118.394C118.554 136.52 118.682 136.576 118.778 136.688C118.89 136.784 118.946 136.912 118.946 137.072V138.128C119.41 137.536 119.954 137.08 120.578 136.76C121.218 136.44 122.01 136.28 122.954 136.28C124.49 136.28 125.682 136.776 126.53 137.768C127.394 138.744 127.826 140.048 127.826 141.68V148.448C127.826 148.608 127.77 148.744 127.658 148.856C127.562 148.952 127.434 149 127.273 149H126.074C125.914 149 125.778 148.952 125.666 148.856C125.57 148.744 125.522 148.608 125.522 148.448V141.8C125.522 140.664 125.242 139.784 124.682 139.16C124.138 138.536 123.346 138.224 122.306 138.224C121.298 138.224 120.498 138.544 119.906 139.184C119.314 139.808 119.018 140.68 119.018 141.8V148.448C119.018 148.608 118.962 148.744 118.85 148.856C118.754 148.952 118.626 149 118.465 149H117.266ZM136.308 149.24C134.596 149.24 133.252 148.76 132.276 147.8C131.316 146.824 130.804 145.464 130.74 143.72L130.716 142.76L130.74 141.8C130.804 140.056 131.316 138.704 132.276 137.744C133.252 136.768 134.596 136.28 136.308 136.28C137.46 136.28 138.436 136.488 139.236 136.904C140.036 137.32 140.628 137.832 141.012 138.44C141.412 139.048 141.628 139.656 141.66 140.264C141.676 140.424 141.628 140.552 141.516 140.648C141.404 140.744 141.268 140.792 141.108 140.792H139.956C139.796 140.792 139.676 140.76 139.596 140.696C139.516 140.632 139.436 140.504 139.356 140.312C139.084 139.544 138.7 139 138.204 138.68C137.708 138.344 137.084 138.176 136.332 138.176C135.34 138.176 134.548 138.488 133.956 139.112C133.38 139.72 133.068 140.656 133.02 141.92L132.996 142.784L133.02 143.6C133.068 144.88 133.38 145.824 133.956 146.432C134.532 147.04 135.324 147.344 136.332 147.344C137.084 147.344 137.708 147.184 138.204 146.864C138.7 146.528 139.084 145.976 139.356 145.208C139.436 145.016 139.516 144.888 139.596 144.824C139.676 144.744 139.796 144.704 139.956 144.704H141.108C141.268 144.704 141.404 144.76 141.516 144.872C141.628 144.968 141.676 145.096 141.66 145.256C141.628 145.848 141.412 146.456 141.012 147.08C140.628 147.688 140.036 148.2 139.236 148.616C138.452 149.032 137.476 149.24 136.308 149.24ZM150.969 149C150.809 149 150.673 148.952 150.561 148.856C150.465 148.744 150.417 148.608 150.417 148.448V132.512C150.417 132.352 150.465 132.224 150.561 132.128C150.673 132.016 150.809 131.96 150.969 131.96H152.097C152.257 131.96 152.385 132.016 152.481 132.128C152.593 132.224 152.649 132.352 152.649 132.512V148.448C152.649 148.608 152.593 148.744 152.481 148.856C152.385 148.952 152.257 149 152.097 149H150.969ZM161.221 149.24C159.573 149.24 158.253 148.736 157.261 147.728C156.285 146.704 155.749 145.312 155.653 143.552L155.629 142.736L155.653 141.944C155.765 140.216 156.309 138.84 157.285 137.816C158.277 136.792 159.581 136.28 161.197 136.28C162.973 136.28 164.349 136.848 165.325 137.984C166.301 139.104 166.789 140.624 166.789 142.544V142.952C166.789 143.112 166.733 143.248 166.621 143.36C166.525 143.456 166.397 143.504 166.237 143.504H157.933V143.72C157.981 144.76 158.293 145.648 158.869 146.384C159.461 147.104 160.237 147.464 161.197 147.464C161.933 147.464 162.533 147.32 162.997 147.032C163.477 146.728 163.829 146.416 164.053 146.096C164.197 145.904 164.301 145.792 164.365 145.76C164.445 145.712 164.581 145.688 164.773 145.688H165.949C166.093 145.688 166.213 145.728 166.309 145.808C166.405 145.888 166.453 146 166.453 146.144C166.453 146.496 166.229 146.92 165.781 147.416C165.349 147.912 164.733 148.344 163.933 148.712C163.149 149.064 162.245 149.24 161.221 149.24ZM164.509 141.848V141.776C164.509 140.672 164.205 139.776 163.597 139.088C163.005 138.384 162.205 138.032 161.197 138.032C160.189 138.032 159.389 138.384 158.797 139.088C158.221 139.776 157.933 140.672 157.933 141.776V141.848H164.509ZM174.699 149.24C172.987 149.24 171.643 148.76 170.667 147.8C169.707 146.824 169.195 145.464 169.131 143.72L169.107 142.76L169.131 141.8C169.195 140.056 169.707 138.704 170.667 137.744C171.643 136.768 172.987 136.28 174.699 136.28C175.851 136.28 176.827 136.488 177.627 136.904C178.427 137.32 179.019 137.832 179.403 138.44C179.803 139.048 180.019 139.656 180.051 140.264C180.067 140.424 180.019 140.552 179.907 140.648C179.795 140.744 179.659 140.792 179.499 140.792H178.347C178.187 140.792 178.067 140.76 177.987 140.696C177.907 140.632 177.827 140.504 177.747 140.312C177.475 139.544 177.091 139 176.595 138.68C176.099 138.344 175.475 138.176 174.723 138.176C173.731 138.176 172.939 138.488 172.347 139.112C171.771 139.72 171.459 140.656 171.411 141.92L171.387 142.784L171.411 143.6C171.459 144.88 171.771 145.824 172.347 146.432C172.923 147.04 173.715 147.344 174.723 147.344C175.475 147.344 176.099 147.184 176.595 146.864C177.091 146.528 177.475 145.976 177.747 145.208C177.827 145.016 177.907 144.888 177.987 144.824C178.067 144.744 178.187 144.704 178.347 144.704H179.499C179.659 144.704 179.795 144.76 179.907 144.872C180.019 144.968 180.067 145.096 180.051 145.256C180.019 145.848 179.803 146.456 179.403 147.08C179.019 147.688 178.427 148.2 177.627 148.616C176.843 149.032 175.867 149.24 174.699 149.24ZM187.773 149C185.245 149 183.981 147.592 183.981 144.776V138.44H182.109C181.949 138.44 181.813 138.392 181.701 138.296C181.605 138.184 181.557 138.048 181.557 137.888V137.072C181.557 136.912 181.605 136.784 181.701 136.688C181.813 136.576 181.949 136.52 182.109 136.52H183.981V132.512C183.981 132.352 184.029 132.224 184.125 132.128C184.237 132.016 184.373 131.96 184.533 131.96H185.661C185.821 131.96 185.949 132.016 186.045 132.128C186.157 132.224 186.213 132.352 186.213 132.512V136.52H189.189C189.349 136.52 189.477 136.576 189.573 136.688C189.685 136.784 189.741 136.912 189.741 137.072V137.888C189.741 138.048 189.685 138.184 189.573 138.296C189.477 138.392 189.349 138.44 189.189 138.44H186.213V144.608C186.213 145.408 186.349 146.016 186.621 146.432C186.893 146.832 187.341 147.032 187.965 147.032H189.429C189.589 147.032 189.717 147.088 189.813 147.2C189.925 147.296 189.981 147.424 189.981 147.584V148.448C189.981 148.608 189.925 148.744 189.813 148.856C189.717 148.952 189.589 149 189.429 149H187.773ZM196.932 149.24C195.412 149.24 194.236 148.752 193.404 147.776C192.572 146.784 192.156 145.472 192.156 143.84V137.072C192.156 136.912 192.204 136.784 192.3 136.688C192.412 136.576 192.548 136.52 192.708 136.52H193.908C194.068 136.52 194.196 136.576 194.292 136.688C194.404 136.784 194.46 136.912 194.46 137.072V143.72C194.46 146.104 195.5 147.296 197.58 147.296C198.588 147.296 199.388 146.984 199.98 146.36C200.572 145.72 200.868 144.84 200.868 143.72V137.072C200.868 136.912 200.916 136.784 201.012 136.688C201.124 136.576 201.26 136.52 201.42 136.52H202.62C202.78 136.52 202.908 136.576 203.004 136.688C203.1 136.784 203.148 136.912 203.148 137.072V148.448C203.148 148.608 203.1 148.744 203.004 148.856C202.908 148.952 202.78 149 202.62 149H201.492C201.332 149 201.196 148.952 201.084 148.856C200.988 148.744 200.94 148.608 200.94 148.448V147.392C200.492 148 199.948 148.464 199.308 148.784C198.668 149.088 197.876 149.24 196.932 149.24ZM211.034 149.24C209.914 149.24 208.97 149.064 208.202 148.712C207.45 148.344 206.882 147.928 206.498 147.464C206.13 147 205.946 146.616 205.946 146.312C205.946 146.152 206.002 146.032 206.114 145.952C206.242 145.856 206.37 145.808 206.498 145.808H207.578C207.738 145.808 207.882 145.888 208.01 146.048C208.394 146.496 208.81 146.848 209.258 147.104C209.706 147.36 210.306 147.488 211.058 147.488C211.89 147.488 212.562 147.328 213.074 147.008C213.602 146.672 213.866 146.216 213.866 145.64C213.866 145.256 213.754 144.944 213.53 144.704C213.322 144.448 212.954 144.232 212.426 144.056C211.914 143.864 211.146 143.656 210.122 143.432C208.73 143.128 207.738 142.688 207.146 142.112C206.57 141.536 206.282 140.792 206.282 139.88C206.282 139.272 206.458 138.696 206.81 138.152C207.178 137.592 207.706 137.144 208.394 136.808C209.098 136.456 209.938 136.28 210.914 136.28C211.938 136.28 212.81 136.448 213.53 136.784C214.25 137.12 214.786 137.52 215.138 137.984C215.506 138.432 215.69 138.808 215.69 139.112C215.69 139.256 215.634 139.376 215.522 139.472C215.426 139.568 215.306 139.616 215.162 139.616H214.154C213.962 139.616 213.802 139.536 213.674 139.376C213.418 139.072 213.194 138.84 213.002 138.68C212.826 138.504 212.562 138.352 212.21 138.224C211.874 138.096 211.442 138.032 210.914 138.032C210.146 138.032 209.554 138.2 209.138 138.536C208.722 138.856 208.514 139.28 208.514 139.808C208.514 140.144 208.602 140.432 208.778 140.672C208.954 140.896 209.29 141.104 209.786 141.296C210.298 141.488 211.034 141.688 211.993 141.896C213.514 142.216 214.586 142.68 215.21 143.288C215.85 143.88 216.17 144.64 216.17 145.568C216.17 146.256 215.97 146.88 215.57 147.44C215.17 148 214.578 148.44 213.794 148.76C213.026 149.08 212.106 149.24 211.034 149.24ZM225.383 149C225.223 149 225.087 148.952 224.975 148.856C224.879 148.744 224.831 148.608 224.831 148.448V137.072C224.831 136.912 224.879 136.784 224.975 136.688C225.087 136.576 225.223 136.52 225.383 136.52H226.511C226.671 136.52 226.799 136.576 226.895 136.688C227.007 136.784 227.063 136.912 227.063 137.072V138.128C227.527 137.536 228.071 137.08 228.695 136.76C229.335 136.44 230.127 136.28 231.071 136.28C232.607 136.28 233.799 136.776 234.647 137.768C235.511 138.744 235.943 140.048 235.943 141.68V148.448C235.943 148.608 235.887 148.744 235.775 148.856C235.679 148.952 235.551 149 235.391 149H234.191C234.031 149 233.895 148.952 233.783 148.856C233.687 148.744 233.639 148.608 233.639 148.448V141.8C233.639 140.664 233.359 139.784 232.799 139.16C232.255 138.536 231.463 138.224 230.423 138.224C229.415 138.224 228.615 138.544 228.023 139.184C227.431 139.808 227.135 140.68 227.135 141.8V148.448C227.135 148.608 227.079 148.744 226.967 148.856C226.871 148.952 226.743 149 226.583 149H225.383ZM239.745 134.192C239.585 134.192 239.449 134.144 239.337 134.048C239.241 133.936 239.193 133.8 239.193 133.64V132.344C239.193 132.184 239.241 132.048 239.337 131.936C239.449 131.824 239.585 131.768 239.745 131.768H241.257C241.417 131.768 241.553 131.824 241.665 131.936C241.777 132.048 241.833 132.184 241.833 132.344V133.64C241.833 133.8 241.777 133.936 241.665 134.048C241.553 134.144 241.417 134.192 241.257 134.192H239.745ZM239.937 149C239.777 149 239.641 148.952 239.529 148.856C239.433 148.744 239.385 148.608 239.385 148.448V137.072C239.385 136.912 239.433 136.784 239.529 136.688C239.641 136.576 239.777 136.52 239.937 136.52H241.089C241.249 136.52 241.377 136.576 241.473 136.688C241.585 136.784 241.641 136.912 241.641 137.072V148.448C241.641 148.608 241.585 148.744 241.473 148.856C241.377 148.952 241.249 149 241.089 149H239.937ZM249.518 149.24C248.398 149.24 247.454 149.064 246.686 148.712C245.934 148.344 245.366 147.928 244.982 147.464C244.614 147 244.43 146.616 244.43 146.312C244.43 146.152 244.486 146.032 244.598 145.952C244.726 145.856 244.854 145.808 244.982 145.808H246.062C246.222 145.808 246.366 145.888 246.494 146.048C246.878 146.496 247.294 146.848 247.742 147.104C248.19 147.36 248.79 147.488 249.542 147.488C250.374 147.488 251.046 147.328 251.558 147.008C252.086 146.672 252.35 146.216 252.35 145.64C252.35 145.256 252.238 144.944 252.014 144.704C251.806 144.448 251.438 144.232 250.91 144.056C250.398 143.864 249.63 143.656 248.606 143.432C247.214 143.128 246.222 142.688 245.63 142.112C245.054 141.536 244.766 140.792 244.766 139.88C244.766 139.272 244.942 138.696 245.294 138.152C245.662 137.592 246.19 137.144 246.878 136.808C247.582 136.456 248.422 136.28 249.398 136.28C250.422 136.28 251.294 136.448 252.014 136.784C252.734 137.12 253.27 137.52 253.622 137.984C253.99 138.432 254.174 138.808 254.174 139.112C254.174 139.256 254.118 139.376 254.006 139.472C253.91 139.568 253.79 139.616 253.646 139.616H252.638C252.446 139.616 252.286 139.536 252.158 139.376C251.902 139.072 251.678 138.84 251.486 138.68C251.31 138.504 251.046 138.352 250.694 138.224C250.358 138.096 249.926 138.032 249.398 138.032C248.63 138.032 248.038 138.2 247.622 138.536C247.206 138.856 246.998 139.28 246.998 139.808C246.998 140.144 247.086 140.432 247.262 140.672C247.438 140.896 247.774 141.104 248.27 141.296C248.782 141.488 249.518 141.688 250.478 141.896C251.998 142.216 253.07 142.68 253.694 143.288C254.334 143.88 254.654 144.64 254.654 145.568C254.654 146.256 254.454 146.88 254.054 147.44C253.654 148 253.062 148.44 252.278 148.76C251.51 149.08 250.59 149.24 249.518 149.24ZM257.792 134.192C257.632 134.192 257.496 134.144 257.384 134.048C257.288 133.936 257.24 133.8 257.24 133.64V132.344C257.24 132.184 257.288 132.048 257.384 131.936C257.496 131.824 257.632 131.768 257.792 131.768H259.304C259.464 131.768 259.6 131.824 259.712 131.936C259.824 132.048 259.88 132.184 259.88 132.344V133.64C259.88 133.8 259.824 133.936 259.712 134.048C259.6 134.144 259.464 134.192 259.304 134.192H257.792ZM257.984 149C257.824 149 257.688 148.952 257.576 148.856C257.48 148.744 257.432 148.608 257.432 148.448V137.072C257.432 136.912 257.48 136.784 257.576 136.688C257.688 136.576 257.824 136.52 257.984 136.52H259.136C259.296 136.52 259.424 136.576 259.52 136.688C259.632 136.784 259.688 136.912 259.688 137.072V148.448C259.688 148.608 259.632 148.744 259.52 148.856C259.424 148.952 259.296 149 259.136 149H257.984ZM263.077 150.8C262.949 150.8 262.845 150.752 262.765 150.656C262.701 150.56 262.677 150.44 262.693 150.296L263.245 146.864C263.309 146.4 263.533 146.168 263.917 146.168H265.525C265.637 146.168 265.725 146.208 265.789 146.288C265.869 146.368 265.909 146.464 265.909 146.576C265.909 146.656 265.885 146.784 265.837 146.96L264.565 150.248C264.485 150.44 264.397 150.576 264.301 150.656C264.205 150.752 264.061 150.8 263.869 150.8H263.077ZM280.096 149.24C278.448 149.24 277.128 148.736 276.136 147.728C275.16 146.704 274.624 145.312 274.528 143.552L274.504 142.736L274.528 141.944C274.64 140.216 275.184 138.84 276.16 137.816C277.152 136.792 278.456 136.28 280.072 136.28C281.848 136.28 283.224 136.848 284.2 137.984C285.176 139.104 285.664 140.624 285.664 142.544V142.952C285.664 143.112 285.608 143.248 285.496 143.36C285.4 143.456 285.272 143.504 285.112 143.504H276.808V143.72C276.856 144.76 277.168 145.648 277.744 146.384C278.336 147.104 279.112 147.464 280.072 147.464C280.808 147.464 281.408 147.32 281.872 147.032C282.352 146.728 282.704 146.416 282.928 146.096C283.072 145.904 283.176 145.792 283.24 145.76C283.32 145.712 283.456 145.688 283.648 145.688H284.824C284.968 145.688 285.088 145.728 285.184 145.808C285.28 145.888 285.328 146 285.328 146.144C285.328 146.496 285.104 146.92 284.656 147.416C284.224 147.912 283.608 148.344 282.808 148.712C282.024 149.064 281.12 149.24 280.096 149.24ZM283.384 141.848V141.776C283.384 140.672 283.08 139.776 282.472 139.088C281.88 138.384 281.08 138.032 280.072 138.032C279.064 138.032 278.264 138.384 277.672 139.088C277.096 139.776 276.808 140.672 276.808 141.776V141.848H283.384ZM289.086 149C288.926 149 288.79 148.952 288.678 148.856C288.582 148.744 288.534 148.608 288.534 148.448V137.096C288.534 136.936 288.582 136.8 288.678 136.688C288.79 136.576 288.926 136.52 289.086 136.52H290.19C290.35 136.52 290.486 136.576 290.598 136.688C290.71 136.8 290.766 136.936 290.766 137.096V138.152C291.422 137.064 292.542 136.52 294.126 136.52H295.062C295.222 136.52 295.35 136.576 295.446 136.688C295.558 136.784 295.614 136.912 295.614 137.072V138.056C295.614 138.216 295.558 138.344 295.446 138.44C295.35 138.536 295.222 138.584 295.062 138.584H293.622C292.758 138.584 292.078 138.84 291.582 139.352C291.086 139.848 290.838 140.528 290.838 141.392V148.448C290.838 148.608 290.782 148.744 290.67 148.856C290.558 148.952 290.422 149 290.262 149H289.086ZM300.944 149.24C300.16 149.24 299.432 149.08 298.76 148.76C298.088 148.44 297.552 148.008 297.152 147.464C296.768 146.904 296.576 146.288 296.576 145.616C296.576 144.56 297.008 143.696 297.872 143.024C298.752 142.336 299.936 141.888 301.424 141.68L305 141.176V140.48C305 138.848 304.064 138.032 302.192 138.032C301.488 138.032 300.912 138.184 300.464 138.488C300.016 138.776 299.68 139.12 299.456 139.52C299.408 139.664 299.344 139.768 299.264 139.832C299.2 139.896 299.104 139.928 298.976 139.928H297.944C297.8 139.928 297.672 139.88 297.56 139.784C297.464 139.672 297.416 139.544 297.416 139.4C297.432 139.016 297.608 138.584 297.944 138.104C298.296 137.608 298.832 137.184 299.552 136.832C300.272 136.464 301.16 136.28 302.216 136.28C304.008 136.28 305.296 136.704 306.08 137.552C306.864 138.384 307.256 139.424 307.256 140.672V148.448C307.256 148.608 307.2 148.744 307.088 148.856C306.992 148.952 306.864 149 306.704 149H305.6C305.44 149 305.304 148.952 305.192 148.856C305.096 148.744 305.048 148.608 305.048 148.448V147.416C304.696 147.928 304.184 148.36 303.512 148.712C302.84 149.064 301.984 149.24 300.944 149.24ZM301.448 147.44C302.488 147.44 303.336 147.104 303.992 146.432C304.664 145.744 305 144.76 305 143.48V142.808L302.216 143.216C301.08 143.376 300.224 143.648 299.648 144.032C299.072 144.4 298.784 144.872 298.784 145.448C298.784 146.088 299.048 146.584 299.576 146.936C300.104 147.272 300.728 147.44 301.448 147.44ZM315.461 149C312.933 149 311.669 147.592 311.669 144.776V138.44H309.797C309.637 138.44 309.501 138.392 309.389 138.296C309.293 138.184 309.245 138.048 309.245 137.888V137.072C309.245 136.912 309.293 136.784 309.389 136.688C309.501 136.576 309.637 136.52 309.797 136.52H311.669V132.512C311.669 132.352 311.717 132.224 311.812 132.128C311.924 132.016 312.061 131.96 312.221 131.96H313.349C313.509 131.96 313.637 132.016 313.733 132.128C313.845 132.224 313.901 132.352 313.901 132.512V136.52H316.877C317.037 136.52 317.165 136.576 317.261 136.688C317.373 136.784 317.429 136.912 317.429 137.072V137.888C317.429 138.048 317.373 138.184 317.261 138.296C317.165 138.392 317.037 138.44 316.877 138.44H313.901V144.608C313.901 145.408 314.037 146.016 314.309 146.432C314.581 146.832 315.029 147.032 315.653 147.032H317.117C317.277 147.032 317.405 147.088 317.501 147.2C317.613 147.296 317.669 147.424 317.669 147.584V148.448C317.669 148.608 317.613 148.744 317.501 148.856C317.405 148.952 317.277 149 317.117 149H315.461ZM330.838 149.24C329.19 149.24 327.87 148.736 326.878 147.728C325.902 146.704 325.366 145.312 325.27 143.552L325.246 142.736L325.27 141.944C325.382 140.216 325.926 138.84 326.902 137.816C327.894 136.792 329.198 136.28 330.814 136.28C332.59 136.28 333.966 136.848 334.942 137.984C335.918 139.104 336.406 140.624 336.406 142.544V142.952C336.406 143.112 336.35 143.248 336.238 143.36C336.142 143.456 336.014 143.504 335.854 143.504H327.55V143.72C327.598 144.76 327.91 145.648 328.486 146.384C329.078 147.104 329.854 147.464 330.814 147.464C331.55 147.464 332.15 147.32 332.614 147.032C333.094 146.728 333.446 146.416 333.67 146.096C333.814 145.904 333.918 145.792 333.982 145.76C334.062 145.712 334.198 145.688 334.39 145.688H335.566C335.71 145.688 335.83 145.728 335.926 145.808C336.022 145.888 336.07 146 336.07 146.144C336.07 146.496 335.846 146.92 335.398 147.416C334.966 147.912 334.35 148.344 333.55 148.712C332.766 149.064 331.862 149.24 330.838 149.24ZM334.126 141.848V141.776C334.126 140.672 333.822 139.776 333.214 139.088C332.622 138.384 331.822 138.032 330.814 138.032C329.806 138.032 329.006 138.384 328.414 139.088C327.838 139.776 327.55 140.672 327.55 141.776V141.848H334.126ZM344.078 149C341.55 149 340.286 147.592 340.286 144.776V138.44H338.414C338.254 138.44 338.118 138.392 338.006 138.296C337.91 138.184 337.862 138.048 337.862 137.888V137.072C337.862 136.912 337.91 136.784 338.006 136.688C338.118 136.576 338.254 136.52 338.414 136.52H340.286V132.512C340.286 132.352 340.334 132.224 340.43 132.128C340.542 132.016 340.678 131.96 340.838 131.96H341.966C342.126 131.96 342.254 132.016 342.35 132.128C342.462 132.224 342.518 132.352 342.518 132.512V136.52H345.494C345.654 136.52 345.782 136.576 345.878 136.688C345.99 136.784 346.046 136.912 346.046 137.072V137.888C346.046 138.048 345.99 138.184 345.878 138.296C345.782 138.392 345.654 138.44 345.494 138.44H342.518V144.608C342.518 145.408 342.654 146.016 342.926 146.432C343.198 146.832 343.646 147.032 344.27 147.032H345.734C345.894 147.032 346.022 147.088 346.118 147.2C346.23 147.296 346.286 147.424 346.286 147.584V148.448C346.286 148.608 346.23 148.744 346.118 148.856C346.022 148.952 345.894 149 345.734 149H344.078ZM6.888 177.24C5.128 177.24 3.76 176.744 2.784 175.752C1.824 174.76 1.312 173.44 1.248 171.792L1.224 170.76L1.248 169.728C1.312 168.096 1.832 166.784 2.808 165.792C3.784 164.784 5.144 164.28 6.888 164.28C8.632 164.28 9.992 164.784 10.968 165.792C11.944 166.784 12.464 168.096 12.528 169.728C12.544 169.904 12.552 170.248 12.552 170.76C12.552 171.272 12.544 171.616 12.528 171.792C12.464 173.44 11.944 174.76 10.968 175.752C10.008 176.744 8.648 177.24 6.888 177.24ZM6.888 175.392C7.896 175.392 8.688 175.072 9.264 174.432C9.856 173.792 10.176 172.872 10.224 171.672C10.24 171.512 10.248 171.208 10.248 170.76C10.248 170.312 10.24 170.008 10.224 169.848C10.176 168.648 9.856 167.728 9.264 167.088C8.688 166.448 7.896 166.128 6.888 166.128C5.88 166.128 5.08 166.448 4.488 167.088C3.896 167.728 3.584 168.648 3.552 169.848L3.528 170.76L3.552 171.672C3.584 172.872 3.896 173.792 4.488 174.432C5.08 175.072 5.88 175.392 6.888 175.392ZM16.1093 177C15.9493 177 15.8133 176.952 15.7013 176.856C15.6053 176.744 15.5573 176.608 15.5573 176.448V165.096C15.5573 164.936 15.6053 164.8 15.7013 164.688C15.8133 164.576 15.9493 164.52 16.1093 164.52H17.2133C17.3733 164.52 17.5093 164.576 17.6213 164.688C17.7333 164.8 17.7893 164.936 17.7893 165.096V166.152C18.4453 165.064 19.5653 164.52 21.1493 164.52H22.0853C22.2453 164.52 22.3733 164.576 22.4693 164.688C22.5813 164.784 22.6373 164.912 22.6373 165.072V166.056C22.6373 166.216 22.5813 166.344 22.4693 166.44C22.3733 166.536 22.2453 166.584 22.0853 166.584H20.6453C19.7813 166.584 19.1013 166.84 18.6053 167.352C18.1093 167.848 17.8613 168.528 17.8613 169.392V176.448C17.8613 176.608 17.8053 176.744 17.6933 176.856C17.5813 176.952 17.4453 177 17.2853 177H16.1093ZM25.2264 177C25.0664 177 24.9304 176.952 24.8184 176.856C24.7224 176.744 24.6744 176.608 24.6744 176.448V165.072C24.6744 164.912 24.7224 164.784 24.8184 164.688C24.9304 164.576 25.0664 164.52 25.2264 164.52H26.3544C26.5144 164.52 26.6424 164.576 26.7384 164.688C26.8504 164.784 26.9064 164.912 26.9064 165.072V166.128C27.3704 165.536 27.9144 165.08 28.5384 164.76C29.1784 164.44 29.9704 164.28 30.9144 164.28C32.4504 164.28 33.6424 164.776 34.4904 165.768C35.3544 166.744 35.7864 168.048 35.7864 169.68V176.448C35.7864 176.608 35.7304 176.744 35.6184 176.856C35.5224 176.952 35.3944 177 35.2344 177H34.0344C33.8744 177 33.7384 176.952 33.6264 176.856C33.5304 176.744 33.4824 176.608 33.4824 176.448V169.8C33.4824 168.664 33.2024 167.784 32.6424 167.16C32.0984 166.536 31.3064 166.224 30.2664 166.224C29.2584 166.224 28.4584 166.544 27.8664 167.184C27.2744 167.808 26.9784 168.68 26.9784 169.8V176.448C26.9784 176.608 26.9224 176.744 26.8104 176.856C26.7144 176.952 26.5864 177 26.4264 177H25.2264ZM42.7091 177.24C41.9251 177.24 41.1971 177.08 40.5251 176.76C39.8531 176.44 39.3171 176.008 38.9171 175.464C38.5331 174.904 38.3411 174.288 38.3411 173.616C38.3411 172.56 38.7731 171.696 39.6371 171.024C40.5171 170.336 41.7011 169.888 43.1891 169.68L46.7651 169.176V168.48C46.7651 166.848 45.8291 166.032 43.9571 166.032C43.2531 166.032 42.6771 166.184 42.2291 166.488C41.7811 166.776 41.4451 167.12 41.2211 167.52C41.1731 167.664 41.1091 167.768 41.0291 167.832C40.9651 167.896 40.8691 167.928 40.7411 167.928H39.7091C39.5651 167.928 39.4371 167.88 39.3251 167.784C39.2291 167.672 39.1811 167.544 39.1811 167.4C39.1971 167.016 39.3731 166.584 39.7091 166.104C40.0611 165.608 40.5971 165.184 41.3171 164.832C42.0371 164.464 42.9251 164.28 43.9811 164.28C45.7731 164.28 47.0611 164.704 47.8451 165.552C48.6291 166.384 49.0211 167.424 49.0211 168.672V176.448C49.0211 176.608 48.9651 176.744 48.8531 176.856C48.7571 176.952 48.6291 177 48.4691 177H47.3651C47.2051 177 47.0691 176.952 46.9571 176.856C46.8611 176.744 46.8131 176.608 46.8131 176.448V175.416C46.4611 175.928 45.9491 176.36 45.2771 176.712C44.6051 177.064 43.7491 177.24 42.7091 177.24ZM43.2131 175.44C44.2531 175.44 45.1011 175.104 45.7571 174.432C46.4291 173.744 46.7651 172.76 46.7651 171.48V170.808L43.9811 171.216C42.8451 171.376 41.9891 171.648 41.4131 172.032C40.8371 172.4 40.5491 172.872 40.5491 173.448C40.5491 174.088 40.8131 174.584 41.3411 174.936C41.8691 175.272 42.4931 175.44 43.2131 175.44ZM53.0233 177C52.8633 177 52.7273 176.952 52.6153 176.856C52.5193 176.744 52.4713 176.608 52.4713 176.448V165.096C52.4713 164.936 52.5193 164.8 52.6153 164.688C52.7273 164.576 52.8633 164.52 53.0233 164.52H54.1273C54.2873 164.52 54.4233 164.576 54.5353 164.688C54.6473 164.8 54.7033 164.936 54.7033 165.096V166.152C55.3593 165.064 56.4793 164.52 58.0633 164.52H58.9993C59.1593 164.52 59.2873 164.576 59.3833 164.688C59.4953 164.784 59.5513 164.912 59.5513 165.072V166.056C59.5513 166.216 59.4953 166.344 59.3833 166.44C59.2873 166.536 59.1593 166.584 58.9993 166.584H57.5593C56.6953 166.584 56.0153 166.84 55.5193 167.352C55.0233 167.848 54.7753 168.528 54.7753 169.392V176.448C54.7753 176.608 54.7193 176.744 54.6073 176.856C54.4953 176.952 54.3593 177 54.1993 177H53.0233ZM66.3461 177.24C64.6981 177.24 63.3781 176.736 62.3861 175.728C61.4101 174.704 60.8741 173.312 60.7781 171.552L60.7541 170.736L60.7781 169.944C60.8901 168.216 61.4341 166.84 62.4101 165.816C63.4021 164.792 64.7061 164.28 66.3221 164.28C68.0981 164.28 69.4741 164.848 70.4501 165.984C71.4261 167.104 71.9141 168.624 71.9141 170.544V170.952C71.9141 171.112 71.8581 171.248 71.7461 171.36C71.6501 171.456 71.5221 171.504 71.3621 171.504H63.0581V171.72C63.1061 172.76 63.4181 173.648 63.9941 174.384C64.5861 175.104 65.3621 175.464 66.3221 175.464C67.0581 175.464 67.6581 175.32 68.1221 175.032C68.6021 174.728 68.9541 174.416 69.1781 174.096C69.3221 173.904 69.4261 173.792 69.4901 173.76C69.5701 173.712 69.7061 173.688 69.8981 173.688H71.0741C71.2181 173.688 71.3381 173.728 71.4341 173.808C71.5301 173.888 71.5781 174 71.5781 174.144C71.5781 174.496 71.3541 174.92 70.9061 175.416C70.4741 175.912 69.8581 176.344 69.0581 176.712C68.2741 177.064 67.3701 177.24 66.3461 177.24ZM69.6341 169.848V169.776C69.6341 168.672 69.3301 167.776 68.7221 167.088C68.1301 166.384 67.3301 166.032 66.3221 166.032C65.3141 166.032 64.5141 166.384 63.9221 167.088C63.3461 167.776 63.0581 168.672 63.0581 169.776V169.848H69.6341ZM81.2186 177C81.0586 177 80.9226 176.952 80.8106 176.856C80.7146 176.744 80.6666 176.608 80.6666 176.448V165.096C80.6666 164.936 80.7146 164.8 80.8106 164.688C80.9226 164.576 81.0586 164.52 81.2186 164.52H82.3226C82.4826 164.52 82.6186 164.576 82.7306 164.688C82.8426 164.8 82.8986 164.936 82.8986 165.096V166.152C83.5546 165.064 84.6746 164.52 86.2586 164.52H87.1946C87.3546 164.52 87.4826 164.576 87.5786 164.688C87.6906 164.784 87.7466 164.912 87.7466 165.072V166.056C87.7466 166.216 87.6906 166.344 87.5786 166.44C87.4826 166.536 87.3546 166.584 87.1946 166.584H85.7546C84.8906 166.584 84.2106 166.84 83.7146 167.352C83.2186 167.848 82.9706 168.528 82.9706 169.392V176.448C82.9706 176.608 82.9146 176.744 82.8026 176.856C82.6906 176.952 82.5546 177 82.3946 177H81.2186ZM90.1438 162.192C89.9838 162.192 89.8478 162.144 89.7358 162.048C89.6398 161.936 89.5918 161.8 89.5918 161.64V160.344C89.5918 160.184 89.6398 160.048 89.7358 159.936C89.8478 159.824 89.9838 159.768 90.1438 159.768H91.6558C91.8158 159.768 91.9518 159.824 92.0638 159.936C92.1758 160.048 92.2318 160.184 92.2318 160.344V161.64C92.2318 161.8 92.1758 161.936 92.0638 162.048C91.9518 162.144 91.8158 162.192 91.6558 162.192H90.1438ZM90.3358 177C90.1758 177 90.0398 176.952 89.9278 176.856C89.8318 176.744 89.7838 176.608 89.7838 176.448V165.072C89.7838 164.912 89.8318 164.784 89.9278 164.688C90.0398 164.576 90.1758 164.52 90.3358 164.52H91.4878C91.6478 164.52 91.7758 164.576 91.8718 164.688C91.9838 164.784 92.0398 164.912 92.0398 165.072V176.448C92.0398 176.608 91.9838 176.744 91.8718 176.856C91.7758 176.952 91.6478 177 91.4878 177H90.3358ZM99.9163 177.24C98.7963 177.24 97.8523 177.064 97.0843 176.712C96.3323 176.344 95.7643 175.928 95.3803 175.464C95.0123 175 94.8283 174.616 94.8283 174.312C94.8283 174.152 94.8843 174.032 94.9963 173.952C95.1243 173.856 95.2523 173.808 95.3803 173.808H96.4603C96.6203 173.808 96.7643 173.888 96.8923 174.048C97.2763 174.496 97.6923 174.848 98.1403 175.104C98.5883 175.36 99.1883 175.488 99.9403 175.488C100.772 175.488 101.444 175.328 101.956 175.008C102.484 174.672 102.748 174.216 102.748 173.64C102.748 173.256 102.636 172.944 102.412 172.704C102.204 172.448 101.836 172.232 101.308 172.056C100.796 171.864 100.028 171.656 99.0043 171.432C97.6123 171.128 96.6203 170.688 96.0283 170.112C95.4523 169.536 95.1643 168.792 95.1643 167.88C95.1643 167.272 95.3403 166.696 95.6923 166.152C96.0603 165.592 96.5883 165.144 97.2763 164.808C97.9803 164.456 98.8203 164.28 99.7963 164.28C100.82 164.28 101.692 164.448 102.412 164.784C103.132 165.12 103.668 165.52 104.02 165.984C104.388 166.432 104.572 166.808 104.572 167.112C104.572 167.256 104.516 167.376 104.404 167.472C104.308 167.568 104.188 167.616 104.044 167.616H103.036C102.844 167.616 102.684 167.536 102.556 167.376C102.3 167.072 102.076 166.84 101.884 166.68C101.708 166.504 101.444 166.352 101.092 166.224C100.756 166.096 100.324 166.032 99.7963 166.032C99.0283 166.032 98.4363 166.2 98.0203 166.536C97.6043 166.856 97.3963 167.28 97.3963 167.808C97.3963 168.144 97.4843 168.432 97.6603 168.672C97.8363 168.896 98.1723 169.104 98.6683 169.296C99.1803 169.488 99.9163 169.688 100.876 169.896C102.396 170.216 103.468 170.68 104.092 171.288C104.732 171.88 105.052 172.64 105.052 173.568C105.052 174.256 104.852 174.88 104.452 175.44C104.052 176 103.46 176.44 102.676 176.76C101.908 177.08 100.988 177.24 99.9163 177.24ZM112.487 177.24C110.967 177.24 109.791 176.752 108.959 175.776C108.127 174.784 107.711 173.472 107.711 171.84V165.072C107.711 164.912 107.759 164.784 107.855 164.688C107.967 164.576 108.103 164.52 108.263 164.52H109.463C109.623 164.52 109.751 164.576 109.847 164.688C109.959 164.784 110.015 164.912 110.015 165.072V171.72C110.015 174.104 111.055 175.296 113.135 175.296C114.143 175.296 114.943 174.984 115.535 174.36C116.127 173.72 116.423 172.84 116.423 171.72V165.072C116.423 164.912 116.471 164.784 116.567 164.688C116.679 164.576 116.815 164.52 116.975 164.52H118.175C118.335 164.52 118.463 164.576 118.559 164.688C118.655 164.784 118.703 164.912 118.703 165.072V176.448C118.703 176.608 118.655 176.744 118.559 176.856C118.463 176.952 118.335 177 118.175 177H117.047C116.887 177 116.751 176.952 116.639 176.856C116.543 176.744 116.495 176.608 116.495 176.448V175.392C116.047 176 115.503 176.464 114.863 176.784C114.223 177.088 113.431 177.24 112.487 177.24ZM126.588 177.24C125.468 177.24 124.524 177.064 123.756 176.712C123.004 176.344 122.436 175.928 122.052 175.464C121.684 175 121.5 174.616 121.5 174.312C121.5 174.152 121.556 174.032 121.668 173.952C121.796 173.856 121.924 173.808 122.052 173.808H123.132C123.292 173.808 123.436 173.888 123.564 174.048C123.948 174.496 124.364 174.848 124.812 175.104C125.26 175.36 125.86 175.488 126.612 175.488C127.444 175.488 128.116 175.328 128.628 175.008C129.156 174.672 129.42 174.216 129.42 173.64C129.42 173.256 129.308 172.944 129.084 172.704C128.876 172.448 128.508 172.232 127.98 172.056C127.468 171.864 126.7 171.656 125.676 171.432C124.284 171.128 123.292 170.688 122.7 170.112C122.124 169.536 121.836 168.792 121.836 167.88C121.836 167.272 122.012 166.696 122.364 166.152C122.732 165.592 123.26 165.144 123.948 164.808C124.652 164.456 125.492 164.28 126.468 164.28C127.492 164.28 128.364 164.448 129.084 164.784C129.804 165.12 130.34 165.52 130.692 165.984C131.06 166.432 131.244 166.808 131.244 167.112C131.244 167.256 131.188 167.376 131.076 167.472C130.98 167.568 130.86 167.616 130.716 167.616H129.708C129.516 167.616 129.356 167.536 129.228 167.376C128.972 167.072 128.748 166.84 128.556 166.68C128.38 166.504 128.116 166.352 127.764 166.224C127.428 166.096 126.996 166.032 126.468 166.032C125.7 166.032 125.108 166.2 124.692 166.536C124.276 166.856 124.068 167.28 124.068 167.808C124.068 168.144 124.156 168.432 124.332 168.672C124.508 168.896 124.844 169.104 125.34 169.296C125.852 169.488 126.588 169.688 127.548 169.896C129.068 170.216 130.14 170.68 130.764 171.288C131.404 171.88 131.724 172.64 131.724 173.568C131.724 174.256 131.524 174.88 131.124 175.44C130.724 176 130.132 176.44 129.348 176.76C128.58 177.08 127.66 177.24 126.588 177.24ZM134.887 177C134.727 177 134.591 176.952 134.479 176.856C134.383 176.744 134.335 176.608 134.335 176.448V174.72C134.335 174.56 134.383 174.432 134.479 174.336C134.591 174.224 134.727 174.168 134.887 174.168H136.615C136.775 174.168 136.911 174.224 137.023 174.336C137.135 174.432 137.191 174.56 137.191 174.72V176.448C137.191 176.608 137.135 176.744 137.023 176.856C136.911 176.952 136.775 177 136.615 177H134.887Z" fill="white"/>
</svg>
