<svg width="350" height="194" viewBox="0 0 350 194" fill="none" xmlns="http://www.w3.org/2000/svg">
<path d="M48.75 28.6667H46.0417V23.25C46.0417 15.775 39.975 9.70833 32.5 9.70833C25.025 9.70833 18.9583 15.775 18.9583 23.25V28.6667H16.25C13.2708 28.6667 10.8333 31.1042 10.8333 34.0833V61.1667C10.8333 64.1458 13.2708 66.5833 16.25 66.5833H48.75C51.7292 66.5833 54.1667 64.1458 54.1667 61.1667V34.0833C54.1667 31.1042 51.7292 28.6667 48.75 28.6667ZM24.375 23.25C24.375 18.7542 28.0042 15.125 32.5 15.125C36.9958 15.125 40.625 18.7542 40.625 23.25V28.6667H24.375V23.25ZM48.75 61.1667H16.25V34.0833H48.75V61.1667ZM32.5 53.0417C35.4792 53.0417 37.9167 50.6042 37.9167 47.625C37.9167 44.6458 35.4792 42.2083 32.5 42.2083C29.5208 42.2083 27.0833 44.6458 27.0833 47.625C27.0833 50.6042 29.5208 53.0417 32.5 53.0417Z" fill="#EF443B"/>
<path d="M104.63 31.3C102.85 31.3 101.32 31.03 100.04 30.49C98.76 29.95 97.79 29.24 97.13 28.36C96.47 27.48 96.12 26.53 96.08 25.51C96.08 25.33 96.14 25.18 96.26 25.06C96.38 24.94 96.53 24.88 96.71 24.88H99.38C99.62 24.88 99.8 24.93 99.92 25.03C100.06 25.11 100.19 25.25 100.31 25.45C100.51 26.13 100.97 26.7 101.69 27.16C102.41 27.62 103.39 27.85 104.63 27.85C106.05 27.85 107.12 27.62 107.84 27.16C108.56 26.68 108.92 26.02 108.92 25.18C108.92 24.62 108.73 24.16 108.35 23.8C107.99 23.44 107.44 23.13 106.7 22.87C105.98 22.61 104.9 22.29 103.46 21.91C101.1 21.35 99.37 20.61 98.27 19.69C97.19 18.75 96.65 17.42 96.65 15.7C96.65 14.54 96.96 13.51 97.58 12.61C98.22 11.71 99.13 11 100.31 10.48C101.51 9.96 102.9 9.7 104.48 9.7C106.12 9.7 107.54 9.99 108.74 10.57C109.94 11.15 110.85 11.88 111.47 12.76C112.11 13.62 112.45 14.48 112.49 15.34C112.49 15.52 112.43 15.67 112.31 15.79C112.19 15.91 112.04 15.97 111.86 15.97H109.07C108.65 15.97 108.36 15.78 108.2 15.4C108.08 14.76 107.68 14.23 107 13.81C106.32 13.37 105.48 13.15 104.48 13.15C103.36 13.15 102.48 13.36 101.84 13.78C101.2 14.2 100.88 14.81 100.88 15.61C100.88 16.17 101.04 16.63 101.36 16.99C101.68 17.35 102.18 17.67 102.86 17.95C103.56 18.23 104.56 18.54 105.86 18.88C107.62 19.28 109.02 19.73 110.06 20.23C111.12 20.73 111.9 21.36 112.4 22.12C112.9 22.88 113.15 23.85 113.15 25.03C113.15 26.31 112.79 27.43 112.07 28.39C111.37 29.33 110.37 30.05 109.07 30.55C107.79 31.05 106.31 31.3 104.63 31.3ZM120.758 31.3C119.738 31.3 118.798 31.1 117.938 30.7C117.098 30.28 116.428 29.72 115.928 29.02C115.448 28.32 115.208 27.55 115.208 26.71C115.208 25.35 115.758 24.25 116.858 23.41C117.958 22.57 119.468 22 121.388 21.7L125.498 21.1V20.47C125.498 19.59 125.278 18.93 124.838 18.49C124.398 18.05 123.688 17.83 122.708 17.83C122.048 17.83 121.508 17.96 121.088 18.22C120.688 18.46 120.368 18.7 120.128 18.94C119.888 19.2 119.728 19.37 119.648 19.45C119.568 19.69 119.418 19.81 119.198 19.81H116.888C116.708 19.81 116.548 19.75 116.408 19.63C116.288 19.51 116.228 19.35 116.228 19.15C116.248 18.65 116.488 18.08 116.948 17.44C117.428 16.8 118.158 16.25 119.138 15.79C120.118 15.33 121.318 15.1 122.738 15.1C125.098 15.1 126.818 15.63 127.898 16.69C128.978 17.75 129.518 19.14 129.518 20.86V30.28C129.518 30.48 129.448 30.65 129.308 30.79C129.188 30.93 129.018 31 128.798 31H126.368C126.168 31 125.998 30.93 125.858 30.79C125.718 30.65 125.648 30.48 125.648 30.28V29.11C125.208 29.75 124.578 30.28 123.758 30.7C122.958 31.1 121.958 31.3 120.758 31.3ZM121.778 28.45C122.878 28.45 123.778 28.09 124.478 27.37C125.178 26.65 125.528 25.6 125.528 24.22V23.59L122.528 24.07C121.368 24.25 120.488 24.54 119.888 24.94C119.308 25.34 119.018 25.83 119.018 26.41C119.018 27.05 119.288 27.55 119.828 27.91C120.368 28.27 121.018 28.45 121.778 28.45ZM135.62 31C135.42 31 135.25 30.93 135.11 30.79C134.97 30.65 134.9 30.48 134.9 30.28V18.58H132.47C132.27 18.58 132.1 18.51 131.96 18.37C131.82 18.21 131.75 18.03 131.75 17.83V16.12C131.75 15.92 131.82 15.75 131.96 15.61C132.1 15.47 132.27 15.4 132.47 15.4H134.9V14.17C134.9 10.59 136.86 8.8 140.78 8.8H142.82C143.04 8.8 143.21 8.87 143.33 9.01C143.47 9.13 143.54 9.3 143.54 9.52V11.23C143.54 11.45 143.47 11.63 143.33 11.77C143.19 11.91 143.02 11.98 142.82 11.98H140.9C140.12 11.98 139.57 12.17 139.25 12.55C138.95 12.93 138.8 13.52 138.8 14.32V15.4H142.52C142.74 15.4 142.91 15.47 143.03 15.61C143.17 15.73 143.24 15.9 143.24 16.12V17.83C143.24 18.05 143.17 18.23 143.03 18.37C142.89 18.51 142.72 18.58 142.52 18.58H138.8V30.28C138.8 30.48 138.73 30.65 138.59 30.79C138.45 30.93 138.28 31 138.08 31H135.62ZM152.128 31.3C149.908 31.3 148.138 30.66 146.818 29.38C145.518 28.08 144.828 26.26 144.748 23.92L144.718 23.17L144.748 22.42C144.848 20.14 145.548 18.35 146.848 17.05C148.168 15.75 149.928 15.1 152.128 15.1C154.488 15.1 156.308 15.82 157.588 17.26C158.888 18.7 159.538 20.62 159.538 23.02V23.65C159.538 23.85 159.468 24.02 159.328 24.16C159.188 24.3 159.008 24.37 158.788 24.37H148.828V24.61C148.868 25.71 149.168 26.64 149.728 27.4C150.308 28.14 151.098 28.51 152.098 28.51C153.278 28.51 154.228 28.05 154.948 27.13C155.128 26.91 155.268 26.77 155.368 26.71C155.488 26.65 155.658 26.62 155.878 26.62H158.458C158.638 26.62 158.788 26.68 158.908 26.8C159.048 26.9 159.118 27.03 159.118 27.19C159.118 27.67 158.828 28.24 158.248 28.9C157.688 29.54 156.878 30.1 155.818 30.58C154.758 31.06 153.528 31.3 152.128 31.3ZM155.458 21.85V21.76C155.458 20.58 155.158 19.63 154.558 18.91C153.978 18.19 153.168 17.83 152.128 17.83C151.088 17.83 150.278 18.19 149.698 18.91C149.118 19.63 148.828 20.58 148.828 21.76V21.85H155.458ZM167.857 31C167.697 31 167.547 30.94 167.407 30.82C167.287 30.7 167.227 30.55 167.227 30.37L167.287 30.1L174.517 10.75C174.657 10.25 175.007 10 175.567 10H178.837C179.357 10 179.707 10.25 179.887 10.75L187.117 30.1C187.137 30.16 187.147 30.25 187.147 30.37C187.147 30.55 187.087 30.7 186.967 30.82C186.847 30.94 186.707 31 186.547 31H183.937C183.677 31 183.477 30.94 183.337 30.82C183.197 30.7 183.107 30.57 183.067 30.43L181.657 26.77H172.747L171.337 30.43C171.177 30.81 170.887 31 170.467 31H167.857ZM180.607 23.32L177.187 14.05L173.797 23.32H180.607ZM190.307 31C190.107 31 189.937 30.93 189.797 30.79C189.657 30.65 189.587 30.48 189.587 30.28V16.12C189.587 15.92 189.657 15.75 189.797 15.61C189.937 15.47 190.107 15.4 190.307 15.4H192.767C192.967 15.4 193.137 15.47 193.277 15.61C193.417 15.75 193.487 15.92 193.487 16.12V17.35C194.667 15.85 196.337 15.1 198.497 15.1C200.337 15.1 201.797 15.71 202.877 16.93C203.957 18.13 204.497 19.77 204.497 21.85V30.28C204.497 30.48 204.427 30.65 204.287 30.79C204.167 30.93 203.997 31 203.777 31H201.137C200.937 31 200.767 30.93 200.627 30.79C200.487 30.65 200.417 30.48 200.417 30.28V22.03C200.417 20.85 200.127 19.94 199.547 19.3C198.987 18.64 198.167 18.31 197.087 18.31C196.027 18.31 195.187 18.64 194.567 19.3C193.967 19.96 193.667 20.87 193.667 22.03V30.28C193.667 30.48 193.597 30.65 193.457 30.79C193.337 30.93 193.167 31 192.947 31H190.307ZM214.098 31.3C212.078 31.3 210.528 30.65 209.448 29.35C208.368 28.05 207.788 26.32 207.708 24.16L207.678 23.17L207.708 22.21C207.768 20.11 208.338 18.4 209.418 17.08C210.518 15.76 212.078 15.1 214.098 15.1C216.038 15.1 217.578 15.76 218.718 17.08V10.42C218.718 10.2 218.788 10.03 218.928 9.91C219.068 9.77 219.238 9.7 219.438 9.7H221.988C222.208 9.7 222.378 9.77 222.498 9.91C222.638 10.03 222.708 10.2 222.708 10.42V30.28C222.708 30.48 222.638 30.65 222.498 30.79C222.378 30.93 222.208 31 221.988 31H219.618C219.418 31 219.248 30.93 219.108 30.79C218.968 30.65 218.898 30.48 218.898 30.28V29.17C217.758 30.59 216.158 31.3 214.098 31.3ZM215.208 28.09C216.368 28.09 217.228 27.72 217.788 26.98C218.348 26.24 218.658 25.33 218.718 24.25C218.738 24.01 218.748 23.62 218.748 23.08C218.748 22.56 218.738 22.18 218.718 21.94C218.678 20.94 218.358 20.09 217.758 19.39C217.178 18.67 216.328 18.31 215.208 18.31C213.048 18.31 211.898 19.64 211.758 22.3L211.728 23.2L211.758 24.1C211.898 26.76 213.048 28.09 215.208 28.09ZM241.212 31.3C239.432 31.3 237.902 31.03 236.622 30.49C235.342 29.95 234.372 29.24 233.712 28.36C233.052 27.48 232.702 26.53 232.662 25.51C232.662 25.33 232.722 25.18 232.842 25.06C232.962 24.94 233.112 24.88 233.292 24.88H235.962C236.202 24.88 236.382 24.93 236.502 25.03C236.642 25.11 236.772 25.25 236.892 25.45C237.092 26.13 237.552 26.7 238.272 27.16C238.992 27.62 239.972 27.85 241.212 27.85C242.632 27.85 243.702 27.62 244.422 27.16C245.142 26.68 245.502 26.02 245.502 25.18C245.502 24.62 245.312 24.16 244.932 23.8C244.572 23.44 244.022 23.13 243.282 22.87C242.562 22.61 241.482 22.29 240.042 21.91C237.682 21.35 235.952 20.61 234.852 19.69C233.772 18.75 233.232 17.42 233.232 15.7C233.232 14.54 233.542 13.51 234.162 12.61C234.802 11.71 235.712 11 236.892 10.48C238.092 9.96 239.482 9.7 241.062 9.7C242.702 9.7 244.122 9.99 245.322 10.57C246.522 11.15 247.432 11.88 248.052 12.76C248.692 13.62 249.032 14.48 249.072 15.34C249.072 15.52 249.012 15.67 248.892 15.79C248.772 15.91 248.622 15.97 248.442 15.97H245.652C245.232 15.97 244.942 15.78 244.782 15.4C244.662 14.76 244.262 14.23 243.582 13.81C242.902 13.37 242.062 13.15 241.062 13.15C239.942 13.15 239.062 13.36 238.422 13.78C237.782 14.2 237.462 14.81 237.462 15.61C237.462 16.17 237.622 16.63 237.942 16.99C238.262 17.35 238.762 17.67 239.442 17.95C240.142 18.23 241.142 18.54 242.442 18.88C244.202 19.28 245.602 19.73 246.642 20.23C247.702 20.73 248.482 21.36 248.982 22.12C249.482 22.88 249.732 23.85 249.732 25.03C249.732 26.31 249.372 27.43 248.652 28.39C247.952 29.33 246.952 30.05 245.652 30.55C244.372 31.05 242.892 31.3 241.212 31.3ZM259.53 31.3C257.31 31.3 255.54 30.66 254.22 29.38C252.92 28.08 252.23 26.26 252.15 23.92L252.12 23.17L252.15 22.42C252.25 20.14 252.95 18.35 254.25 17.05C255.57 15.75 257.33 15.1 259.53 15.1C261.89 15.1 263.71 15.82 264.99 17.26C266.29 18.7 266.94 20.62 266.94 23.02V23.65C266.94 23.85 266.87 24.02 266.73 24.16C266.59 24.3 266.41 24.37 266.19 24.37H256.23V24.61C256.27 25.71 256.57 26.64 257.13 27.4C257.71 28.14 258.5 28.51 259.5 28.51C260.68 28.51 261.63 28.05 262.35 27.13C262.53 26.91 262.67 26.77 262.77 26.71C262.89 26.65 263.06 26.62 263.28 26.62H265.86C266.04 26.62 266.19 26.68 266.31 26.8C266.45 26.9 266.52 27.03 266.52 27.19C266.52 27.67 266.23 28.24 265.65 28.9C265.09 29.54 264.28 30.1 263.22 30.58C262.16 31.06 260.93 31.3 259.53 31.3ZM262.86 21.85V21.76C262.86 20.58 262.56 19.63 261.96 18.91C261.38 18.19 260.57 17.83 259.53 17.83C258.49 17.83 257.68 18.19 257.1 18.91C256.52 19.63 256.23 20.58 256.23 21.76V21.85H262.86ZM276.875 31.3C274.675 31.3 272.915 30.69 271.595 29.47C270.295 28.25 269.605 26.56 269.525 24.4L269.495 23.2L269.525 22C269.605 19.84 270.295 18.15 271.595 16.93C272.915 15.71 274.675 15.1 276.875 15.1C278.435 15.1 279.755 15.38 280.835 15.94C281.935 16.5 282.745 17.19 283.265 18.01C283.805 18.81 284.095 19.57 284.135 20.29C284.155 20.49 284.085 20.66 283.925 20.8C283.785 20.94 283.615 21.01 283.415 21.01H280.775C280.575 21.01 280.415 20.97 280.295 20.89C280.195 20.79 280.095 20.63 279.995 20.41C279.695 19.63 279.295 19.07 278.795 18.73C278.315 18.39 277.695 18.22 276.935 18.22C275.915 18.22 275.115 18.55 274.535 19.21C273.955 19.85 273.645 20.83 273.605 22.15L273.575 23.26L273.605 24.25C273.685 26.87 274.795 28.18 276.935 28.18C277.715 28.18 278.345 28.01 278.825 27.67C279.305 27.33 279.695 26.77 279.995 25.99C280.095 25.77 280.195 25.62 280.295 25.54C280.415 25.44 280.575 25.39 280.775 25.39H283.415C283.615 25.39 283.785 25.46 283.925 25.6C284.085 25.74 284.155 25.91 284.135 26.11C284.095 26.81 283.815 27.56 283.295 28.36C282.775 29.16 281.975 29.85 280.895 30.43C279.815 31.01 278.475 31.3 276.875 31.3ZM293.053 31.3C291.213 31.3 289.763 30.7 288.703 29.5C287.643 28.28 287.113 26.63 287.113 24.55V16.12C287.113 15.92 287.183 15.75 287.323 15.61C287.463 15.47 287.633 15.4 287.833 15.4H290.473C290.693 15.4 290.863 15.47 290.983 15.61C291.123 15.73 291.193 15.9 291.193 16.12V24.37C291.193 26.85 292.283 28.09 294.463 28.09C295.503 28.09 296.323 27.76 296.923 27.1C297.543 26.44 297.853 25.53 297.853 24.37V16.12C297.853 15.92 297.923 15.75 298.063 15.61C298.203 15.47 298.373 15.4 298.573 15.4H301.213C301.433 15.4 301.603 15.47 301.723 15.61C301.863 15.73 301.933 15.9 301.933 16.12V30.28C301.933 30.48 301.863 30.65 301.723 30.79C301.603 30.93 301.433 31 301.213 31H298.783C298.583 31 298.413 30.93 298.273 30.79C298.133 30.65 298.063 30.48 298.063 30.28V29.05C296.943 30.55 295.273 31.3 293.053 31.3ZM306.616 31C306.416 31 306.246 30.93 306.106 30.79C305.966 30.65 305.896 30.48 305.896 30.28V16.15C305.896 15.95 305.966 15.78 306.106 15.64C306.246 15.48 306.416 15.4 306.616 15.4H309.046C309.266 15.4 309.446 15.47 309.586 15.61C309.726 15.75 309.796 15.93 309.796 16.15V17.38C310.276 16.74 310.876 16.25 311.596 15.91C312.336 15.57 313.176 15.4 314.116 15.4H315.346C315.566 15.4 315.736 15.47 315.856 15.61C315.996 15.73 316.066 15.9 316.066 16.12V18.28C316.066 18.48 315.996 18.65 315.856 18.79C315.736 18.93 315.566 19 315.346 19H313.006C312.066 19 311.326 19.27 310.786 19.81C310.246 20.35 309.976 21.09 309.976 22.03V30.28C309.976 30.48 309.906 30.65 309.766 30.79C309.626 30.93 309.446 31 309.226 31H306.616ZM324.921 31.3C322.701 31.3 320.931 30.66 319.611 29.38C318.311 28.08 317.621 26.26 317.541 23.92L317.511 23.17L317.541 22.42C317.641 20.14 318.341 18.35 319.641 17.05C320.961 15.75 322.721 15.1 324.921 15.1C327.281 15.1 329.101 15.82 330.381 17.26C331.681 18.7 332.331 20.62 332.331 23.02V23.65C332.331 23.85 332.261 24.02 332.121 24.16C331.981 24.3 331.801 24.37 331.581 24.37H321.621V24.61C321.661 25.71 321.961 26.64 322.521 27.4C323.101 28.14 323.891 28.51 324.891 28.51C326.071 28.51 327.021 28.05 327.741 27.13C327.921 26.91 328.061 26.77 328.161 26.71C328.281 26.65 328.451 26.62 328.671 26.62H331.251C331.431 26.62 331.581 26.68 331.701 26.8C331.841 26.9 331.911 27.03 331.911 27.19C331.911 27.67 331.621 28.24 331.041 28.9C330.481 29.54 329.671 30.1 328.611 30.58C327.551 31.06 326.321 31.3 324.921 31.3ZM328.251 21.85V21.76C328.251 20.58 327.951 19.63 327.351 18.91C326.771 18.19 325.961 17.83 324.921 17.83C323.881 17.83 323.071 18.19 322.491 18.91C321.911 19.63 321.621 20.58 321.621 21.76V21.85H328.251ZM102.68 67C102.48 67 102.31 66.93 102.17 66.79C102.03 66.65 101.96 66.48 101.96 66.28V49.69H96.41C96.21 49.69 96.04 49.62 95.9 49.48C95.76 49.34 95.69 49.17 95.69 48.97V46.75C95.69 46.53 95.75 46.35 95.87 46.21C96.01 46.07 96.19 46 96.41 46H111.71C111.93 46 112.11 46.07 112.25 46.21C112.39 46.35 112.46 46.53 112.46 46.75V48.97C112.46 49.17 112.39 49.34 112.25 49.48C112.11 49.62 111.93 49.69 111.71 49.69H106.19V66.28C106.19 66.48 106.12 66.65 105.98 66.79C105.84 66.93 105.66 67 105.44 67H102.68ZM113.843 67C113.643 67 113.473 66.93 113.333 66.79C113.193 66.65 113.123 66.48 113.123 66.28V52.15C113.123 51.95 113.193 51.78 113.333 51.64C113.473 51.48 113.643 51.4 113.843 51.4H116.273C116.493 51.4 116.673 51.47 116.813 51.61C116.953 51.75 117.023 51.93 117.023 52.15V53.38C117.503 52.74 118.103 52.25 118.823 51.91C119.563 51.57 120.403 51.4 121.343 51.4H122.573C122.793 51.4 122.963 51.47 123.083 51.61C123.223 51.73 123.293 51.9 123.293 52.12V54.28C123.293 54.48 123.223 54.65 123.083 54.79C122.963 54.93 122.793 55 122.573 55H120.233C119.293 55 118.553 55.27 118.013 55.81C117.473 56.35 117.203 57.09 117.203 58.03V66.28C117.203 66.48 117.133 66.65 116.993 66.79C116.853 66.93 116.673 67 116.453 67H113.843ZM129.928 67.3C128.908 67.3 127.968 67.1 127.108 66.7C126.268 66.28 125.598 65.72 125.098 65.02C124.618 64.32 124.378 63.55 124.378 62.71C124.378 61.35 124.928 60.25 126.028 59.41C127.128 58.57 128.638 58 130.558 57.7L134.668 57.1V56.47C134.668 55.59 134.448 54.93 134.008 54.49C133.568 54.05 132.858 53.83 131.878 53.83C131.218 53.83 130.678 53.96 130.258 54.22C129.858 54.46 129.538 54.7 129.298 54.94C129.058 55.2 128.898 55.37 128.818 55.45C128.738 55.69 128.588 55.81 128.368 55.81H126.058C125.878 55.81 125.718 55.75 125.578 55.63C125.458 55.51 125.398 55.35 125.398 55.15C125.418 54.65 125.658 54.08 126.118 53.44C126.598 52.8 127.328 52.25 128.308 51.79C129.288 51.33 130.488 51.1 131.908 51.1C134.268 51.1 135.988 51.63 137.068 52.69C138.148 53.75 138.688 55.14 138.688 56.86V66.28C138.688 66.48 138.618 66.65 138.478 66.79C138.358 66.93 138.188 67 137.968 67H135.538C135.338 67 135.168 66.93 135.028 66.79C134.888 66.65 134.818 66.48 134.818 66.28V65.11C134.378 65.75 133.748 66.28 132.928 66.7C132.128 67.1 131.128 67.3 129.928 67.3ZM130.948 64.45C132.048 64.45 132.948 64.09 133.648 63.37C134.348 62.65 134.698 61.6 134.698 60.22V59.59L131.698 60.07C130.538 60.25 129.658 60.54 129.058 60.94C128.478 61.34 128.188 61.83 128.188 62.41C128.188 63.05 128.458 63.55 128.998 63.91C129.538 64.27 130.188 64.45 130.948 64.45ZM148.327 67.3C146.307 67.3 144.757 66.65 143.677 65.35C142.597 64.05 142.017 62.32 141.937 60.16L141.907 59.17L141.937 58.21C141.997 56.11 142.567 54.4 143.647 53.08C144.747 51.76 146.307 51.1 148.327 51.1C150.267 51.1 151.807 51.76 152.947 53.08V46.42C152.947 46.2 153.017 46.03 153.157 45.91C153.297 45.77 153.467 45.7 153.667 45.7H156.217C156.437 45.7 156.607 45.77 156.727 45.91C156.867 46.03 156.937 46.2 156.937 46.42V66.28C156.937 66.48 156.867 66.65 156.727 66.79C156.607 66.93 156.437 67 156.217 67H153.847C153.647 67 153.477 66.93 153.337 66.79C153.197 66.65 153.127 66.48 153.127 66.28V65.17C151.987 66.59 150.387 67.3 148.327 67.3ZM149.437 64.09C150.597 64.09 151.457 63.72 152.017 62.98C152.577 62.24 152.887 61.33 152.947 60.25C152.967 60.01 152.977 59.62 152.977 59.08C152.977 58.56 152.967 58.18 152.947 57.94C152.907 56.94 152.587 56.09 151.987 55.39C151.407 54.67 150.557 54.31 149.437 54.31C147.277 54.31 146.127 55.64 145.987 58.3L145.957 59.2L145.987 60.1C146.127 62.76 147.277 64.09 149.437 64.09ZM161.535 48.82C161.335 48.82 161.165 48.75 161.025 48.61C160.885 48.47 160.815 48.3 160.815 48.1V45.94C160.815 45.74 160.885 45.57 161.025 45.43C161.165 45.29 161.335 45.22 161.535 45.22H164.265C164.465 45.22 164.635 45.29 164.775 45.43C164.935 45.57 165.015 45.74 165.015 45.94V48.1C165.015 48.3 164.945 48.47 164.805 48.61C164.665 48.75 164.485 48.82 164.265 48.82H161.535ZM161.655 67C161.455 67 161.285 66.93 161.145 66.79C161.005 66.65 160.935 66.48 160.935 66.28V52.12C160.935 51.92 161.005 51.75 161.145 51.61C161.285 51.47 161.455 51.4 161.655 51.4H164.145C164.365 51.4 164.535 51.47 164.655 51.61C164.795 51.73 164.865 51.9 164.865 52.12V66.28C164.865 66.48 164.795 66.65 164.655 66.79C164.535 66.93 164.365 67 164.145 67H161.655ZM169.565 67C169.365 67 169.195 66.93 169.055 66.79C168.915 66.65 168.845 66.48 168.845 66.28V52.12C168.845 51.92 168.915 51.75 169.055 51.61C169.195 51.47 169.365 51.4 169.565 51.4H172.025C172.225 51.4 172.395 51.47 172.535 51.61C172.675 51.75 172.745 51.92 172.745 52.12V53.35C173.925 51.85 175.595 51.1 177.755 51.1C179.595 51.1 181.055 51.71 182.135 52.93C183.215 54.13 183.755 55.77 183.755 57.85V66.28C183.755 66.48 183.685 66.65 183.545 66.79C183.425 66.93 183.255 67 183.035 67H180.395C180.195 67 180.025 66.93 179.885 66.79C179.745 66.65 179.675 66.48 179.675 66.28V58.03C179.675 56.85 179.385 55.94 178.805 55.3C178.245 54.64 177.425 54.31 176.345 54.31C175.285 54.31 174.445 54.64 173.825 55.3C173.225 55.96 172.925 56.87 172.925 58.03V66.28C172.925 66.48 172.855 66.65 172.715 66.79C172.595 66.93 172.425 67 172.205 67H169.565ZM194.616 73.6C192.836 73.6 191.396 73.3 190.296 72.7C189.196 72.12 188.416 71.45 187.956 70.69C187.496 69.93 187.266 69.28 187.266 68.74C187.266 68.56 187.336 68.4 187.476 68.26C187.636 68.12 187.806 68.05 187.986 68.05H190.596C190.776 68.05 190.926 68.09 191.046 68.17C191.186 68.27 191.296 68.44 191.376 68.68C191.576 69.22 191.896 69.67 192.336 70.03C192.796 70.41 193.506 70.6 194.466 70.6C195.666 70.6 196.546 70.33 197.106 69.79C197.686 69.25 197.976 68.32 197.976 67V64.96C196.876 66.26 195.336 66.91 193.356 66.91C191.276 66.91 189.706 66.27 188.646 64.99C187.606 63.71 187.046 61.99 186.966 59.83L186.936 59.02L186.966 58.21C187.046 56.09 187.616 54.38 188.676 53.08C189.736 51.76 191.296 51.1 193.356 51.1C194.416 51.1 195.346 51.3 196.146 51.7C196.946 52.1 197.616 52.65 198.156 53.35V52.15C198.156 51.93 198.226 51.75 198.366 51.61C198.506 51.47 198.676 51.4 198.876 51.4H201.306C201.506 51.4 201.676 51.48 201.816 51.64C201.956 51.78 202.026 51.95 202.026 52.15L202.056 66.61C202.056 68.83 201.436 70.55 200.196 71.77C198.956 72.99 197.096 73.6 194.616 73.6ZM194.466 63.73C195.606 63.73 196.456 63.37 197.016 62.65C197.596 61.93 197.916 61.05 197.976 60.01C197.996 59.85 198.006 59.52 198.006 59.02C198.006 58.54 197.996 58.22 197.976 58.06C197.916 57 197.596 56.11 197.016 55.39C196.456 54.67 195.606 54.31 194.466 54.31C192.306 54.31 191.166 55.64 191.046 58.3L191.016 59.02C191.016 60.44 191.266 61.58 191.766 62.44C192.286 63.3 193.186 63.73 194.466 63.73ZM213.658 72.7C213.458 72.7 213.288 72.63 213.148 72.49C213.008 72.37 212.938 72.2 212.938 71.98V52.12C212.938 51.9 213.008 51.73 213.148 51.61C213.288 51.47 213.458 51.4 213.658 51.4H216.028C216.248 51.4 216.418 51.47 216.538 51.61C216.678 51.73 216.748 51.9 216.748 52.12V53.32C217.868 51.84 219.468 51.1 221.548 51.1C223.568 51.1 225.118 51.74 226.198 53.02C227.278 54.28 227.858 55.99 227.938 58.15C227.958 58.39 227.968 58.74 227.968 59.2C227.968 59.68 227.958 60.04 227.938 60.28C227.858 62.38 227.278 64.08 226.198 65.38C225.118 66.66 223.568 67.3 221.548 67.3C219.528 67.3 217.988 66.59 216.928 65.17V71.98C216.928 72.2 216.858 72.37 216.718 72.49C216.598 72.63 216.428 72.7 216.208 72.7H213.658ZM220.438 64.09C222.598 64.09 223.748 62.76 223.888 60.1C223.908 59.9 223.918 59.6 223.918 59.2C223.918 58.8 223.908 58.5 223.888 58.3C223.748 55.64 222.598 54.31 220.438 54.31C219.278 54.31 218.418 54.68 217.858 55.42C217.298 56.16 216.988 57.07 216.928 58.15L216.898 59.29L216.928 60.46C216.968 61.46 217.278 62.32 217.858 63.04C218.458 63.74 219.318 64.09 220.438 64.09ZM232.085 67C231.885 67 231.715 66.93 231.575 66.79C231.435 66.65 231.365 66.48 231.365 66.28V46.42C231.365 46.2 231.435 46.03 231.575 45.91C231.715 45.77 231.885 45.7 232.085 45.7H234.575C234.795 45.7 234.965 45.77 235.085 45.91C235.225 46.03 235.295 46.2 235.295 46.42V66.28C235.295 66.48 235.225 66.65 235.085 66.79C234.965 66.93 234.795 67 234.575 67H232.085ZM243.805 67.3C242.785 67.3 241.845 67.1 240.985 66.7C240.145 66.28 239.475 65.72 238.975 65.02C238.495 64.32 238.255 63.55 238.255 62.71C238.255 61.35 238.805 60.25 239.905 59.41C241.005 58.57 242.515 58 244.435 57.7L248.545 57.1V56.47C248.545 55.59 248.325 54.93 247.885 54.49C247.445 54.05 246.735 53.83 245.755 53.83C245.095 53.83 244.555 53.96 244.135 54.22C243.735 54.46 243.415 54.7 243.175 54.94C242.935 55.2 242.775 55.37 242.695 55.45C242.615 55.69 242.465 55.81 242.245 55.81H239.935C239.755 55.81 239.595 55.75 239.455 55.63C239.335 55.51 239.275 55.35 239.275 55.15C239.295 54.65 239.535 54.08 239.995 53.44C240.475 52.8 241.205 52.25 242.185 51.79C243.165 51.33 244.365 51.1 245.785 51.1C248.145 51.1 249.865 51.63 250.945 52.69C252.025 53.75 252.565 55.14 252.565 56.86V66.28C252.565 66.48 252.495 66.65 252.355 66.79C252.235 66.93 252.065 67 251.845 67H249.415C249.215 67 249.045 66.93 248.905 66.79C248.765 66.65 248.695 66.48 248.695 66.28V65.11C248.255 65.75 247.625 66.28 246.805 66.7C246.005 67.1 245.005 67.3 243.805 67.3ZM244.825 64.45C245.925 64.45 246.825 64.09 247.525 63.37C248.225 62.65 248.575 61.6 248.575 60.22V59.59L245.575 60.07C244.415 60.25 243.535 60.54 242.935 60.94C242.355 61.34 242.065 61.83 242.065 62.41C242.065 63.05 242.335 63.55 242.875 63.91C243.415 64.27 244.065 64.45 244.825 64.45ZM263.317 67C261.497 67 260.127 66.53 259.207 65.59C258.307 64.63 257.857 63.23 257.857 61.39V54.58H255.487C255.287 54.58 255.117 54.51 254.977 54.37C254.837 54.21 254.767 54.03 254.767 53.83V52.12C254.767 51.92 254.837 51.75 254.977 51.61C255.117 51.47 255.287 51.4 255.487 51.4H257.857V46.42C257.857 46.2 257.927 46.03 258.067 45.91C258.207 45.77 258.377 45.7 258.577 45.7H261.007C261.227 45.7 261.397 45.77 261.517 45.91C261.657 46.03 261.727 46.2 261.727 46.42V51.4H265.477C265.697 51.4 265.867 51.47 265.987 51.61C266.127 51.73 266.197 51.9 266.197 52.12V53.83C266.197 54.05 266.127 54.23 265.987 54.37C265.847 54.51 265.677 54.58 265.477 54.58H261.727V61.09C261.727 61.95 261.877 62.6 262.177 63.04C262.477 63.48 262.977 63.7 263.677 63.7H265.747C265.947 63.7 266.117 63.77 266.257 63.91C266.397 64.05 266.467 64.22 266.467 64.42V66.28C266.467 66.48 266.397 66.65 266.257 66.79C266.137 66.93 265.967 67 265.747 67H263.317ZM271.528 67C271.328 67 271.158 66.93 271.018 66.79C270.878 66.65 270.808 66.48 270.808 66.28V54.58H268.378C268.178 54.58 268.008 54.51 267.868 54.37C267.728 54.21 267.658 54.03 267.658 53.83V52.12C267.658 51.92 267.728 51.75 267.868 51.61C268.008 51.47 268.178 51.4 268.378 51.4H270.808V50.17C270.808 46.59 272.768 44.8 276.688 44.8H278.728C278.948 44.8 279.118 44.87 279.238 45.01C279.378 45.13 279.448 45.3 279.448 45.52V47.23C279.448 47.45 279.378 47.63 279.238 47.77C279.098 47.91 278.928 47.98 278.728 47.98H276.808C276.028 47.98 275.478 48.17 275.158 48.55C274.858 48.93 274.708 49.52 274.708 50.32V51.4H278.428C278.648 51.4 278.818 51.47 278.938 51.61C279.078 51.73 279.148 51.9 279.148 52.12V53.83C279.148 54.05 279.078 54.23 278.938 54.37C278.798 54.51 278.628 54.58 278.428 54.58H274.708V66.28C274.708 66.48 274.638 66.65 274.498 66.79C274.358 66.93 274.188 67 273.988 67H271.528ZM288.216 67.3C285.876 67.3 284.066 66.7 282.786 65.5C281.506 64.28 280.816 62.62 280.716 60.52L280.686 59.2L280.716 57.88C280.816 55.8 281.516 54.15 282.816 52.93C284.116 51.71 285.916 51.1 288.216 51.1C290.516 51.1 292.316 51.71 293.616 52.93C294.916 54.15 295.616 55.8 295.716 57.88C295.736 58.12 295.746 58.56 295.746 59.2C295.746 59.84 295.736 60.28 295.716 60.52C295.616 62.62 294.926 64.28 293.646 65.5C292.366 66.7 290.556 67.3 288.216 67.3ZM288.216 64.33C289.276 64.33 290.096 64 290.676 63.34C291.256 62.66 291.576 61.67 291.636 60.37C291.656 60.17 291.666 59.78 291.666 59.2C291.666 58.62 291.656 58.23 291.636 58.03C291.576 56.73 291.256 55.75 290.676 55.09C290.096 54.41 289.276 54.07 288.216 54.07C287.156 54.07 286.336 54.41 285.756 55.09C285.176 55.75 284.856 56.73 284.796 58.03L284.766 59.2L284.796 60.37C284.856 61.67 285.176 62.66 285.756 63.34C286.336 64 287.156 64.33 288.216 64.33ZM299.79 67C299.59 67 299.42 66.93 299.28 66.79C299.14 66.65 299.07 66.48 299.07 66.28V52.15C299.07 51.95 299.14 51.78 299.28 51.64C299.42 51.48 299.59 51.4 299.79 51.4H302.22C302.44 51.4 302.62 51.47 302.76 51.61C302.9 51.75 302.97 51.93 302.97 52.15V53.38C303.45 52.74 304.05 52.25 304.77 51.91C305.51 51.57 306.35 51.4 307.29 51.4H308.52C308.74 51.4 308.91 51.47 309.03 51.61C309.17 51.73 309.24 51.9 309.24 52.12V54.28C309.24 54.48 309.17 54.65 309.03 54.79C308.91 54.93 308.74 55 308.52 55H306.18C305.24 55 304.5 55.27 303.96 55.81C303.42 56.35 303.15 57.09 303.15 58.03V66.28C303.15 66.48 303.08 66.65 302.94 66.79C302.8 66.93 302.62 67 302.4 67H299.79ZM312.3 67C312.1 67 311.93 66.93 311.79 66.79C311.65 66.65 311.58 66.48 311.58 66.28V52.12C311.58 51.92 311.65 51.75 311.79 51.61C311.93 51.47 312.1 51.4 312.3 51.4H314.64C314.84 51.4 315.01 51.47 315.15 51.61C315.29 51.75 315.36 51.92 315.36 52.12V53.14C316.4 51.78 317.85 51.1 319.71 51.1C321.93 51.1 323.48 51.99 324.36 53.77C324.84 52.97 325.52 52.33 326.4 51.85C327.28 51.35 328.23 51.1 329.25 51.1C330.89 51.1 332.23 51.66 333.27 52.78C334.31 53.9 334.83 55.53 334.83 57.67V66.28C334.83 66.48 334.76 66.65 334.62 66.79C334.5 66.93 334.33 67 334.11 67H331.65C331.45 67 331.28 66.93 331.14 66.79C331 66.65 330.93 66.48 330.93 66.28V57.91C330.93 56.65 330.66 55.74 330.12 55.18C329.6 54.6 328.9 54.31 328.02 54.31C327.24 54.31 326.57 54.6 326.01 55.18C325.47 55.76 325.2 56.67 325.2 57.91V66.28C325.2 66.48 325.13 66.65 324.99 66.79C324.85 66.93 324.68 67 324.48 67H322.02C321.82 67 321.65 66.93 321.51 66.79C321.37 66.65 321.3 66.48 321.3 66.28V57.91C321.3 56.65 321.02 55.74 320.46 55.18C319.92 54.6 319.23 54.31 318.39 54.31C317.59 54.31 316.91 54.6 316.35 55.18C315.81 55.76 315.54 56.67 315.54 57.91V66.28C315.54 66.48 315.47 66.65 315.33 66.79C315.19 66.93 315.02 67 314.82 67H312.3Z" fill="white"/>
<path opacity="0.6" d="M2.64 121C2.48 121 2.344 120.952 2.232 120.856C2.136 120.744 2.088 120.608 2.088 120.448V104.776C2.088 104.6 2.136 104.464 2.232 104.368C2.344 104.256 2.48 104.2 2.64 104.2H12.552C12.712 104.2 12.84 104.256 12.936 104.368C13.048 104.464 13.104 104.6 13.104 104.776V105.688C13.104 105.848 13.056 105.984 12.96 106.096C12.864 106.192 12.728 106.24 12.552 106.24H4.392V111.496H12.024C12.184 111.496 12.312 111.552 12.408 111.664C12.52 111.76 12.576 111.896 12.576 112.072V112.96C12.576 113.12 12.52 113.256 12.408 113.368C12.312 113.464 12.184 113.512 12.024 113.512H4.392V118.96H12.744C12.92 118.96 13.056 119.008 13.152 119.104C13.248 119.2 13.296 119.336 13.296 119.512V120.448C13.296 120.608 13.24 120.744 13.128 120.856C13.032 120.952 12.904 121 12.744 121H2.64ZM20.8461 121.24C19.3261 121.24 18.1501 120.752 17.3181 119.776C16.4861 118.784 16.0701 117.472 16.0701 115.84V109.072C16.0701 108.912 16.1181 108.784 16.2141 108.688C16.3261 108.576 16.4621 108.52 16.6221 108.52H17.8221C17.9821 108.52 18.1101 108.576 18.2061 108.688C18.3181 108.784 18.3741 108.912 18.3741 109.072V115.72C18.3741 118.104 19.4141 119.296 21.4941 119.296C22.5021 119.296 23.3021 118.984 23.8941 118.36C24.4861 117.72 24.7821 116.84 24.7821 115.72V109.072C24.7821 108.912 24.8301 108.784 24.9261 108.688C25.0381 108.576 25.1741 108.52 25.3341 108.52H26.5341C26.6941 108.52 26.8221 108.576 26.9181 108.688C27.0141 108.784 27.0621 108.912 27.0621 109.072V120.448C27.0621 120.608 27.0141 120.744 26.9181 120.856C26.8221 120.952 26.6941 121 26.5341 121H25.4061C25.2461 121 25.1101 120.952 24.9981 120.856C24.9021 120.744 24.8541 120.608 24.8541 120.448V119.392C24.4061 120 23.8621 120.464 23.2221 120.784C22.5821 121.088 21.7901 121.24 20.8461 121.24ZM40.8668 121C38.3388 121 37.0748 119.592 37.0748 116.776V110.44H35.2028C35.0428 110.44 34.9068 110.392 34.7948 110.296C34.6988 110.184 34.6508 110.048 34.6508 109.888V109.072C34.6508 108.912 34.6988 108.784 34.7948 108.688C34.9068 108.576 35.0428 108.52 35.2028 108.52H37.0748V104.512C37.0748 104.352 37.1228 104.224 37.2188 104.128C37.3307 104.016 37.4668 103.96 37.6268 103.96H38.7548C38.9148 103.96 39.0428 104.016 39.1388 104.128C39.2508 104.224 39.3068 104.352 39.3068 104.512V108.52H42.2828C42.4428 108.52 42.5708 108.576 42.6668 108.688C42.7788 108.784 42.8348 108.912 42.8348 109.072V109.888C42.8348 110.048 42.7788 110.184 42.6668 110.296C42.5708 110.392 42.4428 110.44 42.2828 110.44H39.3068V116.608C39.3068 117.408 39.4428 118.016 39.7148 118.432C39.9868 118.832 40.4348 119.032 41.0588 119.032H42.5228C42.6828 119.032 42.8108 119.088 42.9068 119.2C43.0188 119.296 43.0748 119.424 43.0748 119.584V120.448C43.0748 120.608 43.0188 120.744 42.9068 120.856C42.8108 120.952 42.6828 121 42.5228 121H40.8668ZM50.3618 121.24C48.7138 121.24 47.3938 120.736 46.4018 119.728C45.4258 118.704 44.8898 117.312 44.7938 115.552L44.7698 114.736L44.7938 113.944C44.9058 112.216 45.4498 110.84 46.4258 109.816C47.4178 108.792 48.7218 108.28 50.3378 108.28C52.1138 108.28 53.4898 108.848 54.4658 109.984C55.4418 111.104 55.9297 112.624 55.9297 114.544V114.952C55.9297 115.112 55.8738 115.248 55.7618 115.36C55.6658 115.456 55.5378 115.504 55.3778 115.504H47.0738V115.72C47.1218 116.76 47.4338 117.648 48.0098 118.384C48.6018 119.104 49.3778 119.464 50.3378 119.464C51.0738 119.464 51.6738 119.32 52.1378 119.032C52.6178 118.728 52.9698 118.416 53.1938 118.096C53.3378 117.904 53.4418 117.792 53.5058 117.76C53.5858 117.712 53.7218 117.688 53.9138 117.688H55.0898C55.2338 117.688 55.3538 117.728 55.4498 117.808C55.5458 117.888 55.5938 118 55.5938 118.144C55.5938 118.496 55.3698 118.92 54.9218 119.416C54.4898 119.912 53.8738 120.344 53.0738 120.712C52.2898 121.064 51.3858 121.24 50.3618 121.24ZM53.6498 113.848V113.776C53.6498 112.672 53.3458 111.776 52.7378 111.088C52.1458 110.384 51.3458 110.032 50.3378 110.032C49.3298 110.032 48.5298 110.384 47.9378 111.088C47.3618 111.776 47.0738 112.672 47.0738 113.776V113.848H53.6498ZM59.3754 121C59.2154 121 59.0794 120.952 58.9674 120.856C58.8714 120.744 58.8234 120.608 58.8234 120.448V104.512C58.8234 104.352 58.8714 104.224 58.9674 104.128C59.0794 104.016 59.2154 103.96 59.3754 103.96H60.5034C60.6634 103.96 60.7914 104.016 60.8874 104.128C60.9994 104.224 61.0554 104.352 61.0554 104.512V120.448C61.0554 120.608 60.9994 120.744 60.8874 120.856C60.7914 120.952 60.6634 121 60.5034 121H59.3754ZM65.2114 121C65.0514 121 64.9154 120.952 64.8034 120.856C64.7074 120.744 64.6594 120.608 64.6594 120.448V104.512C64.6594 104.352 64.7074 104.224 64.8034 104.128C64.9154 104.016 65.0514 103.96 65.2114 103.96H66.3394C66.4994 103.96 66.6274 104.016 66.7234 104.128C66.8354 104.224 66.8914 104.352 66.8914 104.512V120.448C66.8914 120.608 66.8354 120.744 66.7234 120.856C66.6274 120.952 66.4994 121 66.3394 121H65.2114ZM75.1273 121.24C73.6073 121.24 72.4313 120.752 71.5993 119.776C70.7673 118.784 70.3513 117.472 70.3513 115.84V109.072C70.3513 108.912 70.3993 108.784 70.4953 108.688C70.6073 108.576 70.7433 108.52 70.9033 108.52H72.1033C72.2633 108.52 72.3913 108.576 72.4873 108.688C72.5993 108.784 72.6553 108.912 72.6553 109.072V115.72C72.6553 118.104 73.6953 119.296 75.7753 119.296C76.7833 119.296 77.5833 118.984 78.1753 118.36C78.7673 117.72 79.0633 116.84 79.0633 115.72V109.072C79.0633 108.912 79.1113 108.784 79.2073 108.688C79.3193 108.576 79.4553 108.52 79.6153 108.52H80.8153C80.9753 108.52 81.1033 108.576 81.1993 108.688C81.2953 108.784 81.3433 108.912 81.3433 109.072V120.448C81.3433 120.608 81.2953 120.744 81.1993 120.856C81.1033 120.952 80.9753 121 80.8153 121H79.6873C79.5273 121 79.3913 120.952 79.2793 120.856C79.1833 120.744 79.1353 120.608 79.1353 120.448V119.392C78.6873 120 78.1433 120.464 77.5033 120.784C76.8633 121.088 76.0713 121.24 75.1273 121.24ZM89.2288 121.24C88.1088 121.24 87.1648 121.064 86.3968 120.712C85.6448 120.344 85.0768 119.928 84.6928 119.464C84.3248 119 84.1408 118.616 84.1408 118.312C84.1408 118.152 84.1968 118.032 84.3088 117.952C84.4368 117.856 84.5648 117.808 84.6928 117.808H85.7728C85.9328 117.808 86.0768 117.888 86.2048 118.048C86.5888 118.496 87.0048 118.848 87.4528 119.104C87.9008 119.36 88.5008 119.488 89.2528 119.488C90.0848 119.488 90.7568 119.328 91.2688 119.008C91.7968 118.672 92.0608 118.216 92.0608 117.64C92.0608 117.256 91.9488 116.944 91.7248 116.704C91.5168 116.448 91.1488 116.232 90.6208 116.056C90.1088 115.864 89.3408 115.656 88.3168 115.432C86.9248 115.128 85.9328 114.688 85.3408 114.112C84.7648 113.536 84.4768 112.792 84.4768 111.88C84.4768 111.272 84.6528 110.696 85.0048 110.152C85.3728 109.592 85.9008 109.144 86.5888 108.808C87.2928 108.456 88.1328 108.28 89.1088 108.28C90.1328 108.28 91.0048 108.448 91.7248 108.784C92.4448 109.12 92.9808 109.52 93.3328 109.984C93.7008 110.432 93.8848 110.808 93.8848 111.112C93.8848 111.256 93.8288 111.376 93.7168 111.472C93.6208 111.568 93.5008 111.616 93.3568 111.616H92.3488C92.1568 111.616 91.9968 111.536 91.8688 111.376C91.6128 111.072 91.3888 110.84 91.1968 110.68C91.0208 110.504 90.7568 110.352 90.4048 110.224C90.0688 110.096 89.6368 110.032 89.1088 110.032C88.3408 110.032 87.7488 110.2 87.3328 110.536C86.9168 110.856 86.7088 111.28 86.7088 111.808C86.7088 112.144 86.7968 112.432 86.9728 112.672C87.1488 112.896 87.4848 113.104 87.9808 113.296C88.4928 113.488 89.2288 113.688 90.1888 113.896C91.7088 114.216 92.7808 114.68 93.4048 115.288C94.0448 115.88 94.3648 116.64 94.3648 117.568C94.3648 118.256 94.1648 118.88 93.7648 119.44C93.3648 120 92.7728 120.44 91.9888 120.76C91.2208 121.08 90.3008 121.24 89.2288 121.24ZM112.05 125.56C111.89 125.56 111.754 125.504 111.642 125.392C111.546 125.296 111.498 125.168 111.498 125.008V119.44C110.57 120.64 109.274 121.24 107.61 121.24C105.946 121.24 104.69 120.712 103.842 119.656C102.994 118.584 102.546 117.224 102.498 115.576L102.474 114.76L102.498 113.944C102.546 112.28 102.986 110.92 103.818 109.864C104.666 108.808 105.93 108.28 107.61 108.28C109.338 108.28 110.65 108.896 111.546 110.128V109.072C111.546 108.912 111.594 108.784 111.69 108.688C111.802 108.576 111.938 108.52 112.098 108.52H113.202C113.362 108.52 113.49 108.576 113.586 108.688C113.698 108.784 113.754 108.912 113.754 109.072V125.008C113.754 125.168 113.698 125.296 113.586 125.392C113.49 125.504 113.362 125.56 113.202 125.56H112.05ZM108.114 119.296C109.186 119.296 110.01 118.944 110.586 118.24C111.162 117.536 111.466 116.712 111.498 115.768C111.514 115.592 111.522 115.28 111.522 114.832C111.522 114.384 111.514 114.08 111.498 113.92C111.45 112.912 111.146 112.048 110.586 111.328C110.042 110.592 109.218 110.224 108.114 110.224C106.978 110.224 106.146 110.576 105.618 111.28C105.106 111.984 104.826 112.912 104.778 114.064L104.754 114.76C104.754 117.784 105.874 119.296 108.114 119.296ZM121.979 121.24C120.459 121.24 119.283 120.752 118.451 119.776C117.619 118.784 117.203 117.472 117.203 115.84V109.072C117.203 108.912 117.251 108.784 117.347 108.688C117.459 108.576 117.595 108.52 117.755 108.52H118.955C119.115 108.52 119.243 108.576 119.339 108.688C119.451 108.784 119.507 108.912 119.507 109.072V115.72C119.507 118.104 120.547 119.296 122.627 119.296C123.635 119.296 124.435 118.984 125.027 118.36C125.619 117.72 125.915 116.84 125.915 115.72V109.072C125.915 108.912 125.963 108.784 126.059 108.688C126.171 108.576 126.307 108.52 126.467 108.52H127.667C127.827 108.52 127.955 108.576 128.051 108.688C128.147 108.784 128.195 108.912 128.195 109.072V120.448C128.195 120.608 128.147 120.744 128.051 120.856C127.955 120.952 127.827 121 127.667 121H126.539C126.379 121 126.243 120.952 126.131 120.856C126.035 120.744 125.987 120.608 125.987 120.448V119.392C125.539 120 124.995 120.464 124.355 120.784C123.715 121.088 122.923 121.24 121.979 121.24ZM135.24 121.24C134.456 121.24 133.728 121.08 133.056 120.76C132.384 120.44 131.848 120.008 131.448 119.464C131.064 118.904 130.872 118.288 130.872 117.616C130.872 116.56 131.304 115.696 132.168 115.024C133.048 114.336 134.232 113.888 135.72 113.68L139.296 113.176V112.48C139.296 110.848 138.36 110.032 136.488 110.032C135.784 110.032 135.208 110.184 134.76 110.488C134.312 110.776 133.976 111.12 133.752 111.52C133.704 111.664 133.64 111.768 133.56 111.832C133.496 111.896 133.4 111.928 133.272 111.928H132.24C132.096 111.928 131.968 111.88 131.856 111.784C131.76 111.672 131.712 111.544 131.712 111.4C131.728 111.016 131.904 110.584 132.24 110.104C132.592 109.608 133.128 109.184 133.848 108.832C134.568 108.464 135.456 108.28 136.512 108.28C138.304 108.28 139.592 108.704 140.376 109.552C141.16 110.384 141.552 111.424 141.552 112.672V120.448C141.552 120.608 141.496 120.744 141.384 120.856C141.288 120.952 141.16 121 141 121H139.896C139.736 121 139.6 120.952 139.488 120.856C139.392 120.744 139.344 120.608 139.344 120.448V119.416C138.992 119.928 138.48 120.36 137.808 120.712C137.136 121.064 136.28 121.24 135.24 121.24ZM135.744 119.44C136.784 119.44 137.632 119.104 138.288 118.432C138.96 117.744 139.296 116.76 139.296 115.48V114.808L136.512 115.216C135.376 115.376 134.52 115.648 133.944 116.032C133.368 116.4 133.08 116.872 133.08 117.448C133.08 118.088 133.344 118.584 133.872 118.936C134.4 119.272 135.024 119.44 135.744 119.44ZM145.555 121C145.395 121 145.259 120.952 145.147 120.856C145.051 120.744 145.003 120.608 145.003 120.448V109.072C145.003 108.912 145.051 108.784 145.147 108.688C145.259 108.576 145.395 108.52 145.555 108.52H146.635C146.795 108.52 146.923 108.576 147.019 108.688C147.131 108.784 147.187 108.912 147.187 109.072V109.912C148.019 108.824 149.179 108.28 150.667 108.28C152.443 108.28 153.699 109.016 154.435 110.488C154.819 109.816 155.363 109.28 156.067 108.88C156.771 108.48 157.563 108.28 158.443 108.28C159.755 108.28 160.827 108.728 161.659 109.624C162.491 110.52 162.907 111.816 162.907 113.512V120.448C162.907 120.608 162.851 120.744 162.739 120.856C162.643 120.952 162.515 121 162.355 121H161.227C161.067 121 160.931 120.952 160.819 120.856C160.723 120.744 160.675 120.608 160.675 120.448V113.728C160.675 112.48 160.411 111.584 159.883 111.04C159.371 110.496 158.691 110.224 157.843 110.224C157.091 110.224 156.443 110.504 155.899 111.064C155.355 111.608 155.083 112.496 155.083 113.728V120.448C155.083 120.608 155.027 120.744 154.915 120.856C154.819 120.952 154.691 121 154.531 121H153.403C153.243 121 153.107 120.952 152.995 120.856C152.899 120.744 152.851 120.608 152.851 120.448V113.728C152.851 112.48 152.579 111.584 152.035 111.04C151.507 110.496 150.835 110.224 150.019 110.224C149.267 110.224 148.619 110.504 148.075 111.064C147.531 111.608 147.259 112.488 147.259 113.704V120.448C147.259 120.608 147.203 120.744 147.091 120.856C146.995 120.952 146.867 121 146.707 121H145.555ZM172.574 106.192C172.414 106.192 172.278 106.144 172.166 106.048C172.07 105.936 172.021 105.8 172.021 105.64V104.344C172.021 104.184 172.07 104.048 172.166 103.936C172.278 103.824 172.414 103.768 172.574 103.768H174.086C174.246 103.768 174.382 103.824 174.494 103.936C174.606 104.048 174.662 104.184 174.662 104.344V105.64C174.662 105.8 174.606 105.936 174.494 106.048C174.382 106.144 174.246 106.192 174.086 106.192H172.574ZM172.766 121C172.606 121 172.47 120.952 172.358 120.856C172.262 120.744 172.214 120.608 172.214 120.448V109.072C172.214 108.912 172.262 108.784 172.358 108.688C172.47 108.576 172.606 108.52 172.766 108.52H173.918C174.078 108.52 174.206 108.576 174.302 108.688C174.414 108.784 174.47 108.912 174.47 109.072V120.448C174.47 120.608 174.414 120.744 174.302 120.856C174.206 120.952 174.078 121 173.918 121H172.766ZM182.586 121.24C180.922 121.24 179.666 120.696 178.818 119.608C177.97 118.52 177.522 117.144 177.474 115.48L177.45 114.76L177.474 114.04C177.522 112.392 177.97 111.024 178.818 109.936C179.666 108.832 180.922 108.28 182.586 108.28C184.234 108.28 185.53 108.864 186.474 110.032V104.512C186.474 104.352 186.522 104.224 186.618 104.128C186.73 104.016 186.866 103.96 187.026 103.96H188.178C188.338 103.96 188.466 104.016 188.562 104.128C188.674 104.224 188.73 104.352 188.73 104.512V120.448C188.73 120.608 188.674 120.744 188.562 120.856C188.466 120.952 188.338 121 188.178 121H187.098C186.938 121 186.802 120.952 186.69 120.856C186.594 120.744 186.546 120.608 186.546 120.448V119.44C185.618 120.64 184.298 121.24 182.586 121.24ZM183.09 119.296C184.194 119.296 185.018 118.936 185.562 118.216C186.122 117.48 186.426 116.608 186.474 115.6C186.49 115.424 186.498 115.12 186.498 114.688C186.498 114.24 186.49 113.928 186.474 113.752C186.442 112.808 186.138 111.984 185.562 111.28C184.986 110.576 184.162 110.224 183.09 110.224C181.954 110.224 181.122 110.576 180.594 111.28C180.082 111.984 179.802 112.912 179.754 114.064L179.73 114.76C179.73 117.784 180.85 119.296 183.09 119.296ZM202.502 121.24C201.382 121.24 200.438 121.064 199.67 120.712C198.918 120.344 198.35 119.928 197.966 119.464C197.598 119 197.414 118.616 197.414 118.312C197.414 118.152 197.47 118.032 197.582 117.952C197.71 117.856 197.838 117.808 197.966 117.808H199.046C199.206 117.808 199.35 117.888 199.478 118.048C199.862 118.496 200.278 118.848 200.726 119.104C201.174 119.36 201.774 119.488 202.526 119.488C203.358 119.488 204.03 119.328 204.542 119.008C205.07 118.672 205.334 118.216 205.334 117.64C205.334 117.256 205.222 116.944 204.998 116.704C204.79 116.448 204.422 116.232 203.894 116.056C203.382 115.864 202.614 115.656 201.59 115.432C200.198 115.128 199.206 114.688 198.614 114.112C198.038 113.536 197.75 112.792 197.75 111.88C197.75 111.272 197.926 110.696 198.278 110.152C198.646 109.592 199.174 109.144 199.862 108.808C200.566 108.456 201.406 108.28 202.382 108.28C203.406 108.28 204.278 108.448 204.998 108.784C205.718 109.12 206.254 109.52 206.606 109.984C206.974 110.432 207.158 110.808 207.158 111.112C207.158 111.256 207.102 111.376 206.99 111.472C206.894 111.568 206.774 111.616 206.63 111.616H205.622C205.43 111.616 205.27 111.536 205.142 111.376C204.886 111.072 204.662 110.84 204.47 110.68C204.294 110.504 204.03 110.352 203.678 110.224C203.342 110.096 202.91 110.032 202.382 110.032C201.614 110.032 201.022 110.2 200.606 110.536C200.19 110.856 199.982 111.28 199.982 111.808C199.982 112.144 200.07 112.432 200.246 112.672C200.422 112.896 200.758 113.104 201.254 113.296C201.766 113.488 202.502 113.688 203.462 113.896C204.982 114.216 206.054 114.68 206.678 115.288C207.318 115.88 207.638 116.64 207.638 117.568C207.638 118.256 207.438 118.88 207.038 119.44C206.638 120 206.046 120.44 205.262 120.76C204.494 121.08 203.574 121.24 202.502 121.24ZM215.409 121.24C213.761 121.24 212.441 120.736 211.449 119.728C210.473 118.704 209.937 117.312 209.841 115.552L209.817 114.736L209.841 113.944C209.953 112.216 210.497 110.84 211.473 109.816C212.465 108.792 213.769 108.28 215.385 108.28C217.161 108.28 218.537 108.848 219.513 109.984C220.489 111.104 220.977 112.624 220.977 114.544V114.952C220.977 115.112 220.921 115.248 220.809 115.36C220.713 115.456 220.585 115.504 220.425 115.504H212.121V115.72C212.169 116.76 212.481 117.648 213.057 118.384C213.649 119.104 214.425 119.464 215.385 119.464C216.121 119.464 216.721 119.32 217.185 119.032C217.665 118.728 218.017 118.416 218.241 118.096C218.385 117.904 218.489 117.792 218.553 117.76C218.633 117.712 218.769 117.688 218.961 117.688H220.137C220.281 117.688 220.401 117.728 220.497 117.808C220.593 117.888 220.641 118 220.641 118.144C220.641 118.496 220.417 118.92 219.969 119.416C219.537 119.912 218.921 120.344 218.121 120.712C217.337 121.064 216.433 121.24 215.409 121.24ZM218.697 113.848V113.776C218.697 112.672 218.393 111.776 217.785 111.088C217.193 110.384 216.393 110.032 215.385 110.032C214.377 110.032 213.577 110.384 212.985 111.088C212.409 111.776 212.121 112.672 212.121 113.776V113.848H218.697ZM228.406 121.24C226.742 121.24 225.486 120.696 224.638 119.608C223.79 118.52 223.342 117.144 223.294 115.48L223.27 114.76L223.294 114.04C223.342 112.392 223.79 111.024 224.638 109.936C225.486 108.832 226.742 108.28 228.406 108.28C230.054 108.28 231.35 108.864 232.294 110.032V104.512C232.294 104.352 232.342 104.224 232.438 104.128C232.55 104.016 232.686 103.96 232.846 103.96H233.998C234.158 103.96 234.286 104.016 234.382 104.128C234.494 104.224 234.55 104.352 234.55 104.512V120.448C234.55 120.608 234.494 120.744 234.382 120.856C234.286 120.952 234.158 121 233.998 121H232.918C232.758 121 232.622 120.952 232.51 120.856C232.414 120.744 232.366 120.608 232.366 120.448V119.44C231.438 120.64 230.118 121.24 228.406 121.24ZM228.91 119.296C230.014 119.296 230.838 118.936 231.382 118.216C231.942 117.48 232.246 116.608 232.294 115.6C232.31 115.424 232.318 115.12 232.318 114.688C232.318 114.24 232.31 113.928 232.294 113.752C232.262 112.808 231.958 111.984 231.382 111.28C230.806 110.576 229.982 110.224 228.91 110.224C227.774 110.224 226.942 110.576 226.414 111.28C225.902 111.984 225.622 112.912 225.574 114.064L225.55 114.76C225.55 117.784 226.67 119.296 228.91 119.296ZM248.659 121.24C247.139 121.24 245.963 120.752 245.131 119.776C244.299 118.784 243.883 117.472 243.883 115.84V109.072C243.883 108.912 243.931 108.784 244.027 108.688C244.139 108.576 244.275 108.52 244.435 108.52H245.635C245.795 108.52 245.923 108.576 246.019 108.688C246.131 108.784 246.187 108.912 246.187 109.072V115.72C246.187 118.104 247.227 119.296 249.307 119.296C250.315 119.296 251.115 118.984 251.707 118.36C252.299 117.72 252.595 116.84 252.595 115.72V109.072C252.595 108.912 252.643 108.784 252.739 108.688C252.851 108.576 252.987 108.52 253.147 108.52H254.347C254.507 108.52 254.635 108.576 254.731 108.688C254.827 108.784 254.875 108.912 254.875 109.072V120.448C254.875 120.608 254.827 120.744 254.731 120.856C254.635 120.952 254.507 121 254.347 121H253.219C253.059 121 252.923 120.952 252.811 120.856C252.715 120.744 252.667 120.608 252.667 120.448V119.392C252.219 120 251.675 120.464 251.035 120.784C250.395 121.088 249.603 121.24 248.659 121.24ZM259.016 121C258.856 121 258.72 120.952 258.608 120.856C258.512 120.744 258.464 120.608 258.464 120.448V104.512C258.464 104.352 258.512 104.224 258.608 104.128C258.72 104.016 258.856 103.96 259.016 103.96H260.144C260.304 103.96 260.432 104.016 260.528 104.128C260.64 104.224 260.696 104.352 260.696 104.512V120.448C260.696 120.608 260.64 120.744 260.528 120.856C260.432 120.952 260.304 121 260.144 121H259.016ZM269.148 121C266.62 121 265.356 119.592 265.356 116.776V110.44H263.484C263.324 110.44 263.188 110.392 263.076 110.296C262.98 110.184 262.932 110.048 262.932 109.888V109.072C262.932 108.912 262.98 108.784 263.076 108.688C263.188 108.576 263.324 108.52 263.484 108.52H265.356V104.512C265.356 104.352 265.404 104.224 265.5 104.128C265.612 104.016 265.748 103.96 265.908 103.96H267.036C267.196 103.96 267.324 104.016 267.42 104.128C267.532 104.224 267.588 104.352 267.588 104.512V108.52H270.564C270.724 108.52 270.852 108.576 270.948 108.688C271.06 108.784 271.116 108.912 271.116 109.072V109.888C271.116 110.048 271.06 110.184 270.948 110.296C270.852 110.392 270.724 110.44 270.564 110.44H267.588V116.608C267.588 117.408 267.724 118.016 267.996 118.432C268.268 118.832 268.716 119.032 269.34 119.032H270.804C270.964 119.032 271.092 119.088 271.188 119.2C271.3 119.296 271.356 119.424 271.356 119.584V120.448C271.356 120.608 271.3 120.744 271.188 120.856C271.092 120.952 270.964 121 270.804 121H269.148ZM274.203 121C274.043 121 273.907 120.952 273.795 120.856C273.699 120.744 273.651 120.608 273.651 120.448V109.096C273.651 108.936 273.699 108.8 273.795 108.688C273.907 108.576 274.043 108.52 274.203 108.52H275.307C275.467 108.52 275.603 108.576 275.715 108.688C275.827 108.8 275.883 108.936 275.883 109.096V110.152C276.539 109.064 277.659 108.52 279.243 108.52H280.179C280.339 108.52 280.467 108.576 280.563 108.688C280.675 108.784 280.731 108.912 280.731 109.072V110.056C280.731 110.216 280.675 110.344 280.563 110.44C280.467 110.536 280.339 110.584 280.179 110.584H278.739C277.875 110.584 277.195 110.84 276.699 111.352C276.203 111.848 275.955 112.528 275.955 113.392V120.448C275.955 120.608 275.899 120.744 275.787 120.856C275.675 120.952 275.539 121 275.379 121H274.203ZM283.128 106.192C282.968 106.192 282.832 106.144 282.72 106.048C282.624 105.936 282.576 105.8 282.576 105.64V104.344C282.576 104.184 282.624 104.048 282.72 103.936C282.832 103.824 282.968 103.768 283.128 103.768H284.64C284.8 103.768 284.936 103.824 285.048 103.936C285.16 104.048 285.216 104.184 285.216 104.344V105.64C285.216 105.8 285.16 105.936 285.048 106.048C284.936 106.144 284.8 106.192 284.64 106.192H283.128ZM283.32 121C283.16 121 283.024 120.952 282.912 120.856C282.816 120.744 282.768 120.608 282.768 120.448V109.072C282.768 108.912 282.816 108.784 282.912 108.688C283.024 108.576 283.16 108.52 283.32 108.52H284.472C284.632 108.52 284.76 108.576 284.856 108.688C284.968 108.784 285.024 108.912 285.024 109.072V120.448C285.024 120.608 284.968 120.744 284.856 120.856C284.76 120.952 284.632 121 284.472 121H283.32ZM293.621 121.24C291.909 121.24 290.565 120.76 289.589 119.8C288.629 118.824 288.117 117.464 288.053 115.72L288.029 114.76L288.053 113.8C288.117 112.056 288.629 110.704 289.589 109.744C290.565 108.768 291.909 108.28 293.621 108.28C294.773 108.28 295.749 108.488 296.549 108.904C297.349 109.32 297.941 109.832 298.325 110.44C298.725 111.048 298.941 111.656 298.973 112.264C298.989 112.424 298.941 112.552 298.829 112.648C298.717 112.744 298.581 112.792 298.421 112.792H297.269C297.109 112.792 296.989 112.76 296.909 112.696C296.829 112.632 296.749 112.504 296.669 112.312C296.397 111.544 296.013 111 295.517 110.68C295.021 110.344 294.397 110.176 293.645 110.176C292.653 110.176 291.861 110.488 291.269 111.112C290.693 111.72 290.381 112.656 290.333 113.92L290.309 114.784L290.333 115.6C290.381 116.88 290.693 117.824 291.269 118.432C291.845 119.04 292.637 119.344 293.645 119.344C294.397 119.344 295.021 119.184 295.517 118.864C296.013 118.528 296.397 117.976 296.669 117.208C296.749 117.016 296.829 116.888 296.909 116.824C296.989 116.744 297.109 116.704 297.269 116.704H298.421C298.581 116.704 298.717 116.76 298.829 116.872C298.941 116.968 298.989 117.096 298.973 117.256C298.941 117.848 298.725 118.456 298.325 119.08C297.941 119.688 297.349 120.2 296.549 120.616C295.765 121.032 294.789 121.24 293.621 121.24ZM306.815 121.24C305.167 121.24 303.847 120.736 302.855 119.728C301.879 118.704 301.343 117.312 301.247 115.552L301.223 114.736L301.247 113.944C301.359 112.216 301.903 110.84 302.879 109.816C303.871 108.792 305.175 108.28 306.791 108.28C308.567 108.28 309.943 108.848 310.919 109.984C311.895 111.104 312.383 112.624 312.383 114.544V114.952C312.383 115.112 312.327 115.248 312.215 115.36C312.119 115.456 311.991 115.504 311.831 115.504H303.527V115.72C303.575 116.76 303.887 117.648 304.463 118.384C305.055 119.104 305.831 119.464 306.791 119.464C307.527 119.464 308.127 119.32 308.591 119.032C309.071 118.728 309.423 118.416 309.647 118.096C309.791 117.904 309.895 117.792 309.959 117.76C310.039 117.712 310.175 117.688 310.367 117.688H311.543C311.687 117.688 311.807 117.728 311.903 117.808C311.999 117.888 312.047 118 312.047 118.144C312.047 118.496 311.823 118.92 311.375 119.416C310.943 119.912 310.327 120.344 309.527 120.712C308.743 121.064 307.839 121.24 306.815 121.24ZM310.103 113.848V113.776C310.103 112.672 309.799 111.776 309.191 111.088C308.599 110.384 307.799 110.032 306.791 110.032C305.783 110.032 304.983 110.384 304.391 111.088C303.815 111.776 303.527 112.672 303.527 113.776V113.848H310.103ZM319.573 121.24C318.453 121.24 317.509 121.064 316.741 120.712C315.989 120.344 315.421 119.928 315.037 119.464C314.669 119 314.485 118.616 314.485 118.312C314.485 118.152 314.541 118.032 314.653 117.952C314.781 117.856 314.909 117.808 315.037 117.808H316.117C316.277 117.808 316.421 117.888 316.549 118.048C316.933 118.496 317.349 118.848 317.797 119.104C318.245 119.36 318.845 119.488 319.597 119.488C320.429 119.488 321.101 119.328 321.613 119.008C322.141 118.672 322.405 118.216 322.405 117.64C322.405 117.256 322.293 116.944 322.069 116.704C321.861 116.448 321.493 116.232 320.965 116.056C320.453 115.864 319.685 115.656 318.661 115.432C317.269 115.128 316.277 114.688 315.685 114.112C315.109 113.536 314.821 112.792 314.821 111.88C314.821 111.272 314.997 110.696 315.349 110.152C315.717 109.592 316.245 109.144 316.933 108.808C317.637 108.456 318.477 108.28 319.453 108.28C320.477 108.28 321.349 108.448 322.069 108.784C322.789 109.12 323.325 109.52 323.677 109.984C324.045 110.432 324.229 110.808 324.229 111.112C324.229 111.256 324.173 111.376 324.061 111.472C323.965 111.568 323.845 111.616 323.701 111.616H322.693C322.501 111.616 322.341 111.536 322.213 111.376C321.957 111.072 321.733 110.84 321.541 110.68C321.365 110.504 321.101 110.352 320.749 110.224C320.413 110.096 319.981 110.032 319.453 110.032C318.685 110.032 318.093 110.2 317.677 110.536C317.261 110.856 317.053 111.28 317.053 111.808C317.053 112.144 317.141 112.432 317.317 112.672C317.493 112.896 317.829 113.104 318.325 113.296C318.837 113.488 319.573 113.688 320.533 113.896C322.053 114.216 323.125 114.68 323.749 115.288C324.389 115.88 324.709 116.64 324.709 117.568C324.709 118.256 324.509 118.88 324.109 119.44C323.709 120 323.117 120.44 322.333 120.76C321.565 121.08 320.645 121.24 319.573 121.24ZM327.871 121C327.711 121 327.575 120.952 327.463 120.856C327.367 120.744 327.319 120.608 327.319 120.448V118.72C327.319 118.56 327.367 118.432 327.463 118.336C327.575 118.224 327.711 118.168 327.871 118.168H329.599C329.759 118.168 329.895 118.224 330.007 118.336C330.119 118.432 330.175 118.56 330.175 118.72V120.448C330.175 120.608 330.119 120.744 330.007 120.856C329.895 120.952 329.759 121 329.599 121H327.871ZM2.64 149C2.48 149 2.344 148.952 2.232 148.856C2.136 148.744 2.088 148.608 2.088 148.448V132.752C2.088 132.592 2.136 132.464 2.232 132.368C2.344 132.256 2.48 132.2 2.64 132.2H3.912C4.072 132.2 4.2 132.256 4.296 132.368C4.408 132.464 4.464 132.592 4.464 132.752V148.448C4.464 148.608 4.408 148.744 4.296 148.856C4.2 148.952 4.072 149 3.912 149H2.64ZM8.8905 149C8.7305 149 8.5945 148.952 8.4825 148.856C8.3865 148.744 8.3385 148.608 8.3385 148.448V137.072C8.3385 136.912 8.3865 136.784 8.4825 136.688C8.5945 136.576 8.7305 136.52 8.8905 136.52H10.0185C10.1785 136.52 10.3065 136.576 10.4025 136.688C10.5145 136.784 10.5705 136.912 10.5705 137.072V138.128C11.0345 137.536 11.5785 137.08 12.2025 136.76C12.8425 136.44 13.6345 136.28 14.5785 136.28C16.1145 136.28 17.3065 136.776 18.1545 137.768C19.0185 138.744 19.4505 140.048 19.4505 141.68V148.448C19.4505 148.608 19.3945 148.744 19.2825 148.856C19.1865 148.952 19.0585 149 18.8985 149H17.6985C17.5385 149 17.4025 148.952 17.2905 148.856C17.1945 148.744 17.1465 148.608 17.1465 148.448V141.8C17.1465 140.664 16.8665 139.784 16.3065 139.16C15.7625 138.536 14.9705 138.224 13.9305 138.224C12.9225 138.224 12.1225 138.544 11.5305 139.184C10.9385 139.808 10.6425 140.68 10.6425 141.8V148.448C10.6425 148.608 10.5865 148.744 10.4745 148.856C10.3785 148.952 10.2505 149 10.0905 149H8.8905ZM27.6011 149C25.0731 149 23.8091 147.592 23.8091 144.776V138.44H21.9371C21.7771 138.44 21.6411 138.392 21.5291 138.296C21.4331 138.184 21.3851 138.048 21.3851 137.888V137.072C21.3851 136.912 21.4331 136.784 21.5291 136.688C21.6411 136.576 21.7771 136.52 21.9371 136.52H23.8091V132.512C23.8091 132.352 23.8571 132.224 23.9531 132.128C24.0651 132.016 24.2011 131.96 24.3611 131.96H25.4891C25.6491 131.96 25.7771 132.016 25.8731 132.128C25.9851 132.224 26.0411 132.352 26.0411 132.512V136.52H29.0171C29.1771 136.52 29.3051 136.576 29.4011 136.688C29.5131 136.784 29.5691 136.912 29.5691 137.072V137.888C29.5691 138.048 29.5131 138.184 29.4011 138.296C29.3051 138.392 29.1771 138.44 29.0171 138.44H26.0411V144.608C26.0411 145.408 26.1771 146.016 26.4491 146.432C26.7211 146.832 27.1691 147.032 27.7931 147.032H29.2571C29.4171 147.032 29.5451 147.088 29.6411 147.2C29.7531 147.296 29.8091 147.424 29.8091 147.584V148.448C29.8091 148.608 29.7531 148.744 29.6411 148.856C29.5451 148.952 29.4171 149 29.2571 149H27.6011ZM37.0961 149.24C35.4481 149.24 34.1281 148.736 33.1361 147.728C32.1601 146.704 31.6241 145.312 31.5281 143.552L31.5041 142.736L31.5281 141.944C31.6401 140.216 32.1841 138.84 33.1601 137.816C34.1521 136.792 35.4561 136.28 37.0721 136.28C38.8481 136.28 40.2241 136.848 41.2001 137.984C42.1761 139.104 42.6641 140.624 42.6641 142.544V142.952C42.6641 143.112 42.6081 143.248 42.4961 143.36C42.4001 143.456 42.2721 143.504 42.1121 143.504H33.8081V143.72C33.8561 144.76 34.1681 145.648 34.7441 146.384C35.3361 147.104 36.1121 147.464 37.0721 147.464C37.8081 147.464 38.4081 147.32 38.8721 147.032C39.3521 146.728 39.7041 146.416 39.9281 146.096C40.0721 145.904 40.1761 145.792 40.2401 145.76C40.3201 145.712 40.4561 145.688 40.6481 145.688H41.8241C41.9681 145.688 42.0881 145.728 42.1841 145.808C42.2801 145.888 42.3281 146 42.3281 146.144C42.3281 146.496 42.1041 146.92 41.6561 147.416C41.2241 147.912 40.6081 148.344 39.8081 148.712C39.0241 149.064 38.1201 149.24 37.0961 149.24ZM40.3841 141.848V141.776C40.3841 140.672 40.0801 139.776 39.4721 139.088C38.8801 138.384 38.0801 138.032 37.0721 138.032C36.0641 138.032 35.2641 138.384 34.6721 139.088C34.0961 139.776 33.8081 140.672 33.8081 141.776V141.848H40.3841ZM50.6458 154.28C49.3338 154.28 48.2778 154.056 47.4778 153.608C46.6778 153.176 46.1098 152.68 45.7738 152.12C45.4378 151.56 45.2538 151.056 45.2218 150.608C45.2058 150.448 45.2538 150.312 45.3658 150.2C45.4938 150.088 45.6298 150.032 45.7738 150.032H46.9258C47.0698 150.032 47.1898 150.064 47.2858 150.128C47.3818 150.208 47.4618 150.344 47.5258 150.536C47.7178 151.048 48.0298 151.488 48.4618 151.856C48.9098 152.24 49.5978 152.432 50.5258 152.432C51.7098 152.432 52.5818 152.176 53.1418 151.664C53.7018 151.168 53.9818 150.28 53.9818 149V147.368C53.5658 147.896 53.0378 148.32 52.3978 148.64C51.7578 148.944 50.9978 149.096 50.1178 149.096C48.4218 149.096 47.1498 148.56 46.3018 147.488C45.4698 146.4 45.0298 145.024 44.9818 143.36L44.9578 142.688L44.9818 142.04C45.0298 140.392 45.4778 139.024 46.3258 137.936C47.1738 136.832 48.4378 136.28 50.1178 136.28C51.7978 136.28 53.1098 136.896 54.0538 138.128V137.096C54.0538 136.936 54.1018 136.8 54.1978 136.688C54.3098 136.576 54.4458 136.52 54.6058 136.52H55.7098C55.8698 136.52 56.0058 136.576 56.1178 136.688C56.2298 136.8 56.2858 136.936 56.2858 137.096V148.736C56.2858 152.432 54.4058 154.28 50.6458 154.28ZM50.5978 147.176C51.6858 147.176 52.5098 146.816 53.0698 146.096C53.6298 145.376 53.9338 144.52 53.9818 143.528C53.9978 143.384 54.0058 143.104 54.0058 142.688C54.0058 142.288 53.9978 142.016 53.9818 141.872C53.9338 140.88 53.6298 140.024 53.0698 139.304C52.5258 138.584 51.7018 138.224 50.5978 138.224C49.4618 138.224 48.6378 138.576 48.1258 139.28C47.6138 139.984 47.3338 140.912 47.2858 142.064L47.2618 142.688L47.2858 143.336C47.3338 144.472 47.6138 145.4 48.1258 146.12C48.6378 146.824 49.4618 147.176 50.5978 147.176ZM64.8461 149.24C63.1981 149.24 61.8781 148.736 60.8861 147.728C59.9101 146.704 59.3741 145.312 59.2781 143.552L59.2541 142.736L59.2781 141.944C59.3901 140.216 59.9341 138.84 60.9101 137.816C61.9021 136.792 63.2061 136.28 64.8221 136.28C66.5981 136.28 67.9741 136.848 68.9501 137.984C69.9261 139.104 70.4141 140.624 70.4141 142.544V142.952C70.4141 143.112 70.3581 143.248 70.2461 143.36C70.1501 143.456 70.0221 143.504 69.8621 143.504H61.5581V143.72C61.6061 144.76 61.9181 145.648 62.4941 146.384C63.0861 147.104 63.8621 147.464 64.8221 147.464C65.5581 147.464 66.1581 147.32 66.6221 147.032C67.1021 146.728 67.4541 146.416 67.6781 146.096C67.8221 145.904 67.9261 145.792 67.9901 145.76C68.0701 145.712 68.2061 145.688 68.3981 145.688H69.5741C69.7181 145.688 69.8381 145.728 69.9341 145.808C70.0301 145.888 70.0781 146 70.0781 146.144C70.0781 146.496 69.8541 146.92 69.4061 147.416C68.9741 147.912 68.3581 148.344 67.5581 148.712C66.7741 149.064 65.8701 149.24 64.8461 149.24ZM68.1341 141.848V141.776C68.1341 140.672 67.8301 139.776 67.2221 139.088C66.6301 138.384 65.8301 138.032 64.8221 138.032C63.8141 138.032 63.0141 138.384 62.4221 139.088C61.8461 139.776 61.5581 140.672 61.5581 141.776V141.848H68.1341ZM73.8358 149C73.6758 149 73.5398 148.952 73.4278 148.856C73.3318 148.744 73.2838 148.608 73.2838 148.448V137.096C73.2838 136.936 73.3318 136.8 73.4278 136.688C73.5398 136.576 73.6758 136.52 73.8358 136.52H74.9398C75.0998 136.52 75.2358 136.576 75.3478 136.688C75.4598 136.8 75.5158 136.936 75.5158 137.096V138.152C76.1718 137.064 77.2918 136.52 78.8758 136.52H79.8118C79.9718 136.52 80.0998 136.576 80.1958 136.688C80.3078 136.784 80.3638 136.912 80.3638 137.072V138.056C80.3638 138.216 80.3078 138.344 80.1958 138.44C80.0998 138.536 79.9718 138.584 79.8118 138.584H78.3718C77.5078 138.584 76.8278 138.84 76.3318 139.352C75.8358 139.848 75.5878 140.528 75.5878 141.392V148.448C75.5878 148.608 75.5318 148.744 75.4198 148.856C75.3078 148.952 75.1718 149 75.0118 149H73.8358ZM88.2733 149C88.1133 149 87.9773 148.952 87.8653 148.856C87.7693 148.744 87.7213 148.608 87.7213 148.448V137.072C87.7213 136.912 87.7693 136.784 87.8653 136.688C87.9773 136.576 88.1133 136.52 88.2733 136.52H89.4013C89.5613 136.52 89.6893 136.576 89.7853 136.688C89.8973 136.784 89.9533 136.912 89.9533 137.072V138.128C90.4173 137.536 90.9613 137.08 91.5853 136.76C92.2253 136.44 93.0173 136.28 93.9613 136.28C95.4973 136.28 96.6893 136.776 97.5373 137.768C98.4013 138.744 98.8333 140.048 98.8333 141.68V148.448C98.8333 148.608 98.7773 148.744 98.6653 148.856C98.5693 148.952 98.4413 149 98.2813 149H97.0813C96.9213 149 96.7853 148.952 96.6733 148.856C96.5773 148.744 96.5293 148.608 96.5293 148.448V141.8C96.5293 140.664 96.2493 139.784 95.6893 139.16C95.1453 138.536 94.3533 138.224 93.3133 138.224C92.3053 138.224 91.5053 138.544 90.9133 139.184C90.3213 139.808 90.0253 140.68 90.0253 141.8V148.448C90.0253 148.608 89.9693 148.744 89.8573 148.856C89.7613 148.952 89.6333 149 89.4733 149H88.2733ZM106.932 149.24C105.412 149.24 104.236 148.752 103.404 147.776C102.572 146.784 102.156 145.472 102.156 143.84V137.072C102.156 136.912 102.204 136.784 102.3 136.688C102.412 136.576 102.548 136.52 102.708 136.52H103.908C104.068 136.52 104.196 136.576 104.292 136.688C104.404 136.784 104.46 136.912 104.46 137.072V143.72C104.46 146.104 105.5 147.296 107.58 147.296C108.588 147.296 109.388 146.984 109.98 146.36C110.572 145.72 110.868 144.84 110.868 143.72V137.072C110.868 136.912 110.916 136.784 111.012 136.688C111.124 136.576 111.26 136.52 111.42 136.52H112.62C112.78 136.52 112.908 136.576 113.004 136.688C113.1 136.784 113.148 136.912 113.148 137.072V148.448C113.148 148.608 113.1 148.744 113.004 148.856C112.908 148.952 112.78 149 112.62 149H111.492C111.332 149 111.196 148.952 111.084 148.856C110.988 148.744 110.94 148.608 110.94 148.448V147.392C110.492 148 109.948 148.464 109.308 148.784C108.668 149.088 107.876 149.24 106.932 149.24ZM117.266 149C117.106 149 116.97 148.952 116.858 148.856C116.762 148.744 116.714 148.608 116.714 148.448V137.072C116.714 136.912 116.762 136.784 116.858 136.688C116.97 136.576 117.106 136.52 117.266 136.52H118.394C118.554 136.52 118.682 136.576 118.778 136.688C118.89 136.784 118.946 136.912 118.946 137.072V138.128C119.41 137.536 119.954 137.08 120.578 136.76C121.218 136.44 122.01 136.28 122.954 136.28C124.49 136.28 125.682 136.776 126.53 137.768C127.394 138.744 127.826 140.048 127.826 141.68V148.448C127.826 148.608 127.77 148.744 127.658 148.856C127.562 148.952 127.434 149 127.273 149H126.074C125.914 149 125.778 148.952 125.666 148.856C125.57 148.744 125.522 148.608 125.522 148.448V141.8C125.522 140.664 125.242 139.784 124.682 139.16C124.138 138.536 123.346 138.224 122.306 138.224C121.298 138.224 120.498 138.544 119.906 139.184C119.314 139.808 119.018 140.68 119.018 141.8V148.448C119.018 148.608 118.962 148.744 118.85 148.856C118.754 148.952 118.626 149 118.465 149H117.266ZM136.308 149.24C134.596 149.24 133.252 148.76 132.276 147.8C131.316 146.824 130.804 145.464 130.74 143.72L130.716 142.76L130.74 141.8C130.804 140.056 131.316 138.704 132.276 137.744C133.252 136.768 134.596 136.28 136.308 136.28C137.46 136.28 138.436 136.488 139.236 136.904C140.036 137.32 140.628 137.832 141.012 138.44C141.412 139.048 141.628 139.656 141.66 140.264C141.676 140.424 141.628 140.552 141.516 140.648C141.404 140.744 141.268 140.792 141.108 140.792H139.956C139.796 140.792 139.676 140.76 139.596 140.696C139.516 140.632 139.436 140.504 139.356 140.312C139.084 139.544 138.7 139 138.204 138.68C137.708 138.344 137.084 138.176 136.332 138.176C135.34 138.176 134.548 138.488 133.956 139.112C133.38 139.72 133.068 140.656 133.02 141.92L132.996 142.784L133.02 143.6C133.068 144.88 133.38 145.824 133.956 146.432C134.532 147.04 135.324 147.344 136.332 147.344C137.084 147.344 137.708 147.184 138.204 146.864C138.7 146.528 139.084 145.976 139.356 145.208C139.436 145.016 139.516 144.888 139.596 144.824C139.676 144.744 139.796 144.704 139.956 144.704H141.108C141.268 144.704 141.404 144.76 141.516 144.872C141.628 144.968 141.676 145.096 141.66 145.256C141.628 145.848 141.412 146.456 141.012 147.08C140.628 147.688 140.036 148.2 139.236 148.616C138.452 149.032 137.476 149.24 136.308 149.24ZM150.969 149C150.809 149 150.673 148.952 150.561 148.856C150.465 148.744 150.417 148.608 150.417 148.448V132.512C150.417 132.352 150.465 132.224 150.561 132.128C150.673 132.016 150.809 131.96 150.969 131.96H152.097C152.257 131.96 152.385 132.016 152.481 132.128C152.593 132.224 152.649 132.352 152.649 132.512V148.448C152.649 148.608 152.593 148.744 152.481 148.856C152.385 148.952 152.257 149 152.097 149H150.969ZM161.221 149.24C159.573 149.24 158.253 148.736 157.261 147.728C156.285 146.704 155.749 145.312 155.653 143.552L155.629 142.736L155.653 141.944C155.765 140.216 156.309 138.84 157.285 137.816C158.277 136.792 159.581 136.28 161.197 136.28C162.973 136.28 164.349 136.848 165.325 137.984C166.301 139.104 166.789 140.624 166.789 142.544V142.952C166.789 143.112 166.733 143.248 166.621 143.36C166.525 143.456 166.397 143.504 166.237 143.504H157.933V143.72C157.981 144.76 158.293 145.648 158.869 146.384C159.461 147.104 160.237 147.464 161.197 147.464C161.933 147.464 162.533 147.32 162.997 147.032C163.477 146.728 163.829 146.416 164.053 146.096C164.197 145.904 164.301 145.792 164.365 145.76C164.445 145.712 164.581 145.688 164.773 145.688H165.949C166.093 145.688 166.213 145.728 166.309 145.808C166.405 145.888 166.453 146 166.453 146.144C166.453 146.496 166.229 146.92 165.781 147.416C165.349 147.912 164.733 148.344 163.933 148.712C163.149 149.064 162.245 149.24 161.221 149.24ZM164.509 141.848V141.776C164.509 140.672 164.205 139.776 163.597 139.088C163.005 138.384 162.205 138.032 161.197 138.032C160.189 138.032 159.389 138.384 158.797 139.088C158.221 139.776 157.933 140.672 157.933 141.776V141.848H164.509ZM174.699 149.24C172.987 149.24 171.643 148.76 170.667 147.8C169.707 146.824 169.195 145.464 169.131 143.72L169.107 142.76L169.131 141.8C169.195 140.056 169.707 138.704 170.667 137.744C171.643 136.768 172.987 136.28 174.699 136.28C175.851 136.28 176.827 136.488 177.627 136.904C178.427 137.32 179.019 137.832 179.403 138.44C179.803 139.048 180.019 139.656 180.051 140.264C180.067 140.424 180.019 140.552 179.907 140.648C179.795 140.744 179.659 140.792 179.499 140.792H178.347C178.187 140.792 178.067 140.76 177.987 140.696C177.907 140.632 177.827 140.504 177.747 140.312C177.475 139.544 177.091 139 176.595 138.68C176.099 138.344 175.475 138.176 174.723 138.176C173.731 138.176 172.939 138.488 172.347 139.112C171.771 139.72 171.459 140.656 171.411 141.92L171.387 142.784L171.411 143.6C171.459 144.88 171.771 145.824 172.347 146.432C172.923 147.04 173.715 147.344 174.723 147.344C175.475 147.344 176.099 147.184 176.595 146.864C177.091 146.528 177.475 145.976 177.747 145.208C177.827 145.016 177.907 144.888 177.987 144.824C178.067 144.744 178.187 144.704 178.347 144.704H179.499C179.659 144.704 179.795 144.76 179.907 144.872C180.019 144.968 180.067 145.096 180.051 145.256C180.019 145.848 179.803 146.456 179.403 147.08C179.019 147.688 178.427 148.2 177.627 148.616C176.843 149.032 175.867 149.24 174.699 149.24ZM187.773 149C185.245 149 183.981 147.592 183.981 144.776V138.44H182.109C181.949 138.44 181.813 138.392 181.701 138.296C181.605 138.184 181.557 138.048 181.557 137.888V137.072C181.557 136.912 181.605 136.784 181.701 136.688C181.813 136.576 181.949 136.52 182.109 136.52H183.981V132.512C183.981 132.352 184.029 132.224 184.125 132.128C184.237 132.016 184.373 131.96 184.533 131.96H185.661C185.821 131.96 185.949 132.016 186.045 132.128C186.157 132.224 186.213 132.352 186.213 132.512V136.52H189.189C189.349 136.52 189.477 136.576 189.573 136.688C189.685 136.784 189.741 136.912 189.741 137.072V137.888C189.741 138.048 189.685 138.184 189.573 138.296C189.477 138.392 189.349 138.44 189.189 138.44H186.213V144.608C186.213 145.408 186.349 146.016 186.621 146.432C186.893 146.832 187.341 147.032 187.965 147.032H189.429C189.589 147.032 189.717 147.088 189.813 147.2C189.925 147.296 189.981 147.424 189.981 147.584V148.448C189.981 148.608 189.925 148.744 189.813 148.856C189.717 148.952 189.589 149 189.429 149H187.773ZM196.932 149.24C195.412 149.24 194.236 148.752 193.404 147.776C192.572 146.784 192.156 145.472 192.156 143.84V137.072C192.156 136.912 192.204 136.784 192.3 136.688C192.412 136.576 192.548 136.52 192.708 136.52H193.908C194.068 136.52 194.196 136.576 194.292 136.688C194.404 136.784 194.46 136.912 194.46 137.072V143.72C194.46 146.104 195.5 147.296 197.58 147.296C198.588 147.296 199.388 146.984 199.98 146.36C200.572 145.72 200.868 144.84 200.868 143.72V137.072C200.868 136.912 200.916 136.784 201.012 136.688C201.124 136.576 201.26 136.52 201.42 136.52H202.62C202.78 136.52 202.908 136.576 203.004 136.688C203.1 136.784 203.148 136.912 203.148 137.072V148.448C203.148 148.608 203.1 148.744 203.004 148.856C202.908 148.952 202.78 149 202.62 149H201.492C201.332 149 201.196 148.952 201.084 148.856C200.988 148.744 200.94 148.608 200.94 148.448V147.392C200.492 148 199.948 148.464 199.308 148.784C198.668 149.088 197.876 149.24 196.932 149.24ZM211.034 149.24C209.914 149.24 208.97 149.064 208.202 148.712C207.45 148.344 206.882 147.928 206.498 147.464C206.13 147 205.946 146.616 205.946 146.312C205.946 146.152 206.002 146.032 206.114 145.952C206.242 145.856 206.37 145.808 206.498 145.808H207.578C207.738 145.808 207.882 145.888 208.01 146.048C208.394 146.496 208.81 146.848 209.258 147.104C209.706 147.36 210.306 147.488 211.058 147.488C211.89 147.488 212.562 147.328 213.074 147.008C213.602 146.672 213.866 146.216 213.866 145.64C213.866 145.256 213.754 144.944 213.53 144.704C213.322 144.448 212.954 144.232 212.426 144.056C211.914 143.864 211.146 143.656 210.122 143.432C208.73 143.128 207.738 142.688 207.146 142.112C206.57 141.536 206.282 140.792 206.282 139.88C206.282 139.272 206.458 138.696 206.81 138.152C207.178 137.592 207.706 137.144 208.394 136.808C209.098 136.456 209.938 136.28 210.914 136.28C211.938 136.28 212.81 136.448 213.53 136.784C214.25 137.12 214.786 137.52 215.138 137.984C215.506 138.432 215.69 138.808 215.69 139.112C215.69 139.256 215.634 139.376 215.522 139.472C215.426 139.568 215.306 139.616 215.162 139.616H214.154C213.962 139.616 213.802 139.536 213.674 139.376C213.418 139.072 213.194 138.84 213.002 138.68C212.826 138.504 212.562 138.352 212.21 138.224C211.874 138.096 211.442 138.032 210.914 138.032C210.146 138.032 209.554 138.2 209.138 138.536C208.722 138.856 208.514 139.28 208.514 139.808C208.514 140.144 208.602 140.432 208.778 140.672C208.954 140.896 209.29 141.104 209.786 141.296C210.298 141.488 211.034 141.688 211.993 141.896C213.514 142.216 214.586 142.68 215.21 143.288C215.85 143.88 216.17 144.64 216.17 145.568C216.17 146.256 215.97 146.88 215.57 147.44C215.17 148 214.578 148.44 213.794 148.76C213.026 149.08 212.106 149.24 211.034 149.24ZM225.383 149C225.223 149 225.087 148.952 224.975 148.856C224.879 148.744 224.831 148.608 224.831 148.448V137.072C224.831 136.912 224.879 136.784 224.975 136.688C225.087 136.576 225.223 136.52 225.383 136.52H226.511C226.671 136.52 226.799 136.576 226.895 136.688C227.007 136.784 227.063 136.912 227.063 137.072V138.128C227.527 137.536 228.071 137.08 228.695 136.76C229.335 136.44 230.127 136.28 231.071 136.28C232.607 136.28 233.799 136.776 234.647 137.768C235.511 138.744 235.943 140.048 235.943 141.68V148.448C235.943 148.608 235.887 148.744 235.775 148.856C235.679 148.952 235.551 149 235.391 149H234.191C234.031 149 233.895 148.952 233.783 148.856C233.687 148.744 233.639 148.608 233.639 148.448V141.8C233.639 140.664 233.359 139.784 232.799 139.16C232.255 138.536 231.463 138.224 230.423 138.224C229.415 138.224 228.615 138.544 228.023 139.184C227.431 139.808 227.135 140.68 227.135 141.8V148.448C227.135 148.608 227.079 148.744 226.967 148.856C226.871 148.952 226.743 149 226.583 149H225.383ZM239.745 134.192C239.585 134.192 239.449 134.144 239.337 134.048C239.241 133.936 239.193 133.8 239.193 133.64V132.344C239.193 132.184 239.241 132.048 239.337 131.936C239.449 131.824 239.585 131.768 239.745 131.768H241.257C241.417 131.768 241.553 131.824 241.665 131.936C241.777 132.048 241.833 132.184 241.833 132.344V133.64C241.833 133.8 241.777 133.936 241.665 134.048C241.553 134.144 241.417 134.192 241.257 134.192H239.745ZM239.937 149C239.777 149 239.641 148.952 239.529 148.856C239.433 148.744 239.385 148.608 239.385 148.448V137.072C239.385 136.912 239.433 136.784 239.529 136.688C239.641 136.576 239.777 136.52 239.937 136.52H241.089C241.249 136.52 241.377 136.576 241.473 136.688C241.585 136.784 241.641 136.912 241.641 137.072V148.448C241.641 148.608 241.585 148.744 241.473 148.856C241.377 148.952 241.249 149 241.089 149H239.937ZM249.518 149.24C248.398 149.24 247.454 149.064 246.686 148.712C245.934 148.344 245.366 147.928 244.982 147.464C244.614 147 244.43 146.616 244.43 146.312C244.43 146.152 244.486 146.032 244.598 145.952C244.726 145.856 244.854 145.808 244.982 145.808H246.062C246.222 145.808 246.366 145.888 246.494 146.048C246.878 146.496 247.294 146.848 247.742 147.104C248.19 147.36 248.79 147.488 249.542 147.488C250.374 147.488 251.046 147.328 251.558 147.008C252.086 146.672 252.35 146.216 252.35 145.64C252.35 145.256 252.238 144.944 252.014 144.704C251.806 144.448 251.438 144.232 250.91 144.056C250.398 143.864 249.63 143.656 248.606 143.432C247.214 143.128 246.222 142.688 245.63 142.112C245.054 141.536 244.766 140.792 244.766 139.88C244.766 139.272 244.942 138.696 245.294 138.152C245.662 137.592 246.19 137.144 246.878 136.808C247.582 136.456 248.422 136.28 249.398 136.28C250.422 136.28 251.294 136.448 252.014 136.784C252.734 137.12 253.27 137.52 253.622 137.984C253.99 138.432 254.174 138.808 254.174 139.112C254.174 139.256 254.118 139.376 254.006 139.472C253.91 139.568 253.79 139.616 253.646 139.616H252.638C252.446 139.616 252.286 139.536 252.158 139.376C251.902 139.072 251.678 138.84 251.486 138.68C251.31 138.504 251.046 138.352 250.694 138.224C250.358 138.096 249.926 138.032 249.398 138.032C248.63 138.032 248.038 138.2 247.622 138.536C247.206 138.856 246.998 139.28 246.998 139.808C246.998 140.144 247.086 140.432 247.262 140.672C247.438 140.896 247.774 141.104 248.27 141.296C248.782 141.488 249.518 141.688 250.478 141.896C251.998 142.216 253.07 142.68 253.694 143.288C254.334 143.88 254.654 144.64 254.654 145.568C254.654 146.256 254.454 146.88 254.054 147.44C253.654 148 253.062 148.44 252.278 148.76C251.51 149.08 250.59 149.24 249.518 149.24ZM257.792 134.192C257.632 134.192 257.496 134.144 257.384 134.048C257.288 133.936 257.24 133.8 257.24 133.64V132.344C257.24 132.184 257.288 132.048 257.384 131.936C257.496 131.824 257.632 131.768 257.792 131.768H259.304C259.464 131.768 259.6 131.824 259.712 131.936C259.824 132.048 259.88 132.184 259.88 132.344V133.64C259.88 133.8 259.824 133.936 259.712 134.048C259.6 134.144 259.464 134.192 259.304 134.192H257.792ZM257.984 149C257.824 149 257.688 148.952 257.576 148.856C257.48 148.744 257.432 148.608 257.432 148.448V137.072C257.432 136.912 257.48 136.784 257.576 136.688C257.688 136.576 257.824 136.52 257.984 136.52H259.136C259.296 136.52 259.424 136.576 259.52 136.688C259.632 136.784 259.688 136.912 259.688 137.072V148.448C259.688 148.608 259.632 148.744 259.52 148.856C259.424 148.952 259.296 149 259.136 149H257.984ZM263.077 150.8C262.949 150.8 262.845 150.752 262.765 150.656C262.701 150.56 262.677 150.44 262.693 150.296L263.245 146.864C263.309 146.4 263.533 146.168 263.917 146.168H265.525C265.637 146.168 265.725 146.208 265.789 146.288C265.869 146.368 265.909 146.464 265.909 146.576C265.909 146.656 265.885 146.784 265.837 146.96L264.565 150.248C264.485 150.44 264.397 150.576 264.301 150.656C264.205 150.752 264.061 150.8 263.869 150.8H263.077ZM280.096 149.24C278.448 149.24 277.128 148.736 276.136 147.728C275.16 146.704 274.624 145.312 274.528 143.552L274.504 142.736L274.528 141.944C274.64 140.216 275.184 138.84 276.16 137.816C277.152 136.792 278.456 136.28 280.072 136.28C281.848 136.28 283.224 136.848 284.2 137.984C285.176 139.104 285.664 140.624 285.664 142.544V142.952C285.664 143.112 285.608 143.248 285.496 143.36C285.4 143.456 285.272 143.504 285.112 143.504H276.808V143.72C276.856 144.76 277.168 145.648 277.744 146.384C278.336 147.104 279.112 147.464 280.072 147.464C280.808 147.464 281.408 147.32 281.872 147.032C282.352 146.728 282.704 146.416 282.928 146.096C283.072 145.904 283.176 145.792 283.24 145.76C283.32 145.712 283.456 145.688 283.648 145.688H284.824C284.968 145.688 285.088 145.728 285.184 145.808C285.28 145.888 285.328 146 285.328 146.144C285.328 146.496 285.104 146.92 284.656 147.416C284.224 147.912 283.608 148.344 282.808 148.712C282.024 149.064 281.12 149.24 280.096 149.24ZM283.384 141.848V141.776C283.384 140.672 283.08 139.776 282.472 139.088C281.88 138.384 281.08 138.032 280.072 138.032C279.064 138.032 278.264 138.384 277.672 139.088C277.096 139.776 276.808 140.672 276.808 141.776V141.848H283.384ZM289.086 149C288.926 149 288.79 148.952 288.678 148.856C288.582 148.744 288.534 148.608 288.534 148.448V137.096C288.534 136.936 288.582 136.8 288.678 136.688C288.79 136.576 288.926 136.52 289.086 136.52H290.19C290.35 136.52 290.486 136.576 290.598 136.688C290.71 136.8 290.766 136.936 290.766 137.096V138.152C291.422 137.064 292.542 136.52 294.126 136.52H295.062C295.222 136.52 295.35 136.576 295.446 136.688C295.558 136.784 295.614 136.912 295.614 137.072V138.056C295.614 138.216 295.558 138.344 295.446 138.44C295.35 138.536 295.222 138.584 295.062 138.584H293.622C292.758 138.584 292.078 138.84 291.582 139.352C291.086 139.848 290.838 140.528 290.838 141.392V148.448C290.838 148.608 290.782 148.744 290.67 148.856C290.558 148.952 290.422 149 290.262 149H289.086ZM300.944 149.24C300.16 149.24 299.432 149.08 298.76 148.76C298.088 148.44 297.552 148.008 297.152 147.464C296.768 146.904 296.576 146.288 296.576 145.616C296.576 144.56 297.008 143.696 297.872 143.024C298.752 142.336 299.936 141.888 301.424 141.68L305 141.176V140.48C305 138.848 304.064 138.032 302.192 138.032C301.488 138.032 300.912 138.184 300.464 138.488C300.016 138.776 299.68 139.12 299.456 139.52C299.408 139.664 299.344 139.768 299.264 139.832C299.2 139.896 299.104 139.928 298.976 139.928H297.944C297.8 139.928 297.672 139.88 297.56 139.784C297.464 139.672 297.416 139.544 297.416 139.4C297.432 139.016 297.608 138.584 297.944 138.104C298.296 137.608 298.832 137.184 299.552 136.832C300.272 136.464 301.16 136.28 302.216 136.28C304.008 136.28 305.296 136.704 306.08 137.552C306.864 138.384 307.256 139.424 307.256 140.672V148.448C307.256 148.608 307.2 148.744 307.088 148.856C306.992 148.952 306.864 149 306.704 149H305.6C305.44 149 305.304 148.952 305.192 148.856C305.096 148.744 305.048 148.608 305.048 148.448V147.416C304.696 147.928 304.184 148.36 303.512 148.712C302.84 149.064 301.984 149.24 300.944 149.24ZM301.448 147.44C302.488 147.44 303.336 147.104 303.992 146.432C304.664 145.744 305 144.76 305 143.48V142.808L302.216 143.216C301.08 143.376 300.224 143.648 299.648 144.032C299.072 144.4 298.784 144.872 298.784 145.448C298.784 146.088 299.048 146.584 299.576 146.936C300.104 147.272 300.728 147.44 301.448 147.44ZM315.461 149C312.933 149 311.669 147.592 311.669 144.776V138.44H309.797C309.637 138.44 309.501 138.392 309.389 138.296C309.293 138.184 309.245 138.048 309.245 137.888V137.072C309.245 136.912 309.293 136.784 309.389 136.688C309.501 136.576 309.637 136.52 309.797 136.52H311.669V132.512C311.669 132.352 311.717 132.224 311.812 132.128C311.924 132.016 312.061 131.96 312.221 131.96H313.349C313.509 131.96 313.637 132.016 313.733 132.128C313.845 132.224 313.901 132.352 313.901 132.512V136.52H316.877C317.037 136.52 317.165 136.576 317.261 136.688C317.373 136.784 317.429 136.912 317.429 137.072V137.888C317.429 138.048 317.373 138.184 317.261 138.296C317.165 138.392 317.037 138.44 316.877 138.44H313.901V144.608C313.901 145.408 314.037 146.016 314.309 146.432C314.581 146.832 315.029 147.032 315.653 147.032H317.117C317.277 147.032 317.405 147.088 317.501 147.2C317.613 147.296 317.669 147.424 317.669 147.584V148.448C317.669 148.608 317.613 148.744 317.501 148.856C317.405 148.952 317.277 149 317.117 149H315.461ZM330.838 149.24C329.19 149.24 327.87 148.736 326.878 147.728C325.902 146.704 325.366 145.312 325.27 143.552L325.246 142.736L325.27 141.944C325.382 140.216 325.926 138.84 326.902 137.816C327.894 136.792 329.198 136.28 330.814 136.28C332.59 136.28 333.966 136.848 334.942 137.984C335.918 139.104 336.406 140.624 336.406 142.544V142.952C336.406 143.112 336.35 143.248 336.238 143.36C336.142 143.456 336.014 143.504 335.854 143.504H327.55V143.72C327.598 144.76 327.91 145.648 328.486 146.384C329.078 147.104 329.854 147.464 330.814 147.464C331.55 147.464 332.15 147.32 332.614 147.032C333.094 146.728 333.446 146.416 333.67 146.096C333.814 145.904 333.918 145.792 333.982 145.76C334.062 145.712 334.198 145.688 334.39 145.688H335.566C335.71 145.688 335.83 145.728 335.926 145.808C336.022 145.888 336.07 146 336.07 146.144C336.07 146.496 335.846 146.92 335.398 147.416C334.966 147.912 334.35 148.344 333.55 148.712C332.766 149.064 331.862 149.24 330.838 149.24ZM334.126 141.848V141.776C334.126 140.672 333.822 139.776 333.214 139.088C332.622 138.384 331.822 138.032 330.814 138.032C329.806 138.032 329.006 138.384 328.414 139.088C327.838 139.776 327.55 140.672 327.55 141.776V141.848H334.126ZM344.078 149C341.55 149 340.286 147.592 340.286 144.776V138.44H338.414C338.254 138.44 338.118 138.392 338.006 138.296C337.91 138.184 337.862 138.048 337.862 137.888V137.072C337.862 136.912 337.91 136.784 338.006 136.688C338.118 136.576 338.254 136.52 338.414 136.52H340.286V132.512C340.286 132.352 340.334 132.224 340.43 132.128C340.542 132.016 340.678 131.96 340.838 131.96H341.966C342.126 131.96 342.254 132.016 342.35 132.128C342.462 132.224 342.518 132.352 342.518 132.512V136.52H345.494C345.654 136.52 345.782 136.576 345.878 136.688C345.99 136.784 346.046 136.912 346.046 137.072V137.888C346.046 138.048 345.99 138.184 345.878 138.296C345.782 138.392 345.654 138.44 345.494 138.44H342.518V144.608C342.518 145.408 342.654 146.016 342.926 146.432C343.198 146.832 343.646 147.032 344.27 147.032H345.734C345.894 147.032 346.022 147.088 346.118 147.2C346.23 147.296 346.286 147.424 346.286 147.584V148.448C346.286 148.608 346.23 148.744 346.118 148.856C346.022 148.952 345.894 149 345.734 149H344.078ZM6.888 177.24C5.128 177.24 3.76 176.744 2.784 175.752C1.824 174.76 1.312 173.44 1.248 171.792L1.224 170.76L1.248 169.728C1.312 168.096 1.832 166.784 2.808 165.792C3.784 164.784 5.144 164.28 6.888 164.28C8.632 164.28 9.992 164.784 10.968 165.792C11.944 166.784 12.464 168.096 12.528 169.728C12.544 169.904 12.552 170.248 12.552 170.76C12.552 171.272 12.544 171.616 12.528 171.792C12.464 173.44 11.944 174.76 10.968 175.752C10.008 176.744 8.648 177.24 6.888 177.24ZM6.888 175.392C7.896 175.392 8.688 175.072 9.264 174.432C9.856 173.792 10.176 172.872 10.224 171.672C10.24 171.512 10.248 171.208 10.248 170.76C10.248 170.312 10.24 170.008 10.224 169.848C10.176 168.648 9.856 167.728 9.264 167.088C8.688 166.448 7.896 166.128 6.888 166.128C5.88 166.128 5.08 166.448 4.488 167.088C3.896 167.728 3.584 168.648 3.552 169.848L3.528 170.76L3.552 171.672C3.584 172.872 3.896 173.792 4.488 174.432C5.08 175.072 5.88 175.392 6.888 175.392ZM16.1093 177C15.9493 177 15.8133 176.952 15.7013 176.856C15.6053 176.744 15.5573 176.608 15.5573 176.448V165.096C15.5573 164.936 15.6053 164.8 15.7013 164.688C15.8133 164.576 15.9493 164.52 16.1093 164.52H17.2133C17.3733 164.52 17.5093 164.576 17.6213 164.688C17.7333 164.8 17.7893 164.936 17.7893 165.096V166.152C18.4453 165.064 19.5653 164.52 21.1493 164.52H22.0853C22.2453 164.52 22.3733 164.576 22.4693 164.688C22.5813 164.784 22.6373 164.912 22.6373 165.072V166.056C22.6373 166.216 22.5813 166.344 22.4693 166.44C22.3733 166.536 22.2453 166.584 22.0853 166.584H20.6453C19.7813 166.584 19.1013 166.84 18.6053 167.352C18.1093 167.848 17.8613 168.528 17.8613 169.392V176.448C17.8613 176.608 17.8053 176.744 17.6933 176.856C17.5813 176.952 17.4453 177 17.2853 177H16.1093ZM25.2264 177C25.0664 177 24.9304 176.952 24.8184 176.856C24.7224 176.744 24.6744 176.608 24.6744 176.448V165.072C24.6744 164.912 24.7224 164.784 24.8184 164.688C24.9304 164.576 25.0664 164.52 25.2264 164.52H26.3544C26.5144 164.52 26.6424 164.576 26.7384 164.688C26.8504 164.784 26.9064 164.912 26.9064 165.072V166.128C27.3704 165.536 27.9144 165.08 28.5384 164.76C29.1784 164.44 29.9704 164.28 30.9144 164.28C32.4504 164.28 33.6424 164.776 34.4904 165.768C35.3544 166.744 35.7864 168.048 35.7864 169.68V176.448C35.7864 176.608 35.7304 176.744 35.6184 176.856C35.5224 176.952 35.3944 177 35.2344 177H34.0344C33.8744 177 33.7384 176.952 33.6264 176.856C33.5304 176.744 33.4824 176.608 33.4824 176.448V169.8C33.4824 168.664 33.2024 167.784 32.6424 167.16C32.0984 166.536 31.3064 166.224 30.2664 166.224C29.2584 166.224 28.4584 166.544 27.8664 167.184C27.2744 167.808 26.9784 168.68 26.9784 169.8V176.448C26.9784 176.608 26.9224 176.744 26.8104 176.856C26.7144 176.952 26.5864 177 26.4264 177H25.2264ZM42.7091 177.24C41.9251 177.24 41.1971 177.08 40.5251 176.76C39.8531 176.44 39.3171 176.008 38.9171 175.464C38.5331 174.904 38.3411 174.288 38.3411 173.616C38.3411 172.56 38.7731 171.696 39.6371 171.024C40.5171 170.336 41.7011 169.888 43.1891 169.68L46.7651 169.176V168.48C46.7651 166.848 45.8291 166.032 43.9571 166.032C43.2531 166.032 42.6771 166.184 42.2291 166.488C41.7811 166.776 41.4451 167.12 41.2211 167.52C41.1731 167.664 41.1091 167.768 41.0291 167.832C40.9651 167.896 40.8691 167.928 40.7411 167.928H39.7091C39.5651 167.928 39.4371 167.88 39.3251 167.784C39.2291 167.672 39.1811 167.544 39.1811 167.4C39.1971 167.016 39.3731 166.584 39.7091 166.104C40.0611 165.608 40.5971 165.184 41.3171 164.832C42.0371 164.464 42.9251 164.28 43.9811 164.28C45.7731 164.28 47.0611 164.704 47.8451 165.552C48.6291 166.384 49.0211 167.424 49.0211 168.672V176.448C49.0211 176.608 48.9651 176.744 48.8531 176.856C48.7571 176.952 48.6291 177 48.4691 177H47.3651C47.2051 177 47.0691 176.952 46.9571 176.856C46.8611 176.744 46.8131 176.608 46.8131 176.448V175.416C46.4611 175.928 45.9491 176.36 45.2771 176.712C44.6051 177.064 43.7491 177.24 42.7091 177.24ZM43.2131 175.44C44.2531 175.44 45.1011 175.104 45.7571 174.432C46.4291 173.744 46.7651 172.76 46.7651 171.48V170.808L43.9811 171.216C42.8451 171.376 41.9891 171.648 41.4131 172.032C40.8371 172.4 40.5491 172.872 40.5491 173.448C40.5491 174.088 40.8131 174.584 41.3411 174.936C41.8691 175.272 42.4931 175.44 43.2131 175.44ZM53.0233 177C52.8633 177 52.7273 176.952 52.6153 176.856C52.5193 176.744 52.4713 176.608 52.4713 176.448V165.096C52.4713 164.936 52.5193 164.8 52.6153 164.688C52.7273 164.576 52.8633 164.52 53.0233 164.52H54.1273C54.2873 164.52 54.4233 164.576 54.5353 164.688C54.6473 164.8 54.7033 164.936 54.7033 165.096V166.152C55.3593 165.064 56.4793 164.52 58.0633 164.52H58.9993C59.1593 164.52 59.2873 164.576 59.3833 164.688C59.4953 164.784 59.5513 164.912 59.5513 165.072V166.056C59.5513 166.216 59.4953 166.344 59.3833 166.44C59.2873 166.536 59.1593 166.584 58.9993 166.584H57.5593C56.6953 166.584 56.0153 166.84 55.5193 167.352C55.0233 167.848 54.7753 168.528 54.7753 169.392V176.448C54.7753 176.608 54.7193 176.744 54.6073 176.856C54.4953 176.952 54.3593 177 54.1993 177H53.0233ZM66.3461 177.24C64.6981 177.24 63.3781 176.736 62.3861 175.728C61.4101 174.704 60.8741 173.312 60.7781 171.552L60.7541 170.736L60.7781 169.944C60.8901 168.216 61.4341 166.84 62.4101 165.816C63.4021 164.792 64.7061 164.28 66.3221 164.28C68.0981 164.28 69.4741 164.848 70.4501 165.984C71.4261 167.104 71.9141 168.624 71.9141 170.544V170.952C71.9141 171.112 71.8581 171.248 71.7461 171.36C71.6501 171.456 71.5221 171.504 71.3621 171.504H63.0581V171.72C63.1061 172.76 63.4181 173.648 63.9941 174.384C64.5861 175.104 65.3621 175.464 66.3221 175.464C67.0581 175.464 67.6581 175.32 68.1221 175.032C68.6021 174.728 68.9541 174.416 69.1781 174.096C69.3221 173.904 69.4261 173.792 69.4901 173.76C69.5701 173.712 69.7061 173.688 69.8981 173.688H71.0741C71.2181 173.688 71.3381 173.728 71.4341 173.808C71.5301 173.888 71.5781 174 71.5781 174.144C71.5781 174.496 71.3541 174.92 70.9061 175.416C70.4741 175.912 69.8581 176.344 69.0581 176.712C68.2741 177.064 67.3701 177.24 66.3461 177.24ZM69.6341 169.848V169.776C69.6341 168.672 69.3301 167.776 68.7221 167.088C68.1301 166.384 67.3301 166.032 66.3221 166.032C65.3141 166.032 64.5141 166.384 63.9221 167.088C63.3461 167.776 63.0581 168.672 63.0581 169.776V169.848H69.6341ZM81.2186 177C81.0586 177 80.9226 176.952 80.8106 176.856C80.7146 176.744 80.6666 176.608 80.6666 176.448V165.096C80.6666 164.936 80.7146 164.8 80.8106 164.688C80.9226 164.576 81.0586 164.52 81.2186 164.52H82.3226C82.4826 164.52 82.6186 164.576 82.7306 164.688C82.8426 164.8 82.8986 164.936 82.8986 165.096V166.152C83.5546 165.064 84.6746 164.52 86.2586 164.52H87.1946C87.3546 164.52 87.4826 164.576 87.5786 164.688C87.6906 164.784 87.7466 164.912 87.7466 165.072V166.056C87.7466 166.216 87.6906 166.344 87.5786 166.44C87.4826 166.536 87.3546 166.584 87.1946 166.584H85.7546C84.8906 166.584 84.2106 166.84 83.7146 167.352C83.2186 167.848 82.9706 168.528 82.9706 169.392V176.448C82.9706 176.608 82.9146 176.744 82.8026 176.856C82.6906 176.952 82.5546 177 82.3946 177H81.2186ZM90.1438 162.192C89.9838 162.192 89.8478 162.144 89.7358 162.048C89.6398 161.936 89.5918 161.8 89.5918 161.64V160.344C89.5918 160.184 89.6398 160.048 89.7358 159.936C89.8478 159.824 89.9838 159.768 90.1438 159.768H91.6558C91.8158 159.768 91.9518 159.824 92.0638 159.936C92.1758 160.048 92.2318 160.184 92.2318 160.344V161.64C92.2318 161.8 92.1758 161.936 92.0638 162.048C91.9518 162.144 91.8158 162.192 91.6558 162.192H90.1438ZM90.3358 177C90.1758 177 90.0398 176.952 89.9278 176.856C89.8318 176.744 89.7838 176.608 89.7838 176.448V165.072C89.7838 164.912 89.8318 164.784 89.9278 164.688C90.0398 164.576 90.1758 164.52 90.3358 164.52H91.4878C91.6478 164.52 91.7758 164.576 91.8718 164.688C91.9838 164.784 92.0398 164.912 92.0398 165.072V176.448C92.0398 176.608 91.9838 176.744 91.8718 176.856C91.7758 176.952 91.6478 177 91.4878 177H90.3358ZM99.9163 177.24C98.7963 177.24 97.8523 177.064 97.0843 176.712C96.3323 176.344 95.7643 175.928 95.3803 175.464C95.0123 175 94.8283 174.616 94.8283 174.312C94.8283 174.152 94.8843 174.032 94.9963 173.952C95.1243 173.856 95.2523 173.808 95.3803 173.808H96.4603C96.6203 173.808 96.7643 173.888 96.8923 174.048C97.2763 174.496 97.6923 174.848 98.1403 175.104C98.5883 175.36 99.1883 175.488 99.9403 175.488C100.772 175.488 101.444 175.328 101.956 175.008C102.484 174.672 102.748 174.216 102.748 173.64C102.748 173.256 102.636 172.944 102.412 172.704C102.204 172.448 101.836 172.232 101.308 172.056C100.796 171.864 100.028 171.656 99.0043 171.432C97.6123 171.128 96.6203 170.688 96.0283 170.112C95.4523 169.536 95.1643 168.792 95.1643 167.88C95.1643 167.272 95.3403 166.696 95.6923 166.152C96.0603 165.592 96.5883 165.144 97.2763 164.808C97.9803 164.456 98.8203 164.28 99.7963 164.28C100.82 164.28 101.692 164.448 102.412 164.784C103.132 165.12 103.668 165.52 104.02 165.984C104.388 166.432 104.572 166.808 104.572 167.112C104.572 167.256 104.516 167.376 104.404 167.472C104.308 167.568 104.188 167.616 104.044 167.616H103.036C102.844 167.616 102.684 167.536 102.556 167.376C102.3 167.072 102.076 166.84 101.884 166.68C101.708 166.504 101.444 166.352 101.092 166.224C100.756 166.096 100.324 166.032 99.7963 166.032C99.0283 166.032 98.4363 166.2 98.0203 166.536C97.6043 166.856 97.3963 167.28 97.3963 167.808C97.3963 168.144 97.4843 168.432 97.6603 168.672C97.8363 168.896 98.1723 169.104 98.6683 169.296C99.1803 169.488 99.9163 169.688 100.876 169.896C102.396 170.216 103.468 170.68 104.092 171.288C104.732 171.88 105.052 172.64 105.052 173.568C105.052 174.256 104.852 174.88 104.452 175.44C104.052 176 103.46 176.44 102.676 176.76C101.908 177.08 100.988 177.24 99.9163 177.24ZM112.487 177.24C110.967 177.24 109.791 176.752 108.959 175.776C108.127 174.784 107.711 173.472 107.711 171.84V165.072C107.711 164.912 107.759 164.784 107.855 164.688C107.967 164.576 108.103 164.52 108.263 164.52H109.463C109.623 164.52 109.751 164.576 109.847 164.688C109.959 164.784 110.015 164.912 110.015 165.072V171.72C110.015 174.104 111.055 175.296 113.135 175.296C114.143 175.296 114.943 174.984 115.535 174.36C116.127 173.72 116.423 172.84 116.423 171.72V165.072C116.423 164.912 116.471 164.784 116.567 164.688C116.679 164.576 116.815 164.52 116.975 164.52H118.175C118.335 164.52 118.463 164.576 118.559 164.688C118.655 164.784 118.703 164.912 118.703 165.072V176.448C118.703 176.608 118.655 176.744 118.559 176.856C118.463 176.952 118.335 177 118.175 177H117.047C116.887 177 116.751 176.952 116.639 176.856C116.543 176.744 116.495 176.608 116.495 176.448V175.392C116.047 176 115.503 176.464 114.863 176.784C114.223 177.088 113.431 177.24 112.487 177.24ZM126.588 177.24C125.468 177.24 124.524 177.064 123.756 176.712C123.004 176.344 122.436 175.928 122.052 175.464C121.684 175 121.5 174.616 121.5 174.312C121.5 174.152 121.556 174.032 121.668 173.952C121.796 173.856 121.924 173.808 122.052 173.808H123.132C123.292 173.808 123.436 173.888 123.564 174.048C123.948 174.496 124.364 174.848 124.812 175.104C125.26 175.36 125.86 175.488 126.612 175.488C127.444 175.488 128.116 175.328 128.628 175.008C129.156 174.672 129.42 174.216 129.42 173.64C129.42 173.256 129.308 172.944 129.084 172.704C128.876 172.448 128.508 172.232 127.98 172.056C127.468 171.864 126.7 171.656 125.676 171.432C124.284 171.128 123.292 170.688 122.7 170.112C122.124 169.536 121.836 168.792 121.836 167.88C121.836 167.272 122.012 166.696 122.364 166.152C122.732 165.592 123.26 165.144 123.948 164.808C124.652 164.456 125.492 164.28 126.468 164.28C127.492 164.28 128.364 164.448 129.084 164.784C129.804 165.12 130.34 165.52 130.692 165.984C131.06 166.432 131.244 166.808 131.244 167.112C131.244 167.256 131.188 167.376 131.076 167.472C130.98 167.568 130.86 167.616 130.716 167.616H129.708C129.516 167.616 129.356 167.536 129.228 167.376C128.972 167.072 128.748 166.84 128.556 166.68C128.38 166.504 128.116 166.352 127.764 166.224C127.428 166.096 126.996 166.032 126.468 166.032C125.7 166.032 125.108 166.2 124.692 166.536C124.276 166.856 124.068 167.28 124.068 167.808C124.068 168.144 124.156 168.432 124.332 168.672C124.508 168.896 124.844 169.104 125.34 169.296C125.852 169.488 126.588 169.688 127.548 169.896C129.068 170.216 130.14 170.68 130.764 171.288C131.404 171.88 131.724 172.64 131.724 173.568C131.724 174.256 131.524 174.88 131.124 175.44C130.724 176 130.132 176.44 129.348 176.76C128.58 177.08 127.66 177.24 126.588 177.24ZM134.887 177C134.727 177 134.591 176.952 134.479 176.856C134.383 176.744 134.335 176.608 134.335 176.448V174.72C134.335 174.56 134.383 174.432 134.479 174.336C134.591 174.224 134.727 174.168 134.887 174.168H136.615C136.775 174.168 136.911 174.224 137.023 174.336C137.135 174.432 137.191 174.56 137.191 174.72V176.448C137.191 176.608 137.135 176.744 137.023 176.856C136.911 176.952 136.775 177 136.615 177H134.887Z" fill="white"/>
</svg>
