<svg width="350" height="70" viewBox="0 0 350 70" fill="none" xmlns="http://www.w3.org/2000/svg">
<rect opacity="0.5" width="350" height="70" rx="35" fill="#160E33"/>
<path d="M49.1945 38.3C46.5345 38.3 44.5445 37.56 43.2245 36.08C41.9245 34.6 41.2145 32.66 41.0945 30.26C41.0745 29.72 41.0645 28.8 41.0645 27.5C41.0645 26.18 41.0745 25.24 41.0945 24.68C41.1945 22.32 41.9145 20.4 43.2545 18.92C44.5945 17.44 46.5745 16.7 49.1945 16.7C51.8345 16.7 53.8245 17.44 55.1645 18.92C56.5045 20.4 57.2145 22.32 57.2945 24.68C57.3345 25.24 57.3545 26.18 57.3545 27.5C57.3545 28.8 57.3345 29.72 57.2945 30.26C57.1945 32.66 56.4845 34.6 55.1645 36.08C53.8645 37.56 51.8745 38.3 49.1945 38.3ZM49.1945 34.85C50.4545 34.85 51.3945 34.44 52.0145 33.62C52.6345 32.78 52.9645 31.61 53.0045 30.11C53.0445 28.95 53.0645 28.07 53.0645 27.47C53.0645 26.81 53.0445 25.94 53.0045 24.86C52.9645 23.38 52.6345 22.22 52.0145 21.38C51.3945 20.54 50.4545 20.12 49.1945 20.12C47.9545 20.12 47.0145 20.54 46.3745 21.38C45.7545 22.22 45.4245 23.38 45.3845 24.86C45.3645 25.4 45.3545 26.27 45.3545 27.47C45.3545 28.65 45.3645 29.53 45.3845 30.11C45.4245 31.61 45.7545 32.78 46.3745 33.62C47.0145 34.44 47.9545 34.85 49.1945 34.85ZM61.1413 38C60.9413 38 60.7713 37.93 60.6313 37.79C60.4913 37.65 60.4213 37.48 60.4213 37.28V35.75C60.4213 35.21 60.6713 34.74 61.1713 34.34L65.9113 29.63C67.9713 28.01 69.4013 26.75 70.2013 25.85C71.0213 24.93 71.4313 24.03 71.4313 23.15C71.4313 22.21 71.1713 21.47 70.6513 20.93C70.1513 20.39 69.3913 20.12 68.3713 20.12C67.3713 20.12 66.5813 20.42 66.0013 21.02C65.4213 21.6 65.0613 22.36 64.9213 23.3C64.8613 23.54 64.7513 23.72 64.5913 23.84C64.4313 23.94 64.2513 23.99 64.0513 23.99H61.3813C61.2013 23.99 61.0513 23.93 60.9313 23.81C60.8113 23.69 60.7513 23.55 60.7513 23.39C60.7913 22.21 61.1113 21.11 61.7113 20.09C62.3113 19.05 63.1813 18.22 64.3213 17.6C65.4613 16.96 66.8013 16.64 68.3413 16.64C69.9413 16.64 71.2913 16.92 72.3913 17.48C73.5113 18.02 74.3513 18.77 74.9113 19.73C75.4713 20.69 75.7513 21.78 75.7513 23C75.7513 24.34 75.3713 25.55 74.6113 26.63C73.8713 27.71 72.7313 28.87 71.1913 30.11L66.9313 34.43H75.4813C75.7013 34.43 75.8713 34.5 75.9913 34.64C76.1313 34.76 76.2013 34.93 76.2013 35.15V37.28C76.2013 37.48 76.1313 37.65 75.9913 37.79C75.8713 37.93 75.7013 38 75.4813 38H61.1413Z" fill="#EF443B"/>
<path d="M43.5404 58C43.4537 58 43.38 57.974 43.3194 57.922C43.2674 57.8613 43.2414 57.7877 43.2414 57.701V49.212C43.2414 49.1167 43.2674 49.043 43.3194 48.991C43.38 48.9303 43.4537 48.9 43.5404 48.9H46.4914C47.8 48.9 48.7447 49.1947 49.3254 49.784C49.906 50.3647 50.2094 51.2443 50.2354 52.423C50.244 52.6743 50.2484 53.0123 50.2484 53.437C50.2484 53.8617 50.244 54.204 50.2354 54.464C50.2094 55.2873 50.0707 55.959 49.8194 56.479C49.5767 56.9903 49.191 57.3717 48.6624 57.623C48.1337 57.8743 47.4317 58 46.5564 58H43.5404ZM46.4914 56.895C47.0894 56.895 47.5617 56.8127 47.9084 56.648C48.2637 56.4833 48.5194 56.2233 48.6754 55.868C48.84 55.504 48.931 55.0187 48.9484 54.412C48.9657 53.892 48.9744 53.567 48.9744 53.437C48.9744 53.2983 48.9657 52.9777 48.9484 52.475C48.931 51.617 48.7274 50.993 48.3374 50.603C47.9474 50.2043 47.3104 50.005 46.4264 50.005H44.5154V56.895H46.4914ZM51.4409 58C51.3716 58 51.3109 57.974 51.2589 57.922C51.2069 57.87 51.1809 57.8093 51.1809 57.74C51.1809 57.6707 51.1852 57.623 51.1939 57.597L54.4179 49.186C54.4872 48.9953 54.6259 48.9 54.8339 48.9H55.7179C55.9259 48.9 56.0646 48.9953 56.1339 49.186L59.3449 57.597L59.3709 57.74C59.3709 57.8093 59.3449 57.87 59.2929 57.922C59.2409 57.974 59.1802 58 59.1109 58H58.4479C58.3526 58 58.2789 57.9783 58.2269 57.935C58.1749 57.883 58.1402 57.831 58.1229 57.779L57.4079 55.933H53.1439L52.4289 57.779C52.4116 57.831 52.3726 57.883 52.3119 57.935C52.2599 57.9783 52.1906 58 52.1039 58H51.4409ZM57.0309 54.815L55.2759 50.2L53.5209 54.815H57.0309ZM62.5514 58C62.4648 58 62.3911 57.974 62.3304 57.922C62.2784 57.8613 62.2524 57.7877 62.2524 57.701V54.633L59.1194 49.329C59.1194 49.3117 59.1151 49.2857 59.1064 49.251C59.0891 49.2163 59.0804 49.186 59.0804 49.16C59.0804 49.0907 59.1064 49.03 59.1584 48.978C59.2104 48.926 59.2711 48.9 59.3404 48.9H60.0164C60.1638 48.9 60.2764 48.9737 60.3544 49.121L62.8894 53.333L65.4244 49.121C65.5198 48.9737 65.6368 48.9 65.7754 48.9H66.4384C66.5164 48.9 66.5814 48.926 66.6334 48.978C66.6854 49.03 66.7114 49.0907 66.7114 49.16C66.7114 49.2033 66.6941 49.2597 66.6594 49.329L63.5394 54.633V57.701C63.5394 57.7877 63.5091 57.8613 63.4484 57.922C63.3878 57.974 63.3141 58 63.2274 58H62.5514ZM70.8587 58.13C70.1394 58.13 69.5154 58.0173 68.9867 57.792C68.4667 57.5667 68.0681 57.272 67.7907 56.908C67.5134 56.5353 67.3661 56.1367 67.3487 55.712C67.3487 55.6427 67.3747 55.582 67.4267 55.53C67.4874 55.4693 67.5567 55.439 67.6347 55.439H68.2977C68.4624 55.439 68.5751 55.5257 68.6357 55.699C68.7137 56.063 68.9347 56.375 69.2987 56.635C69.6714 56.895 70.1914 57.025 70.8587 57.025C71.5781 57.025 72.1197 56.8993 72.4837 56.648C72.8477 56.388 73.0297 56.0283 73.0297 55.569C73.0297 55.2743 72.9387 55.036 72.7567 54.854C72.5834 54.672 72.3234 54.5117 71.9767 54.373C71.6301 54.2343 71.1101 54.061 70.4167 53.853C69.7407 53.6623 69.2034 53.4587 68.8047 53.242C68.4061 53.0253 68.1071 52.7567 67.9077 52.436C67.7084 52.1153 67.6087 51.7123 67.6087 51.227C67.6087 50.759 67.7344 50.3387 67.9857 49.966C68.2457 49.5933 68.6141 49.303 69.0907 49.095C69.5674 48.8783 70.1351 48.77 70.7937 48.77C71.4697 48.77 72.0504 48.8913 72.5357 49.134C73.0211 49.368 73.3894 49.667 73.6407 50.031C73.8921 50.395 74.0264 50.759 74.0437 51.123C74.0437 51.1923 74.0177 51.253 73.9657 51.305C73.9224 51.357 73.8574 51.383 73.7707 51.383H73.0817C72.8997 51.383 72.7871 51.3007 72.7437 51.136C72.6917 50.772 72.4881 50.473 72.1327 50.239C71.7774 49.9963 71.3311 49.875 70.7937 49.875C70.2044 49.875 69.7407 49.9877 69.4027 50.213C69.0647 50.4383 68.8957 50.772 68.8957 51.214C68.8957 51.5087 68.9737 51.7513 69.1297 51.942C69.2944 52.1327 69.5414 52.3017 69.8707 52.449C70.2001 52.5877 70.6811 52.748 71.3137 52.93C72.0504 53.1293 72.6311 53.3373 73.0557 53.554C73.4804 53.762 73.7967 54.0263 74.0047 54.347C74.2127 54.659 74.3167 55.0577 74.3167 55.543C74.3167 56.349 74.0047 56.9817 73.3807 57.441C72.7567 57.9003 71.9161 58.13 70.8587 58.13Z" fill="white"/>
<path d="M88.5329 35.45C88.4462 35.45 88.3726 35.424 88.3119 35.372C88.2599 35.3113 88.2339 35.2377 88.2339 35.151V34.241C88.2339 34.1543 88.2599 34.085 88.3119 34.033C88.3726 33.9723 88.4462 33.942 88.5329 33.942H89.4689C89.5556 33.942 89.6249 33.9723 89.6769 34.033C89.7376 34.085 89.7679 34.1543 89.7679 34.241V35.151C89.7679 35.2377 89.7376 35.3113 89.6769 35.372C89.6249 35.424 89.5556 35.45 89.4689 35.45H88.5329ZM88.5329 40C88.4462 40 88.3726 39.974 88.3119 39.922C88.2599 39.8613 88.2339 39.7877 88.2339 39.701V38.791C88.2339 38.7043 88.2599 38.635 88.3119 38.583C88.3726 38.5223 88.4462 38.492 88.5329 38.492H89.4689C89.5556 38.492 89.6249 38.5223 89.6769 38.583C89.7376 38.635 89.7679 38.7043 89.7679 38.791V39.701C89.7679 39.7877 89.7376 39.8613 89.6769 39.922C89.6249 39.974 89.5556 40 89.4689 40H88.5329Z" fill="white"/>
<path d="M115.08 38C114.88 38 114.71 37.93 114.57 37.79C114.43 37.65 114.36 37.48 114.36 37.28V21.74L109.8 25.25C109.68 25.35 109.54 25.4 109.38 25.4C109.14 25.4 108.94 25.29 108.78 25.07L107.52 23.45C107.42 23.29 107.37 23.14 107.37 23C107.37 22.76 107.48 22.56 107.7 22.4L114.42 17.21C114.6 17.07 114.85 17 115.17 17H117.81C118.03 17 118.2 17.07 118.32 17.21C118.46 17.33 118.53 17.5 118.53 17.72V37.28C118.53 37.48 118.46 37.65 118.32 37.79C118.2 37.93 118.03 38 117.81 38H115.08ZM122.726 38C122.526 38 122.356 37.93 122.216 37.79C122.076 37.65 122.006 37.48 122.006 37.28V35.75C122.006 35.21 122.256 34.74 122.756 34.34L127.496 29.63C129.556 28.01 130.986 26.75 131.786 25.85C132.606 24.93 133.016 24.03 133.016 23.15C133.016 22.21 132.756 21.47 132.236 20.93C131.736 20.39 130.976 20.12 129.956 20.12C128.956 20.12 128.166 20.42 127.586 21.02C127.006 21.6 126.646 22.36 126.506 23.3C126.446 23.54 126.336 23.72 126.176 23.84C126.016 23.94 125.836 23.99 125.636 23.99H122.966C122.786 23.99 122.636 23.93 122.516 23.81C122.396 23.69 122.336 23.55 122.336 23.39C122.376 22.21 122.696 21.11 123.296 20.09C123.896 19.05 124.766 18.22 125.906 17.6C127.046 16.96 128.386 16.64 129.926 16.64C131.526 16.64 132.876 16.92 133.976 17.48C135.096 18.02 135.936 18.77 136.496 19.73C137.056 20.69 137.336 21.78 137.336 23C137.336 24.34 136.956 25.55 136.196 26.63C135.456 27.71 134.316 28.87 132.776 30.11L128.516 34.43H137.066C137.286 34.43 137.456 34.5 137.576 34.64C137.716 34.76 137.786 34.93 137.786 35.15V37.28C137.786 37.48 137.716 37.65 137.576 37.79C137.456 37.93 137.286 38 137.066 38H122.726Z" fill="#EF443B"/>
<path d="M102.531 58C102.444 58 102.37 57.974 102.31 57.922C102.258 57.8613 102.232 57.7877 102.232 57.701V49.212C102.232 49.1167 102.258 49.043 102.31 48.991C102.37 48.9303 102.444 48.9 102.531 48.9H103.194C103.289 48.9 103.363 48.9303 103.415 48.991C103.475 49.043 103.506 49.1167 103.506 49.212V52.8H107.978V49.212C107.978 49.1167 108.004 49.043 108.056 48.991C108.116 48.9303 108.19 48.9 108.277 48.9H108.94C109.035 48.9 109.109 48.9303 109.161 48.991C109.221 49.043 109.252 49.1167 109.252 49.212V57.701C109.252 57.7877 109.221 57.8613 109.161 57.922C109.1 57.974 109.026 58 108.94 58H108.277C108.19 58 108.116 57.974 108.056 57.922C108.004 57.8613 107.978 57.7877 107.978 57.701V53.97H103.506V57.701C103.506 57.7877 103.475 57.8613 103.415 57.922C103.354 57.974 103.28 58 103.194 58H102.531ZM114.788 58.13C113.653 58.13 112.773 57.8353 112.149 57.246C111.534 56.648 111.209 55.751 111.174 54.555C111.165 54.295 111.161 53.9267 111.161 53.45C111.161 52.9733 111.165 52.6093 111.174 52.358C111.209 51.188 111.547 50.2997 112.188 49.693C112.829 49.0777 113.696 48.77 114.788 48.77C115.871 48.77 116.734 49.0777 117.375 49.693C118.016 50.2997 118.354 51.188 118.389 52.358C118.406 52.8607 118.415 53.2247 118.415 53.45C118.415 53.6667 118.406 54.035 118.389 54.555C118.354 55.751 118.025 56.648 117.401 57.246C116.786 57.8353 115.915 58.13 114.788 58.13ZM114.788 57.025C115.473 57.025 116.019 56.817 116.426 56.401C116.833 55.985 117.054 55.348 117.089 54.49C117.106 53.97 117.115 53.6233 117.115 53.45C117.115 53.2593 117.106 52.9127 117.089 52.41C117.054 51.552 116.829 50.915 116.413 50.499C116.006 50.083 115.464 49.875 114.788 49.875C114.103 49.875 113.553 50.083 113.137 50.499C112.73 50.915 112.509 51.552 112.474 52.41C112.465 52.6613 112.461 53.008 112.461 53.45C112.461 53.8833 112.465 54.23 112.474 54.49C112.509 55.348 112.73 55.985 113.137 56.401C113.553 56.817 114.103 57.025 114.788 57.025ZM123.742 58.13C122.624 58.13 121.757 57.831 121.142 57.233C120.535 56.6263 120.232 55.712 120.232 54.49V49.212C120.232 49.1167 120.258 49.043 120.31 48.991C120.37 48.9303 120.444 48.9 120.531 48.9H121.194C121.289 48.9 121.363 48.9303 121.415 48.991C121.475 49.043 121.506 49.1167 121.506 49.212V54.516C121.506 55.348 121.701 55.972 122.091 56.388C122.481 56.804 123.031 57.012 123.742 57.012C124.452 57.012 125.003 56.804 125.393 56.388C125.783 55.972 125.978 55.348 125.978 54.516V49.212C125.978 49.1167 126.004 49.043 126.056 48.991C126.116 48.9303 126.19 48.9 126.277 48.9H126.953C127.039 48.9 127.109 48.9303 127.161 48.991C127.221 49.0517 127.252 49.1253 127.252 49.212V54.49C127.252 55.712 126.944 56.6263 126.329 57.233C125.722 57.831 124.86 58.13 123.742 58.13ZM129.724 58C129.637 58 129.564 57.974 129.503 57.922C129.451 57.8613 129.425 57.7877 129.425 57.701V49.212C129.425 49.1167 129.451 49.043 129.503 48.991C129.564 48.9303 129.637 48.9 129.724 48.9H132.896C133.893 48.9 134.673 49.134 135.236 49.602C135.799 50.07 136.081 50.746 136.081 51.63C136.081 52.2887 135.916 52.8303 135.587 53.255C135.266 53.6797 134.811 53.9743 134.222 54.139L136.224 57.597C136.25 57.649 136.263 57.6967 136.263 57.74C136.263 57.8093 136.233 57.87 136.172 57.922C136.12 57.974 136.059 58 135.99 58H135.366C135.236 58 135.132 57.9697 135.054 57.909C134.985 57.8483 134.92 57.7617 134.859 57.649L132.974 54.347H130.699V57.701C130.699 57.7877 130.669 57.8613 130.608 57.922C130.547 57.974 130.474 58 130.387 58H129.724ZM132.844 53.242C134.135 53.242 134.781 52.7003 134.781 51.617C134.781 50.5337 134.135 49.992 132.844 49.992H130.699V53.242H132.844ZM140.869 58.13C140.149 58.13 139.525 58.0173 138.997 57.792C138.477 57.5667 138.078 57.272 137.801 56.908C137.523 56.5353 137.376 56.1367 137.359 55.712C137.359 55.6427 137.385 55.582 137.437 55.53C137.497 55.4693 137.567 55.439 137.645 55.439H138.308C138.472 55.439 138.585 55.5257 138.646 55.699C138.724 56.063 138.945 56.375 139.309 56.635C139.681 56.895 140.201 57.025 140.869 57.025C141.588 57.025 142.13 56.8993 142.494 56.648C142.858 56.388 143.04 56.0283 143.04 55.569C143.04 55.2743 142.949 55.036 142.767 54.854C142.593 54.672 142.333 54.5117 141.987 54.373C141.64 54.2343 141.12 54.061 140.427 53.853C139.751 53.6623 139.213 53.4587 138.815 53.242C138.416 53.0253 138.117 52.7567 137.918 52.436C137.718 52.1153 137.619 51.7123 137.619 51.227C137.619 50.759 137.744 50.3387 137.996 49.966C138.256 49.5933 138.624 49.303 139.101 49.095C139.577 48.8783 140.145 48.77 140.804 48.77C141.48 48.77 142.06 48.8913 142.546 49.134C143.031 49.368 143.399 49.667 143.651 50.031C143.902 50.395 144.036 50.759 144.054 51.123C144.054 51.1923 144.028 51.253 143.975 51.305C143.932 51.357 143.867 51.383 143.781 51.383H143.092C142.91 51.383 142.797 51.3007 142.754 51.136C142.702 50.772 142.498 50.473 142.143 50.239C141.787 49.9963 141.341 49.875 140.804 49.875C140.214 49.875 139.751 49.9877 139.413 50.213C139.075 50.4383 138.906 50.772 138.906 51.214C138.906 51.5087 138.984 51.7513 139.14 51.942C139.304 52.1327 139.551 52.3017 139.881 52.449C140.21 52.5877 140.691 52.748 141.324 52.93C142.06 53.1293 142.641 53.3373 143.066 53.554C143.49 53.762 143.807 54.0263 144.015 54.347C144.223 54.659 144.327 55.0577 144.327 55.543C144.327 56.349 144.015 56.9817 143.391 57.441C142.767 57.9003 141.926 58.13 140.869 58.13Z" fill="white"/>
<path d="M157.533 35.45C157.446 35.45 157.373 35.424 157.312 35.372C157.26 35.3113 157.234 35.2377 157.234 35.151V34.241C157.234 34.1543 157.26 34.085 157.312 34.033C157.373 33.9723 157.446 33.942 157.533 33.942H158.469C158.556 33.942 158.625 33.9723 158.677 34.033C158.738 34.085 158.768 34.1543 158.768 34.241V35.151C158.768 35.2377 158.738 35.3113 158.677 35.372C158.625 35.424 158.556 35.45 158.469 35.45H157.533ZM157.533 40C157.446 40 157.373 39.974 157.312 39.922C157.26 39.8613 157.234 39.7877 157.234 39.701V38.791C157.234 38.7043 157.26 38.635 157.312 38.583C157.373 38.5223 157.446 38.492 157.533 38.492H158.469C158.556 38.492 158.625 38.5223 158.677 38.583C158.738 38.635 158.768 38.7043 158.768 38.791V39.701C158.768 39.7877 158.738 39.8613 158.677 39.922C158.625 39.974 158.556 40 158.469 40H157.533Z" fill="white"/>
<path d="M181.335 38C181.135 38 180.965 37.93 180.825 37.79C180.685 37.65 180.615 37.48 180.615 37.28V35.75C180.615 35.21 180.865 34.74 181.365 34.34L186.105 29.63C188.165 28.01 189.595 26.75 190.395 25.85C191.215 24.93 191.625 24.03 191.625 23.15C191.625 22.21 191.365 21.47 190.845 20.93C190.345 20.39 189.585 20.12 188.565 20.12C187.565 20.12 186.775 20.42 186.195 21.02C185.615 21.6 185.255 22.36 185.115 23.3C185.055 23.54 184.945 23.72 184.785 23.84C184.625 23.94 184.445 23.99 184.245 23.99H181.575C181.395 23.99 181.245 23.93 181.125 23.81C181.005 23.69 180.945 23.55 180.945 23.39C180.985 22.21 181.305 21.11 181.905 20.09C182.505 19.05 183.375 18.22 184.515 17.6C185.655 16.96 186.995 16.64 188.535 16.64C190.135 16.64 191.485 16.92 192.585 17.48C193.705 18.02 194.545 18.77 195.105 19.73C195.665 20.69 195.945 21.78 195.945 23C195.945 24.34 195.565 25.55 194.805 26.63C194.065 27.71 192.925 28.87 191.385 30.11L187.125 34.43H195.675C195.895 34.43 196.065 34.5 196.185 34.64C196.325 34.76 196.395 34.93 196.395 35.15V37.28C196.395 37.48 196.325 37.65 196.185 37.79C196.065 37.93 195.895 38 195.675 38H181.335ZM207.169 38.3C205.409 38.3 203.909 38.02 202.669 37.46C201.449 36.9 200.529 36.2 199.909 35.36C199.309 34.5 198.989 33.62 198.949 32.72C198.949 32.54 199.009 32.4 199.129 32.3C199.269 32.18 199.429 32.12 199.609 32.12H202.309C202.749 32.12 203.039 32.32 203.179 32.72C203.619 34.16 204.959 34.88 207.199 34.88C208.419 34.88 209.379 34.6 210.079 34.04C210.779 33.46 211.129 32.64 211.129 31.58C211.129 29.58 209.879 28.58 207.379 28.58H204.289C204.069 28.58 203.889 28.51 203.749 28.37C203.609 28.23 203.539 28.06 203.539 27.86V26.6C203.539 26.28 203.679 25.98 203.959 25.7L209.329 20.45H200.749C200.549 20.45 200.379 20.38 200.239 20.24C200.099 20.1 200.029 19.93 200.029 19.73V17.75C200.029 17.53 200.089 17.35 200.209 17.21C200.349 17.07 200.529 17 200.749 17H213.619C213.839 17 214.019 17.07 214.159 17.21C214.299 17.35 214.369 17.53 214.369 17.75V19.55C214.369 19.85 214.239 20.13 213.979 20.39L208.789 25.73L209.149 25.76C211.069 25.92 212.589 26.5 213.709 27.5C214.849 28.5 215.419 29.93 215.419 31.79C215.419 33.11 215.059 34.26 214.339 35.24C213.639 36.22 212.659 36.98 211.399 37.52C210.159 38.04 208.749 38.3 207.169 38.3Z" fill="#EF443B"/>
<path d="M171.665 58C171.579 58 171.505 57.974 171.444 57.922C171.392 57.8613 171.366 57.7877 171.366 57.701V49.212C171.366 49.1167 171.392 49.043 171.444 48.991C171.505 48.9303 171.579 48.9 171.665 48.9H172.315C172.454 48.9 172.567 48.9693 172.653 49.108L175.396 54.36L178.165 49.108C178.183 49.056 178.217 49.0083 178.269 48.965C178.33 48.9217 178.404 48.9 178.49 48.9H179.127C179.223 48.9 179.296 48.9303 179.348 48.991C179.409 49.043 179.439 49.1167 179.439 49.212V57.701C179.439 57.7877 179.409 57.8613 179.348 57.922C179.288 57.974 179.214 58 179.127 58H178.49C178.404 58 178.33 57.974 178.269 57.922C178.217 57.8613 178.191 57.7877 178.191 57.701V51.305L176.02 55.543C175.934 55.725 175.795 55.816 175.604 55.816H175.201C175.011 55.816 174.872 55.725 174.785 55.543L172.601 51.305V57.701C172.601 57.7877 172.571 57.8613 172.51 57.922C172.458 57.974 172.389 58 172.302 58H171.665ZM181.987 58C181.9 58 181.826 57.974 181.766 57.922C181.714 57.8613 181.688 57.7877 181.688 57.701V49.199C181.688 49.1123 181.714 49.043 181.766 48.991C181.826 48.9303 181.9 48.9 181.987 48.9H182.676C182.762 48.9 182.832 48.9303 182.884 48.991C182.944 49.043 182.975 49.1123 182.975 49.199V57.701C182.975 57.7877 182.944 57.8613 182.884 57.922C182.832 57.974 182.762 58 182.676 58H181.987ZM185.541 58C185.455 58 185.381 57.974 185.32 57.922C185.268 57.8613 185.242 57.7877 185.242 57.701V49.212C185.242 49.1167 185.268 49.043 185.32 48.991C185.381 48.9303 185.455 48.9 185.541 48.9H186.139C186.295 48.9 186.404 48.9607 186.464 49.082L190.78 55.712V49.212C190.78 49.1167 190.806 49.043 190.858 48.991C190.919 48.9303 190.993 48.9 191.079 48.9H191.703C191.799 48.9 191.872 48.9303 191.924 48.991C191.985 49.043 192.015 49.1167 192.015 49.212V57.688C192.015 57.7747 191.985 57.8483 191.924 57.909C191.872 57.9697 191.803 58 191.716 58H191.092C190.962 58 190.858 57.9393 190.78 57.818L186.477 51.253V57.701C186.477 57.7877 186.447 57.8613 186.386 57.922C186.326 57.974 186.252 58 186.165 58H185.541ZM197.713 58.13C196.595 58.13 195.729 57.831 195.113 57.233C194.507 56.6263 194.203 55.712 194.203 54.49V49.212C194.203 49.1167 194.229 49.043 194.281 48.991C194.342 48.9303 194.416 48.9 194.502 48.9H195.165C195.261 48.9 195.334 48.9303 195.386 48.991C195.447 49.043 195.477 49.1167 195.477 49.212V54.516C195.477 55.348 195.672 55.972 196.062 56.388C196.452 56.804 197.003 57.012 197.713 57.012C198.424 57.012 198.974 56.804 199.364 56.388C199.754 55.972 199.949 55.348 199.949 54.516V49.212C199.949 49.1167 199.975 49.043 200.027 48.991C200.088 48.9303 200.162 48.9 200.248 48.9H200.924C201.011 48.9 201.08 48.9303 201.132 48.991C201.193 49.0517 201.223 49.1253 201.223 49.212V54.49C201.223 55.712 200.916 56.6263 200.3 57.233C199.694 57.831 198.831 58.13 197.713 58.13ZM205.685 58C205.598 58 205.524 57.974 205.464 57.922C205.412 57.8613 205.386 57.7877 205.386 57.701V50.057H202.89C202.803 50.057 202.729 50.031 202.669 49.979C202.617 49.9183 202.591 49.8447 202.591 49.758V49.212C202.591 49.1253 202.617 49.0517 202.669 48.991C202.729 48.9303 202.803 48.9 202.89 48.9H209.156C209.251 48.9 209.325 48.9303 209.377 48.991C209.437 49.043 209.468 49.1167 209.468 49.212V49.758C209.468 49.8447 209.437 49.9183 209.377 49.979C209.316 50.031 209.242 50.057 209.156 50.057H206.673V57.701C206.673 57.7877 206.642 57.8613 206.582 57.922C206.521 57.974 206.447 58 206.361 58H205.685ZM211.224 58C211.137 58 211.064 57.974 211.003 57.922C210.951 57.8613 210.925 57.7877 210.925 57.701V49.212C210.925 49.1167 210.951 49.043 211.003 48.991C211.064 48.9303 211.137 48.9 211.224 48.9H216.593C216.68 48.9 216.749 48.9303 216.801 48.991C216.862 49.043 216.892 49.1167 216.892 49.212V49.706C216.892 49.7927 216.866 49.8663 216.814 49.927C216.762 49.979 216.688 50.005 216.593 50.005H212.173V52.852H216.307C216.394 52.852 216.463 52.8823 216.515 52.943C216.576 52.995 216.606 53.0687 216.606 53.164V53.645C216.606 53.7317 216.576 53.8053 216.515 53.866C216.463 53.918 216.394 53.944 216.307 53.944H212.173V56.895H216.697C216.792 56.895 216.866 56.921 216.918 56.973C216.97 57.025 216.996 57.0987 216.996 57.194V57.701C216.996 57.7877 216.966 57.8613 216.905 57.922C216.853 57.974 216.784 58 216.697 58H211.224ZM221.734 58.13C221.014 58.13 220.39 58.0173 219.862 57.792C219.342 57.5667 218.943 57.272 218.666 56.908C218.388 56.5353 218.241 56.1367 218.224 55.712C218.224 55.6427 218.25 55.582 218.302 55.53C218.362 55.4693 218.432 55.439 218.51 55.439H219.173C219.337 55.439 219.45 55.5257 219.511 55.699C219.589 56.063 219.81 56.375 220.174 56.635C220.546 56.895 221.066 57.025 221.734 57.025C222.453 57.025 222.995 56.8993 223.359 56.648C223.723 56.388 223.905 56.0283 223.905 55.569C223.905 55.2743 223.814 55.036 223.632 54.854C223.458 54.672 223.198 54.5117 222.852 54.373C222.505 54.2343 221.985 54.061 221.292 53.853C220.616 53.6623 220.078 53.4587 219.68 53.242C219.281 53.0253 218.982 52.7567 218.783 52.436C218.583 52.1153 218.484 51.7123 218.484 51.227C218.484 50.759 218.609 50.3387 218.861 49.966C219.121 49.5933 219.489 49.303 219.966 49.095C220.442 48.8783 221.01 48.77 221.669 48.77C222.345 48.77 222.925 48.8913 223.411 49.134C223.896 49.368 224.264 49.667 224.516 50.031C224.767 50.395 224.901 50.759 224.919 51.123C224.919 51.1923 224.893 51.253 224.841 51.305C224.797 51.357 224.732 51.383 224.646 51.383H223.957C223.775 51.383 223.662 51.3007 223.619 51.136C223.567 50.772 223.363 50.473 223.008 50.239C222.652 49.9963 222.206 49.875 221.669 49.875C221.079 49.875 220.616 49.9877 220.278 50.213C219.94 50.4383 219.771 50.772 219.771 51.214C219.771 51.5087 219.849 51.7513 220.005 51.942C220.169 52.1327 220.416 52.3017 220.746 52.449C221.075 52.5877 221.556 52.748 222.189 52.93C222.925 53.1293 223.506 53.3373 223.931 53.554C224.355 53.762 224.672 54.0263 224.88 54.347C225.088 54.659 225.192 55.0577 225.192 55.543C225.192 56.349 224.88 56.9817 224.256 57.441C223.632 57.9003 222.791 58.13 221.734 58.13Z" fill="white"/>
<path d="M237.533 35.45C237.446 35.45 237.373 35.424 237.312 35.372C237.26 35.3113 237.234 35.2377 237.234 35.151V34.241C237.234 34.1543 237.26 34.085 237.312 34.033C237.373 33.9723 237.446 33.942 237.533 33.942H238.469C238.556 33.942 238.625 33.9723 238.677 34.033C238.738 34.085 238.768 34.1543 238.768 34.241V35.151C238.768 35.2377 238.738 35.3113 238.677 35.372C238.625 35.424 238.556 35.45 238.469 35.45H237.533ZM237.533 40C237.446 40 237.373 39.974 237.312 39.922C237.26 39.8613 237.234 39.7877 237.234 39.701V38.791C237.234 38.7043 237.26 38.635 237.312 38.583C237.373 38.5223 237.446 38.492 237.533 38.492H238.469C238.556 38.492 238.625 38.5223 238.677 38.583C238.738 38.635 238.768 38.7043 238.768 38.791V39.701C238.768 39.7877 238.738 39.8613 238.677 39.922C238.625 39.974 238.556 40 238.469 40H237.533Z" fill="white"/>
<path d="M270.58 38.3C268.82 38.3 267.32 38.02 266.08 37.46C264.86 36.9 263.94 36.2 263.32 35.36C262.72 34.5 262.4 33.62 262.36 32.72C262.36 32.54 262.42 32.4 262.54 32.3C262.68 32.18 262.84 32.12 263.02 32.12H265.72C266.16 32.12 266.45 32.32 266.59 32.72C267.03 34.16 268.37 34.88 270.61 34.88C271.83 34.88 272.79 34.6 273.49 34.04C274.19 33.46 274.54 32.64 274.54 31.58C274.54 29.58 273.29 28.58 270.79 28.58H267.7C267.48 28.58 267.3 28.51 267.16 28.37C267.02 28.23 266.95 28.06 266.95 27.86V26.6C266.95 26.28 267.09 25.98 267.37 25.7L272.74 20.45H264.16C263.96 20.45 263.79 20.38 263.65 20.24C263.51 20.1 263.44 19.93 263.44 19.73V17.75C263.44 17.53 263.5 17.35 263.62 17.21C263.76 17.07 263.94 17 264.16 17H277.03C277.25 17 277.43 17.07 277.57 17.21C277.71 17.35 277.78 17.53 277.78 17.75V19.55C277.78 19.85 277.65 20.13 277.39 20.39L272.2 25.73L272.56 25.76C274.48 25.92 276 26.5 277.12 27.5C278.26 28.5 278.83 29.93 278.83 31.79C278.83 33.11 278.47 34.26 277.75 35.24C277.05 36.22 276.07 36.98 274.81 37.52C273.57 38.04 272.16 38.3 270.58 38.3ZM289.326 38.33C287.666 38.33 286.236 38.05 285.036 37.49C283.856 36.93 282.946 36.19 282.306 35.27C281.686 34.35 281.356 33.36 281.316 32.3V32.24C281.316 32.08 281.376 31.95 281.496 31.85C281.616 31.75 281.766 31.7 281.946 31.7H284.736C285.196 31.7 285.496 31.9 285.636 32.3C285.916 33.18 286.376 33.83 287.016 34.25C287.676 34.67 288.446 34.88 289.326 34.88C290.446 34.88 291.376 34.54 292.116 33.86C292.876 33.18 293.256 32.23 293.256 31.01C293.256 29.93 292.876 29.05 292.116 28.37C291.376 27.69 290.446 27.35 289.326 27.35C288.726 27.35 288.236 27.43 287.856 27.59C287.476 27.75 287.106 27.97 286.746 28.25C286.506 28.43 286.316 28.56 286.176 28.64C286.056 28.7 285.906 28.73 285.726 28.73H282.966C282.786 28.73 282.626 28.67 282.486 28.55C282.366 28.41 282.306 28.25 282.306 28.07L283.356 17.81C283.376 17.57 283.456 17.38 283.596 17.24C283.756 17.08 283.956 17 284.196 17H295.476C295.676 17 295.846 17.07 295.986 17.21C296.126 17.35 296.196 17.52 296.196 17.72V19.73C296.196 19.93 296.126 20.1 295.986 20.24C295.846 20.38 295.676 20.45 295.476 20.45H286.806L286.326 25.34C287.306 24.66 288.616 24.32 290.256 24.32C291.556 24.32 292.756 24.6 293.856 25.16C294.976 25.7 295.866 26.49 296.526 27.53C297.186 28.55 297.516 29.74 297.516 31.1C297.516 32.56 297.176 33.84 296.496 34.94C295.816 36.02 294.856 36.86 293.616 37.46C292.396 38.04 290.966 38.33 289.326 38.33Z" fill="#EF443B"/>
<path d="M254.343 58.13C253.623 58.13 252.999 58.0173 252.471 57.792C251.951 57.5667 251.552 57.272 251.275 56.908C250.997 56.5353 250.85 56.1367 250.833 55.712C250.833 55.6427 250.859 55.582 250.911 55.53C250.971 55.4693 251.041 55.439 251.119 55.439H251.782C251.946 55.439 252.059 55.5257 252.12 55.699C252.198 56.063 252.419 56.375 252.783 56.635C253.155 56.895 253.675 57.025 254.343 57.025C255.062 57.025 255.604 56.8993 255.968 56.648C256.332 56.388 256.514 56.0283 256.514 55.569C256.514 55.2743 256.423 55.036 256.241 54.854C256.067 54.672 255.807 54.5117 255.461 54.373C255.114 54.2343 254.594 54.061 253.901 53.853C253.225 53.6623 252.687 53.4587 252.289 53.242C251.89 53.0253 251.591 52.7567 251.392 52.436C251.192 52.1153 251.093 51.7123 251.093 51.227C251.093 50.759 251.218 50.3387 251.47 49.966C251.73 49.5933 252.098 49.303 252.575 49.095C253.051 48.8783 253.619 48.77 254.278 48.77C254.954 48.77 255.534 48.8913 256.02 49.134C256.505 49.368 256.873 49.667 257.125 50.031C257.376 50.395 257.51 50.759 257.528 51.123C257.528 51.1923 257.502 51.253 257.45 51.305C257.406 51.357 257.341 51.383 257.255 51.383H256.566C256.384 51.383 256.271 51.3007 256.228 51.136C256.176 50.772 255.972 50.473 255.617 50.239C255.261 49.9963 254.815 49.875 254.278 49.875C253.688 49.875 253.225 49.9877 252.887 50.213C252.549 50.4383 252.38 50.772 252.38 51.214C252.38 51.5087 252.458 51.7513 252.614 51.942C252.778 52.1327 253.025 52.3017 253.355 52.449C253.684 52.5877 254.165 52.748 254.798 52.93C255.534 53.1293 256.115 53.3373 256.54 53.554C256.964 53.762 257.281 54.0263 257.489 54.347C257.697 54.659 257.801 55.0577 257.801 55.543C257.801 56.349 257.489 56.9817 256.865 57.441C256.241 57.9003 255.4 58.13 254.343 58.13ZM259.804 58C259.717 58 259.643 57.974 259.583 57.922C259.531 57.8613 259.505 57.7877 259.505 57.701V49.212C259.505 49.1167 259.531 49.043 259.583 48.991C259.643 48.9303 259.717 48.9 259.804 48.9H265.173C265.259 48.9 265.329 48.9303 265.381 48.991C265.441 49.043 265.472 49.1167 265.472 49.212V49.706C265.472 49.7927 265.446 49.8663 265.394 49.927C265.342 49.979 265.268 50.005 265.173 50.005H260.753V52.852H264.887C264.973 52.852 265.043 52.8823 265.095 52.943C265.155 52.995 265.186 53.0687 265.186 53.164V53.645C265.186 53.7317 265.155 53.8053 265.095 53.866C265.043 53.918 264.973 53.944 264.887 53.944H260.753V56.895H265.277C265.372 56.895 265.446 56.921 265.498 56.973C265.55 57.025 265.576 57.0987 265.576 57.194V57.701C265.576 57.7877 265.545 57.8613 265.485 57.922C265.433 57.974 265.363 58 265.277 58H259.804ZM270.575 58.13C269.414 58.13 268.53 57.818 267.923 57.194C267.325 56.57 267.005 55.7077 266.961 54.607C266.953 54.373 266.948 53.9917 266.948 53.463C266.948 52.9257 266.953 52.5357 266.961 52.293C267.005 51.201 267.33 50.343 267.936 49.719C268.543 49.0863 269.423 48.77 270.575 48.77C271.347 48.77 272.001 48.9087 272.538 49.186C273.076 49.4547 273.483 49.81 273.76 50.252C274.038 50.694 274.189 51.1663 274.215 51.669V51.695C274.215 51.7643 274.185 51.825 274.124 51.877C274.072 51.9203 274.012 51.942 273.942 51.942H273.227C273.054 51.942 272.946 51.8423 272.902 51.643C272.755 50.993 272.491 50.538 272.109 50.278C271.728 50.0093 271.217 49.875 270.575 49.875C269.085 49.875 268.313 50.7027 268.261 52.358C268.253 52.592 268.248 52.9517 268.248 53.437C268.248 53.9223 268.253 54.2907 268.261 54.542C268.313 56.1973 269.085 57.025 270.575 57.025C271.217 57.025 271.728 56.895 272.109 56.635C272.499 56.3663 272.764 55.907 272.902 55.257C272.928 55.1443 272.967 55.0663 273.019 55.023C273.071 54.9797 273.141 54.958 273.227 54.958H273.942C274.02 54.958 274.085 54.984 274.137 55.036C274.198 55.0793 274.224 55.14 274.215 55.218C274.189 55.7293 274.038 56.206 273.76 56.648C273.483 57.09 273.076 57.4497 272.538 57.727C272.001 57.9957 271.347 58.13 270.575 58.13ZM279.234 58.13C278.098 58.13 277.219 57.8353 276.595 57.246C275.979 56.648 275.654 55.751 275.62 54.555C275.611 54.295 275.607 53.9267 275.607 53.45C275.607 52.9733 275.611 52.6093 275.62 52.358C275.654 51.188 275.992 50.2997 276.634 49.693C277.275 49.0777 278.142 48.77 279.234 48.77C280.317 48.77 281.179 49.0777 281.821 49.693C282.462 50.2997 282.8 51.188 282.835 52.358C282.852 52.8607 282.861 53.2247 282.861 53.45C282.861 53.6667 282.852 54.035 282.835 54.555C282.8 55.751 282.471 56.648 281.847 57.246C281.231 57.8353 280.36 58.13 279.234 58.13ZM279.234 57.025C279.918 57.025 280.464 56.817 280.872 56.401C281.279 55.985 281.5 55.348 281.535 54.49C281.552 53.97 281.561 53.6233 281.561 53.45C281.561 53.2593 281.552 52.9127 281.535 52.41C281.5 51.552 281.275 50.915 280.859 50.499C280.451 50.083 279.91 49.875 279.234 49.875C278.549 49.875 277.999 50.083 277.583 50.499C277.175 50.915 276.954 51.552 276.92 52.41C276.911 52.6613 276.907 53.008 276.907 53.45C276.907 53.8833 276.911 54.23 276.92 54.49C276.954 55.348 277.175 55.985 277.583 56.401C277.999 56.817 278.549 57.025 279.234 57.025ZM285.055 58C284.968 58 284.894 57.974 284.834 57.922C284.782 57.8613 284.756 57.7877 284.756 57.701V49.212C284.756 49.1167 284.782 49.043 284.834 48.991C284.894 48.9303 284.968 48.9 285.055 48.9H285.653C285.809 48.9 285.917 48.9607 285.978 49.082L290.294 55.712V49.212C290.294 49.1167 290.32 49.043 290.372 48.991C290.432 48.9303 290.506 48.9 290.593 48.9H291.217C291.312 48.9 291.386 48.9303 291.438 48.991C291.498 49.043 291.529 49.1167 291.529 49.212V57.688C291.529 57.7747 291.498 57.8483 291.438 57.909C291.386 57.9697 291.316 58 291.23 58H290.606C290.476 58 290.372 57.9393 290.294 57.818L285.991 51.253V57.701C285.991 57.7877 285.96 57.8613 285.9 57.922C285.839 57.974 285.765 58 285.679 58H285.055ZM294.094 58C294.007 58 293.933 57.974 293.873 57.922C293.821 57.8613 293.795 57.7877 293.795 57.701V49.212C293.795 49.1167 293.821 49.043 293.873 48.991C293.933 48.9303 294.007 48.9 294.094 48.9H297.045C298.353 48.9 299.298 49.1947 299.879 49.784C300.459 50.3647 300.763 51.2443 300.789 52.423C300.797 52.6743 300.802 53.0123 300.802 53.437C300.802 53.8617 300.797 54.204 300.789 54.464C300.763 55.2873 300.624 55.959 300.373 56.479C300.13 56.9903 299.744 57.3717 299.216 57.623C298.687 57.8743 297.985 58 297.11 58H294.094ZM297.045 56.895C297.643 56.895 298.115 56.8127 298.462 56.648C298.817 56.4833 299.073 56.2233 299.229 55.868C299.393 55.504 299.484 55.0187 299.502 54.412C299.519 53.892 299.528 53.567 299.528 53.437C299.528 53.2983 299.519 52.9777 299.502 52.475C299.484 51.617 299.281 50.993 298.891 50.603C298.501 50.2043 297.864 50.005 296.98 50.005H295.069V56.895H297.045ZM305.682 58.13C304.963 58.13 304.339 58.0173 303.81 57.792C303.29 57.5667 302.892 57.272 302.614 56.908C302.337 56.5353 302.19 56.1367 302.172 55.712C302.172 55.6427 302.198 55.582 302.25 55.53C302.311 55.4693 302.38 55.439 302.458 55.439H303.121C303.286 55.439 303.399 55.5257 303.459 55.699C303.537 56.063 303.758 56.375 304.122 56.635C304.495 56.895 305.015 57.025 305.682 57.025C306.402 57.025 306.943 56.8993 307.307 56.648C307.671 56.388 307.853 56.0283 307.853 55.569C307.853 55.2743 307.762 55.036 307.58 54.854C307.407 54.672 307.147 54.5117 306.8 54.373C306.454 54.2343 305.934 54.061 305.24 53.853C304.564 53.6623 304.027 53.4587 303.628 53.242C303.23 53.0253 302.931 52.7567 302.731 52.436C302.532 52.1153 302.432 51.7123 302.432 51.227C302.432 50.759 302.558 50.3387 302.809 49.966C303.069 49.5933 303.438 49.303 303.914 49.095C304.391 48.8783 304.959 48.77 305.617 48.77C306.293 48.77 306.874 48.8913 307.359 49.134C307.845 49.368 308.213 49.667 308.464 50.031C308.716 50.395 308.85 50.759 308.867 51.123C308.867 51.1923 308.841 51.253 308.789 51.305C308.746 51.357 308.681 51.383 308.594 51.383H307.905C307.723 51.383 307.611 51.3007 307.567 51.136C307.515 50.772 307.312 50.473 306.956 50.239C306.601 49.9963 306.155 49.875 305.617 49.875C305.028 49.875 304.564 49.9877 304.226 50.213C303.888 50.4383 303.719 50.772 303.719 51.214C303.719 51.5087 303.797 51.7513 303.953 51.942C304.118 52.1327 304.365 52.3017 304.694 52.449C305.024 52.5877 305.505 52.748 306.137 52.93C306.874 53.1293 307.455 53.3373 307.879 53.554C308.304 53.762 308.62 54.0263 308.828 54.347C309.036 54.659 309.14 55.0577 309.14 55.543C309.14 56.349 308.828 56.9817 308.204 57.441C307.58 57.9003 306.74 58.13 305.682 58.13Z" fill="white"/>
</svg>
